<svg width="58" height="100" viewBox="0 0 58 100" fill="none" xmlns="http://www.w3.org/2000/svg">
<path d="M50.46 10.2655C50.1495 7.13938 49.585 4.57651 49.0347 2.83037C48.7666 1.95731 48.5125 1.28138 48.3009 0.816685C48.1033 0.366069 47.9904 0.140762 47.9904 0.140762C47.934 0.0281078 47.8069 -0.0282191 47.6941 0.0140261C47.5812 0.0562713 47.5247 0.197089 47.5671 0.309742C47.5671 0.309742 47.6658 0.549132 47.8211 0.999747C47.9763 1.43628 48.1739 2.12629 48.3714 2.98527C48.7666 4.73141 49.1052 7.26612 49.204 10.3359C49.3028 13.4058 49.1476 16.9825 48.6113 20.7564C48.061 24.5303 47.1296 28.5014 45.6478 32.219C44.8999 34.0777 44.0391 35.8802 43.0371 37.5418C42.0493 39.2176 40.9062 40.7384 39.6926 42.0762C38.4507 43.3998 37.1383 44.5546 35.7836 45.4558C34.4288 46.3711 33.0459 47.0752 31.7193 47.5962C30.3928 48.1172 29.1369 48.4552 27.9938 48.6805C26.8648 48.9199 25.8347 49.0044 25.0021 49.0748C24.5646 49.103 23.9719 49.117 23.478 49.1311C22.9135 49.1311 22.3349 49.1311 21.7704 49.0748C19.8653 48.8495 17.932 48.3566 16.0692 47.5399C13.2045 46.3007 10.5373 44.3292 8.46287 41.7945C8.19474 41.4847 7.95484 41.1609 7.70082 40.8229C7.58793 40.6539 7.44681 40.4849 7.34803 40.33L6.99523 39.809C6.55776 39.119 6.16262 38.4008 5.83805 37.6404C5.16068 36.1337 4.7091 34.5143 4.44097 32.8808C3.94705 29.5857 4.22929 26.1638 5.24535 23.0377C5.75338 21.4746 6.43075 19.9678 7.26336 18.6019C8.09596 17.2219 9.09791 15.9686 10.2269 14.8843C10.7913 14.3351 11.3982 13.8423 12.005 13.3776C12.3154 13.1664 12.64 12.927 12.9646 12.7158C13.2892 12.5186 13.5996 12.3074 13.9383 12.1243C15.2507 11.378 16.6196 10.7866 18.0025 10.35C20.7544 9.47695 23.5485 9.29389 26.0463 9.57552C28.5583 9.85716 30.788 10.6176 32.6225 11.5188C34.4571 12.4341 35.8824 13.5325 36.9831 14.5182C38.0838 15.5039 38.8459 16.4052 39.3398 17.0248C39.8337 17.6444 40.9485 19.1933 41.1179 19.1089C41.1884 19.0807 41.1884 19.1089 41.2308 19.0385C41.3013 18.9399 40.4405 17.3486 40.0031 16.6586C39.5515 15.9827 38.6906 14.8843 37.6322 13.7578C36.5739 12.6313 35.1485 11.4202 33.2575 10.2514C31.3807 9.08266 29.024 8.06878 26.2721 7.54775C23.5344 6.99857 20.3875 7.02673 17.1982 7.80123C15.6035 8.18143 13.9948 8.75878 12.4566 9.54736C12.0614 9.73042 11.6522 9.98389 11.257 10.1951C11.0595 10.3078 10.9183 10.4063 10.7349 10.5049L10.4809 10.6598L10.3539 10.7302L10.2974 10.7725H10.2692L10.1845 10.857C9.42248 11.3639 8.67455 11.899 7.96895 12.5186C7.24925 13.1241 6.6001 13.786 5.96506 14.49C5.34414 15.2082 4.75143 15.9546 4.22929 16.7431C3.15678 18.3203 2.28184 20.0523 1.60447 21.8689C0.235611 25.502 -0.286529 29.5153 0.150941 33.5286C0.376732 35.5422 0.884767 37.5559 1.68915 39.471C1.88671 39.9498 2.1125 40.4286 2.3383 40.8933C2.43708 41.1186 2.60642 41.3862 2.73343 41.6396L2.94511 42.0198L3.05801 42.2029L3.14268 42.3437L3.48136 42.8788L3.52369 42.9492V42.9774L3.63659 43.1041L3.74949 43.259L3.96117 43.5688C4.24341 43.9772 4.55386 44.3715 4.87844 44.7517C6.14851 46.3007 7.60204 47.6807 9.18258 48.8636C10.7772 50.0323 12.4848 50.9899 14.2488 51.7222C17.7909 53.1585 21.5305 53.7077 24.9738 53.4542C28.4313 53.2148 31.6065 52.2573 34.203 50.8068C34.8099 50.4689 35.3884 50.1168 35.9247 49.7366C36.588 49.3423 37.2371 48.9058 37.8863 48.427C39.4386 47.2864 40.8921 45.8782 42.2186 44.3011C43.531 42.7098 44.7164 40.9496 45.7043 39.0627C46.7062 37.1757 47.5106 35.1761 48.188 33.1624C48.8512 31.1347 49.3734 29.0787 49.7544 27.0228C50.1495 24.9809 50.3894 22.9532 50.5447 20.9817C50.8551 17.0529 50.7563 13.3776 50.4176 10.2514L50.46 10.2655Z" fill="#8A1538"/>
<path d="M57.6236 37.049C57.4119 34.9931 57.1156 33.3877 56.918 32.3035C56.8192 31.7543 56.7345 31.3459 56.664 31.0643C56.6075 30.7826 56.6075 30.6981 56.5088 30.6418C56.3959 30.5714 56.1701 30.6277 56.1136 30.7263C56.0572 30.8249 56.0854 30.8953 56.1136 31.1769C56.1418 31.4586 56.1842 31.881 56.2265 32.4302C56.3253 33.5286 56.4523 35.1339 56.4664 37.1757C56.4946 39.2176 56.4664 41.6819 56.156 44.4701C55.8455 47.2583 55.3798 50.3703 54.5049 53.6795C54.0815 55.3271 53.5311 57.031 52.9384 58.749C52.3457 60.481 51.6401 62.2412 50.8499 64.0014C49.2693 67.55 47.1949 71.0846 44.8664 74.605C42.5097 78.1113 39.772 81.5191 36.6956 84.6734C35.1574 86.2506 33.5768 87.7996 31.9116 89.25C31.6858 89.4471 31.4601 89.6302 31.2484 89.8133C31.4883 88.9684 31.7 88.1235 31.8693 87.2504C32.3773 84.6593 32.5467 81.9557 32.2785 79.266C32.0104 76.5764 31.2484 73.9431 30.1194 71.5915C29.5691 70.4086 28.8917 69.3103 28.172 68.2823C27.9885 68.0288 27.8051 67.7753 27.6216 67.5219C27.4382 67.2825 27.2406 67.029 27.0289 66.7755L26.7749 66.4657C26.6479 66.3108 26.5491 66.2123 26.4362 66.0715C26.2104 65.818 25.9846 65.5786 25.7588 65.3533C23.9102 63.5367 22.0192 62.3116 20.2128 61.2555C18.3783 60.2275 16.5861 59.4108 14.8785 58.6926C13.1569 57.9745 11.534 57.3408 9.95346 56.8198C8.38703 56.2987 6.89117 55.8481 5.52231 55.4257C4.85905 55.2144 4.224 55.0173 3.61719 54.8202C3.49018 54.792 3.30674 54.7075 3.1515 54.6653C2.47413 54.3836 2.40356 53.7922 2.40356 53.5246C2.40356 53.4401 2.41768 53.3416 2.43179 53.2571C2.51646 52.3981 2.75637 51.5391 2.99627 50.8069C3.25029 50.0746 3.47608 49.4268 3.68775 48.9058C3.88532 48.3848 4.05466 47.9905 4.16756 47.7089C4.26634 47.4272 4.32279 47.3568 4.26634 47.2864C4.20989 47.216 3.94177 47.0611 3.84299 47.1174C3.75832 47.1738 3.75832 47.1878 3.64542 47.3427C3.46197 47.5681 3.23617 47.9201 2.91159 48.3707C2.58702 48.8213 2.206 49.3987 1.78264 50.0887C1.3734 50.7928 0.907701 51.6095 0.554902 52.6093C0.385559 53.1163 0.230324 53.6654 0.187989 54.285C0.145653 54.8906 0.258557 55.6087 0.681915 56.2142C0.893594 56.51 1.16172 56.7634 1.47218 56.9606C1.79676 57.1577 2.079 57.2845 2.38946 57.4394C3.01038 57.721 3.64542 58.0026 4.30868 58.2843C6.94762 59.4108 9.93935 60.6641 13.0722 62.2553C14.6386 63.058 16.2474 63.931 17.8279 64.959C19.4085 65.987 20.9749 67.1558 22.3296 68.578C23.6561 70.0284 24.7851 71.7605 25.6459 73.6334C26.5068 75.5203 27.043 77.5903 27.2406 79.7448C27.6216 84.0538 26.6055 88.5459 24.898 92.7845C24.4746 93.8547 23.9948 94.8968 23.5009 95.9529L22.753 97.5441C22.626 97.8117 22.5131 98.0933 22.4002 98.389C22.3437 98.5439 22.2873 98.6988 22.2591 98.9241C22.2591 98.9805 22.2591 99.0509 22.2591 99.1354C22.2591 99.1776 22.2591 99.2199 22.2873 99.2903C22.3437 99.4452 22.3155 99.3607 22.3296 99.4029L22.3579 99.4593C22.3579 99.4593 22.4002 99.5297 22.4284 99.5719C22.4849 99.6564 22.5272 99.6986 22.5836 99.7409C22.8094 99.924 23.0493 99.9803 23.2469 99.9944C23.4445 100.008 23.6279 99.9944 23.7973 99.9803C24.136 99.938 24.4464 99.8395 24.7428 99.7409C25.3355 99.5297 25.8858 99.2762 26.4221 98.9946C27.4946 98.4313 28.4965 97.7835 29.4703 97.0935C33.3652 94.3335 36.8085 91.0384 39.9272 87.5743C43.0318 84.0961 45.7837 80.3926 48.1121 76.6187C50.4406 72.8307 52.3457 68.9723 53.8275 65.1702C55.2951 61.3682 56.3394 57.6506 56.9886 54.1583C58.301 47.1597 58.1034 41.1749 57.6518 37.0772L57.6236 37.049Z" fill="#8A1538"/>
</svg>
