<svg width="199" height="100" viewBox="0 0 199 100" fill="none" xmlns="http://www.w3.org/2000/svg">
<g clip-path="url(#clip0_974_648)">
<path d="M76.7706 8.16113V16.862H87.2042V8.16113H90.0269V28.9611H87.2042V19.2056H76.7706V28.9611H73.9922V8.16113H76.7706Z" fill="#8A1538"/>
<path d="M103.831 22.4282L101.585 28.9758H98.7031L106.033 8.17578H109.388L116.748 28.9758H113.777L111.472 22.4282H103.831ZM110.91 20.3335L108.797 14.3425C108.324 12.9803 107.999 11.7499 107.674 10.5487H107.615C107.289 11.7792 106.935 13.0535 106.521 14.3132L104.408 20.3335H110.91Z" fill="#8A1538"/>
<path d="M143.48 19.8355C143.317 16.9352 143.125 13.449 143.155 10.8563H143.051C142.312 13.2879 141.425 15.8806 140.332 18.7516L136.519 28.844H134.406L130.918 18.942C129.898 16.0124 129.026 13.3318 128.42 10.8563H128.361C128.302 13.449 128.14 16.9352 127.947 20.0552L127.371 28.9758H124.711L126.218 8.17578H129.765L133.445 18.2389C134.347 20.8023 135.071 23.0873 135.618 25.2406H135.706C136.253 23.1459 137.021 20.8609 137.982 18.2389L141.824 8.17578H145.371L146.716 28.9758H143.997L143.45 19.8355H143.48Z" fill="#8A1538"/>
<path d="M159.691 22.4282L157.444 28.9758H154.562L161.893 8.17578H165.247L172.607 28.9758H169.637L167.331 22.4282H159.691ZM166.77 20.3335L164.656 14.3425C164.183 12.9803 163.858 11.7499 163.533 10.5487H163.474C163.149 11.7792 162.794 13.0535 162.38 14.3132L160.267 20.3335H166.77Z" fill="#8A1538"/>
<path d="M181.289 8.43944C182.989 8.19042 184.998 8 187.215 8C191.22 8 194.058 8.89352 195.949 10.5927C197.871 12.2918 198.994 14.6941 198.994 18.0631C198.994 21.4321 197.9 24.2299 195.89 26.1487C193.88 28.0969 190.54 29.1369 186.358 29.1369C184.378 29.1369 182.708 29.049 181.304 28.8879V8.43944H181.289ZM184.067 26.8372C184.777 26.9544 185.797 26.9983 186.89 26.9983C192.846 26.9983 196.068 23.7904 196.068 18.1656C196.097 13.2586 193.215 10.1386 187.333 10.1386C185.9 10.1386 184.806 10.2558 184.067 10.4169V26.8372Z" fill="#8A1538"/>
<path d="M83.3195 51.1967C82.9755 51.1967 82.6275 51.1727 82.2755 51.1247C81.9315 51.0767 81.6115 50.9607 81.3155 50.7767C81.0195 50.5927 80.7755 50.3087 80.5835 49.9247C80.3995 49.5327 80.2955 48.9967 80.2715 48.3167L81.0395 47.9087C81.0795 48.4447 81.1675 48.8687 81.3035 49.1807C81.4475 49.4847 81.6275 49.7127 81.8435 49.8647C82.0595 50.0087 82.3035 50.1047 82.5755 50.1527C82.8475 50.1927 83.1315 50.2127 83.4275 50.2127C83.5955 50.2127 83.7155 50.2607 83.7875 50.3567C83.8675 50.4447 83.9075 50.5527 83.9075 50.6807C83.9075 50.8087 83.8515 50.9287 83.7395 51.0407C83.6355 51.1447 83.4955 51.1967 83.3195 51.1967ZM79.8395 55.8647C79.2795 55.8647 78.7435 55.8007 78.2315 55.6727C77.7275 55.5447 77.2795 55.3447 76.8875 55.0727C76.5035 54.8087 76.1995 54.4727 75.9755 54.0647C75.7515 53.6567 75.6395 53.1767 75.6395 52.6247C75.6395 52.1607 75.7075 51.7167 75.8435 51.2927C75.9795 50.8767 76.1755 50.4847 76.4315 50.1167C76.6955 49.7407 77.0155 49.3967 77.3915 49.0847C77.7675 48.7727 78.1955 48.4967 78.6755 48.2567C79.1555 48.0087 79.6795 47.8007 80.2475 47.6327L80.1155 47.7887C79.9075 47.7247 79.6955 47.6567 79.4795 47.5847C79.2635 47.5047 79.0395 47.4327 78.8075 47.3687C78.5755 47.2967 78.3275 47.2407 78.0635 47.2007C77.7995 47.1607 77.5155 47.1407 77.2115 47.1407C76.9715 47.1407 76.7595 47.1607 76.5755 47.2007C76.3995 47.2407 76.2315 47.2807 76.0715 47.3207L75.9035 46.4327C76.1115 46.3447 76.3435 46.2767 76.5995 46.2287C76.8635 46.1727 77.1275 46.1447 77.3915 46.1447C77.7595 46.1447 78.0875 46.1807 78.3755 46.2527C78.6635 46.3167 78.9355 46.3967 79.1915 46.4927C79.4555 46.5887 79.7315 46.6887 80.0195 46.7927C80.3075 46.8887 80.6275 46.9727 80.9795 47.0447C81.3395 47.1087 81.7635 47.1447 82.2515 47.1527H82.3595L82.3835 48.1367C81.9995 48.1367 81.5915 48.1807 81.1595 48.2687C80.7275 48.3567 80.2955 48.4847 79.8635 48.6527C79.4395 48.8207 79.0315 49.0287 78.6395 49.2767C78.2475 49.5247 77.8995 49.8127 77.5955 50.1407C77.2995 50.4607 77.0635 50.8167 76.8875 51.2087C76.7115 51.6087 76.6235 52.0407 76.6235 52.5047C76.6235 52.9207 76.7115 53.2767 76.8875 53.5727C77.0635 53.8767 77.3035 54.1247 77.6075 54.3167C77.9195 54.5087 78.2755 54.6487 78.6755 54.7367C79.0835 54.8247 79.5115 54.8687 79.9595 54.8687C80.3515 54.8687 80.7515 54.8247 81.1595 54.7367C81.5755 54.6567 81.9795 54.5407 82.3715 54.3887L82.7075 55.2047C82.2435 55.4287 81.7675 55.5927 81.2795 55.6967C80.7915 55.8087 80.3115 55.8647 79.8395 55.8647ZM79.2635 44.9087C79.0955 44.9087 78.9515 44.8527 78.8315 44.7407C78.7195 44.6207 78.6635 44.4807 78.6635 44.3207C78.6635 44.1607 78.7195 44.0207 78.8315 43.9007C78.9515 43.7807 79.0955 43.7207 79.2635 43.7207C79.4235 43.7207 79.5595 43.7807 79.6715 43.9007C79.7915 44.0207 79.8515 44.1607 79.8515 44.3207C79.8515 44.4807 79.7915 44.6207 79.6715 44.7407C79.5595 44.8527 79.4235 44.9087 79.2635 44.9087ZM83.3125 51.1967L83.4325 50.2127C83.8325 50.2127 84.1445 50.1847 84.3685 50.1287C84.5925 50.0647 84.7605 49.9487 84.8725 49.7807C84.9925 49.6047 85.0885 49.3527 85.1605 49.0247C85.2325 48.6967 85.3205 48.2687 85.4245 47.7407L86.3605 47.9207C86.3285 48.0647 86.2925 48.2247 86.2525 48.4007C86.2125 48.5767 86.1765 48.7527 86.1445 48.9287C86.1205 49.0967 86.1085 49.2447 86.1085 49.3727C86.1085 49.4927 86.1165 49.6047 86.1325 49.7087C86.1485 49.8127 86.2085 49.9007 86.3125 49.9727C86.4165 50.0447 86.5925 50.1047 86.8405 50.1527C87.0885 50.1927 87.4445 50.2127 87.9085 50.2127C88.0765 50.2127 88.1965 50.2607 88.2685 50.3567C88.3485 50.4447 88.3885 50.5527 88.3885 50.6807C88.3885 50.8087 88.3325 50.9287 88.2205 51.0407C88.1085 51.1447 87.9645 51.1967 87.7885 51.1967C87.3005 51.1967 86.9125 51.1727 86.6245 51.1247C86.3365 51.0687 86.1165 50.9887 85.9645 50.8847C85.8205 50.7807 85.7165 50.6527 85.6525 50.5007C85.5965 50.3407 85.5525 50.1567 85.5205 49.9487L85.8805 49.9727C85.7525 50.2287 85.6125 50.4367 85.4605 50.5967C85.3165 50.7567 85.1485 50.8807 84.9565 50.9687C84.7645 51.0567 84.5325 51.1167 84.2605 51.1487C83.9965 51.1807 83.6805 51.1967 83.3125 51.1967ZM86.3365 53.4647C86.1685 53.4647 86.0245 53.4047 85.9045 53.2847C85.7925 53.1727 85.7365 53.0367 85.7365 52.8767C85.7365 52.7167 85.7925 52.5767 85.9045 52.4567C86.0245 52.3367 86.1685 52.2767 86.3365 52.2767C86.4965 52.2767 86.6325 52.3367 86.7445 52.4567C86.8645 52.5767 86.9245 52.7167 86.9245 52.8767C86.9245 53.0367 86.8645 53.1727 86.7445 53.2847C86.6325 53.4047 86.4965 53.4647 86.3365 53.4647ZM84.6925 53.4647C84.5245 53.4647 84.3805 53.4047 84.2605 53.2847C84.1485 53.1727 84.0925 53.0367 84.0925 52.8767C84.0925 52.7167 84.1485 52.5767 84.2605 52.4567C84.3805 52.3367 84.5245 52.2767 84.6925 52.2767C84.8525 52.2767 84.9885 52.3367 85.1005 52.4567C85.2205 52.5767 85.2805 52.7167 85.2805 52.8767C85.2805 53.0367 85.2205 53.1727 85.1005 53.2847C84.9885 53.4047 84.8525 53.4647 84.6925 53.4647ZM87.7891 51.1967L87.9091 50.2127H91.1491C91.3171 50.2127 91.4371 50.2607 91.5091 50.3567C91.5891 50.4447 91.6291 50.5527 91.6291 50.6807C91.6291 50.8087 91.5731 50.9287 91.4611 51.0407C91.3491 51.1447 91.2051 51.1967 91.0291 51.1967H87.7891ZM91.0234 51.1967L91.1434 50.2127H94.3834C94.5514 50.2127 94.6714 50.2607 94.7434 50.3567C94.8234 50.4447 94.8634 50.5527 94.8634 50.6807C94.8634 50.8087 94.8074 50.9287 94.6954 51.0407C94.5834 51.1447 94.4394 51.1967 94.2634 51.1967H91.0234ZM94.2578 51.1967L94.3778 50.2127H97.6178C97.7858 50.2127 97.9058 50.2607 97.9778 50.3567C98.0578 50.4447 98.0978 50.5527 98.0978 50.6807C98.0978 50.8087 98.0418 50.9287 97.9298 51.0407C97.8178 51.1447 97.6738 51.1967 97.4978 51.1967H94.2578ZM97.4922 51.1967L97.6122 50.2127H100.852C101.02 50.2127 101.14 50.2607 101.212 50.3567C101.292 50.4447 101.332 50.5527 101.332 50.6807C101.332 50.8087 101.276 50.9287 101.164 51.0407C101.052 51.1447 100.908 51.1967 100.732 51.1967H97.4922ZM100.727 51.1967L100.847 50.2127H104.087C104.255 50.2127 104.375 50.2607 104.447 50.3567C104.527 50.4447 104.567 50.5527 104.567 50.6807C104.567 50.8087 104.511 50.9287 104.399 51.0407C104.287 51.1447 104.143 51.1967 103.967 51.1967H100.727ZM103.961 51.1967L104.081 50.2127C104.337 50.2127 104.545 50.1967 104.705 50.1647C104.865 50.1247 104.997 50.0327 105.101 49.8887C105.213 49.7367 105.317 49.5007 105.413 49.1807C105.509 48.8607 105.621 48.4127 105.749 47.8367L106.649 48.0887C106.601 48.2887 106.545 48.5287 106.481 48.8087C106.417 49.0887 106.385 49.3447 106.385 49.5767C106.385 49.7047 106.417 49.8167 106.481 49.9127C106.545 50.0087 106.653 50.0847 106.805 50.1407C106.965 50.1887 107.177 50.2127 107.441 50.2127C107.681 50.2127 107.877 50.1927 108.029 50.1527C108.181 50.1127 108.305 50.0167 108.401 49.8647C108.505 49.7127 108.597 49.4687 108.677 49.1327C108.757 48.7967 108.841 48.3367 108.929 47.7527L109.841 47.9207C109.817 48.0647 109.789 48.2407 109.757 48.4487C109.725 48.6567 109.693 48.8647 109.661 49.0727C109.637 49.2727 109.625 49.4407 109.625 49.5767C109.625 49.6887 109.649 49.7967 109.697 49.9007C109.753 49.9967 109.857 50.0727 110.009 50.1287C110.169 50.1847 110.405 50.2127 110.717 50.2127C111.117 50.2127 111.405 50.1287 111.581 49.9607C111.765 49.7927 111.857 49.5367 111.857 49.1927C111.857 49.0087 111.853 48.8167 111.845 48.6167C111.837 48.4087 111.821 48.1807 111.797 47.9327C111.781 47.6767 111.753 47.3847 111.713 47.0567L112.589 46.9967C112.637 47.6447 112.689 48.1767 112.745 48.5927C112.809 49.0087 112.897 49.3367 113.009 49.5767C113.129 49.8087 113.289 49.9727 113.489 50.0687C113.689 50.1647 113.953 50.2127 114.281 50.2127C114.449 50.2127 114.569 50.2607 114.641 50.3567C114.721 50.4447 114.761 50.5527 114.761 50.6807C114.761 50.8087 114.705 50.9287 114.593 51.0407C114.481 51.1447 114.337 51.1967 114.161 51.1967C113.889 51.1967 113.645 51.1607 113.429 51.0887C113.221 51.0087 113.037 50.9047 112.877 50.7767C112.725 50.6407 112.597 50.4887 112.493 50.3207C112.397 50.1447 112.329 49.9607 112.289 49.7687L112.505 49.8407C112.417 50.2007 112.277 50.4807 112.085 50.6807C111.901 50.8727 111.681 51.0087 111.425 51.0887C111.169 51.1607 110.897 51.1967 110.609 51.1967C110.257 51.1967 109.969 51.1527 109.745 51.0647C109.521 50.9767 109.345 50.8447 109.217 50.6687C109.097 50.4847 109.017 50.2527 108.977 49.9727H109.385C109.233 50.3167 109.073 50.5767 108.905 50.7527C108.737 50.9287 108.529 51.0487 108.281 51.1127C108.033 51.1687 107.705 51.1967 107.297 51.1967C107.097 51.1967 106.881 51.1647 106.649 51.1007C106.425 51.0367 106.229 50.9127 106.061 50.7287C105.893 50.5367 105.793 50.2527 105.761 49.8767L106.121 49.8047C105.985 50.2127 105.817 50.5167 105.617 50.7167C105.425 50.9087 105.193 51.0367 104.921 51.1007C104.649 51.1647 104.329 51.1967 103.961 51.1967ZM109.133 44.5967C108.965 44.5967 108.821 44.5407 108.701 44.4287C108.589 44.3087 108.533 44.1687 108.533 44.0087C108.533 43.8487 108.589 43.7087 108.701 43.5887C108.821 43.4687 108.965 43.4087 109.133 43.4087C109.293 43.4087 109.429 43.4687 109.541 43.5887C109.661 43.7087 109.721 43.8487 109.721 44.0087C109.721 44.1687 109.661 44.3087 109.541 44.4287C109.429 44.5407 109.293 44.5967 109.133 44.5967ZM108.317 45.9167C108.149 45.9167 108.005 45.8607 107.885 45.7487C107.773 45.6287 107.717 45.4887 107.717 45.3287C107.717 45.1687 107.773 45.0287 107.885 44.9087C108.005 44.7887 108.149 44.7287 108.317 44.7287C108.477 44.7287 108.613 44.7887 108.725 44.9087C108.845 45.0287 108.905 45.1687 108.905 45.3287C108.905 45.4887 108.845 45.6287 108.725 45.7487C108.613 45.8607 108.477 45.9167 108.317 45.9167ZM109.949 45.9167C109.781 45.9167 109.637 45.8607 109.517 45.7487C109.405 45.6287 109.349 45.4887 109.349 45.3287C109.349 45.1687 109.405 45.0287 109.517 44.9087C109.637 44.7887 109.781 44.7287 109.949 44.7287C110.109 44.7287 110.245 44.7887 110.357 44.9087C110.477 45.0287 110.537 45.1687 110.537 45.3287C110.537 45.4887 110.477 45.6287 110.357 45.7487C110.245 45.8607 110.109 45.9167 109.949 45.9167ZM114.156 51.1967L114.264 50.2127C114.72 50.2127 115.04 50.1687 115.224 50.0807C115.408 49.9927 115.512 49.8367 115.536 49.6127C115.568 49.3887 115.576 49.0767 115.56 48.6767L115.332 42.5687H116.304L116.544 48.5687C116.56 48.9927 116.544 49.3687 116.496 49.6967C116.456 50.0247 116.352 50.3007 116.184 50.5247C116.024 50.7487 115.78 50.9167 115.452 51.0287C115.132 51.1407 114.7 51.1967 114.156 51.1967ZM118.377 51.1367L118.137 42.5687H119.109L119.349 51.1367H118.377ZM123.899 53.8967L123.683 52.9127C124.163 52.8487 124.603 52.7567 125.003 52.6367C125.411 52.5247 125.759 52.3607 126.047 52.1447C126.343 51.9287 126.571 51.6447 126.731 51.2927C126.891 50.9407 126.971 50.5007 126.971 49.9727C126.971 49.4287 126.871 48.9767 126.671 48.6167C126.471 48.2567 126.211 48.0767 125.891 48.0767C125.723 48.0767 125.567 48.1407 125.423 48.2687C125.279 48.3967 125.159 48.5687 125.063 48.7847C124.975 49.0007 124.931 49.2367 124.931 49.4927C124.931 49.6367 124.963 49.7567 125.027 49.8527C125.091 49.9407 125.183 50.0127 125.303 50.0687C125.431 50.1167 125.591 50.1527 125.783 50.1767C125.975 50.2007 126.199 50.2127 126.455 50.2127H128.987C129.155 50.2127 129.275 50.2607 129.347 50.3567C129.427 50.4447 129.467 50.5527 129.467 50.6807C129.467 50.8087 129.411 50.9287 129.299 51.0407C129.187 51.1447 129.043 51.1967 128.867 51.1967H125.999C125.639 51.1967 125.303 51.1447 124.991 51.0407C124.687 50.9367 124.439 50.7767 124.247 50.5607C124.063 50.3367 123.971 50.0447 123.971 49.6847C123.971 49.3487 124.023 49.0287 124.127 48.7247C124.231 48.4127 124.371 48.1367 124.547 47.8967C124.731 47.6487 124.943 47.4527 125.183 47.3087C125.431 47.1647 125.699 47.0927 125.987 47.0927C126.355 47.0927 126.683 47.2007 126.971 47.4167C127.259 47.6327 127.487 47.9607 127.655 48.4007C127.823 48.8327 127.907 49.3807 127.907 50.0447C127.907 50.7887 127.755 51.4287 127.451 51.9647C127.155 52.5087 126.707 52.9407 126.107 53.2607C125.515 53.5807 124.779 53.7927 123.899 53.8967ZM128.863 51.1967L128.983 50.2127H132.223C132.391 50.2127 132.511 50.2607 132.583 50.3567C132.663 50.4447 132.703 50.5527 132.703 50.6807C132.703 50.8087 132.647 50.9287 132.535 51.0407C132.423 51.1447 132.279 51.1967 132.103 51.1967H128.863ZM132.098 51.1967L132.218 50.2127C132.442 50.2127 132.618 50.1647 132.746 50.0687C132.882 49.9727 133.01 49.8127 133.13 49.5887C133.258 49.3647 133.418 49.0647 133.61 48.6887C133.802 48.3047 133.994 47.9927 134.186 47.7527C134.386 47.5047 134.578 47.3127 134.762 47.1767C134.954 47.0327 135.134 46.9327 135.302 46.8767C135.47 46.8207 135.626 46.7927 135.77 46.7927C136.034 46.7927 136.27 46.8527 136.478 46.9727C136.686 47.0847 136.882 47.2807 137.066 47.5607C137.25 47.8327 137.438 48.2087 137.63 48.6887C137.814 49.1287 137.978 49.4607 138.122 49.6847C138.274 49.9007 138.43 50.0447 138.59 50.1167C138.758 50.1807 138.946 50.2127 139.154 50.2127C139.322 50.2127 139.442 50.2607 139.514 50.3567C139.594 50.4447 139.634 50.5527 139.634 50.6807C139.634 50.8087 139.578 50.9287 139.466 51.0407C139.354 51.1447 139.21 51.1967 139.034 51.1967C138.722 51.1967 138.434 51.1447 138.17 51.0407C137.914 50.9367 137.698 50.7727 137.522 50.5487L137.69 50.2967C137.602 50.5447 137.482 50.7487 137.33 50.9087C137.186 51.0607 137.022 51.1727 136.838 51.2447C136.654 51.3247 136.458 51.3647 136.25 51.3647C135.986 51.3647 135.714 51.3087 135.434 51.1967C135.162 51.0847 134.898 50.9247 134.642 50.7167C134.386 50.5087 134.162 50.2647 133.97 49.9847C133.762 50.3527 133.562 50.6247 133.37 50.8007C133.186 50.9687 132.994 51.0767 132.794 51.1247C132.594 51.1727 132.362 51.1967 132.098 51.1967ZM134.426 49.0727C134.562 49.2967 134.706 49.4927 134.858 49.6607C135.018 49.8287 135.178 49.9687 135.338 50.0807C135.498 50.1847 135.654 50.2647 135.806 50.3207C135.966 50.3687 136.11 50.3927 136.238 50.3927C136.518 50.3927 136.722 50.2927 136.85 50.0927C136.986 49.8927 136.982 49.6127 136.838 49.2527C136.766 49.0687 136.69 48.8887 136.61 48.7127C136.538 48.5367 136.458 48.3767 136.37 48.2327C136.282 48.0807 136.182 47.9647 136.07 47.8847C135.958 47.7967 135.834 47.7527 135.698 47.7527C135.578 47.7527 135.45 47.7927 135.314 47.8727C135.186 47.9527 135.046 48.0887 134.894 48.2807C134.75 48.4727 134.594 48.7367 134.426 49.0727ZM139.035 51.1967L139.155 50.2127C139.411 50.2127 139.619 50.1967 139.779 50.1647C139.939 50.1247 140.071 50.0327 140.175 49.8887C140.287 49.7367 140.391 49.5007 140.487 49.1807C140.583 48.8607 140.695 48.4127 140.823 47.8367L141.723 48.0887C141.691 48.2247 141.655 48.3807 141.615 48.5567C141.575 48.7247 141.539 48.9007 141.507 49.0847C141.475 49.2607 141.459 49.4247 141.459 49.5767C141.459 49.7767 141.535 49.9327 141.687 50.0447C141.839 50.1567 142.115 50.2127 142.515 50.2127C142.755 50.2127 142.951 50.1927 143.103 50.1527C143.255 50.1127 143.379 50.0167 143.475 49.8647C143.579 49.7127 143.671 49.4687 143.751 49.1327C143.831 48.7967 143.915 48.3367 144.003 47.7527L144.915 47.9207C144.891 48.0647 144.863 48.2407 144.831 48.4487C144.799 48.6567 144.767 48.8647 144.735 49.0727C144.711 49.2727 144.699 49.4407 144.699 49.5767C144.699 49.6887 144.723 49.7967 144.771 49.9007C144.827 49.9967 144.931 50.0727 145.083 50.1287C145.243 50.1847 145.479 50.2127 145.791 50.2127C146.023 50.2127 146.223 50.1847 146.391 50.1287C146.567 50.0727 146.699 49.9687 146.787 49.8167C146.883 49.6647 146.931 49.4527 146.931 49.1807C146.931 48.8767 146.859 48.4967 146.715 48.0407C146.579 47.5767 146.423 47.1167 146.247 46.6607L147.219 46.3007C147.323 46.5567 147.419 46.8487 147.507 47.1767C147.603 47.5047 147.683 47.8287 147.747 48.1487C147.811 48.4687 147.843 48.7487 147.843 48.9887C147.843 49.3567 147.795 49.6807 147.699 49.9607C147.603 50.2407 147.467 50.4727 147.291 50.6567C147.115 50.8327 146.899 50.9687 146.643 51.0647C146.387 51.1527 146.099 51.1967 145.779 51.1967C145.403 51.1967 145.095 51.1527 144.855 51.0647C144.615 50.9767 144.431 50.8447 144.303 50.6687C144.175 50.4847 144.091 50.2527 144.051 49.9727H144.459C144.307 50.3167 144.147 50.5767 143.979 50.7527C143.811 50.9287 143.603 51.0487 143.355 51.1127C143.107 51.1687 142.779 51.1967 142.371 51.1967C142.171 51.1967 141.955 51.1647 141.723 51.1007C141.499 51.0367 141.303 50.9127 141.135 50.7287C140.967 50.5367 140.867 50.2527 140.835 49.8767L141.195 49.8047C141.059 50.2127 140.891 50.5167 140.691 50.7167C140.499 50.9087 140.267 51.0367 139.995 51.1007C139.723 51.1647 139.403 51.1967 139.035 51.1967ZM151.876 51.1487C151.876 50.9567 151.892 50.7527 151.924 50.5367C151.964 50.3127 152.02 50.0767 152.092 49.8287C152.172 49.5727 152.268 49.3047 152.38 49.0247L153.244 49.3607C153.164 49.5847 153.092 49.7967 153.028 49.9967C152.972 50.1967 152.928 50.3847 152.896 50.5607C152.872 50.7367 152.86 50.9047 152.86 51.0647C152.86 51.4007 152.932 51.6847 153.076 51.9167C153.228 52.1567 153.436 52.3527 153.7 52.5047C153.964 52.6567 154.264 52.7687 154.6 52.8407C154.944 52.9127 155.308 52.9487 155.692 52.9487C156.156 52.9487 156.588 52.9087 156.988 52.8287C157.396 52.7487 157.752 52.6327 158.056 52.4807C158.368 52.3367 158.612 52.1687 158.788 51.9767C158.964 51.7927 159.052 51.5927 159.052 51.3767C159.052 51.2727 159.012 51.1767 158.932 51.0887C158.852 51.0007 158.732 50.9167 158.572 50.8367C158.412 50.7567 158.22 50.6807 157.996 50.6087C157.772 50.5287 157.516 50.4487 157.228 50.3687L157.456 49.3727C157.872 49.5327 158.24 49.6687 158.56 49.7807C158.88 49.8847 159.16 49.9687 159.4 50.0327C159.64 50.0967 159.848 50.1447 160.024 50.1767C160.2 50.2007 160.348 50.2127 160.468 50.2127C160.636 50.2127 160.756 50.2607 160.828 50.3567C160.908 50.4447 160.948 50.5527 160.948 50.6807C160.948 50.8087 160.892 50.9287 160.78 51.0407C160.668 51.1447 160.524 51.1967 160.348 51.1967C160.3 51.1967 160.252 51.1967 160.204 51.1967C160.156 51.1967 160.104 51.1967 160.048 51.1967C160 51.1967 159.952 51.1967 159.904 51.1967C159.92 51.2687 159.932 51.3247 159.94 51.3647C159.948 51.4127 159.952 51.4727 159.952 51.5447C159.952 51.8407 159.848 52.1287 159.64 52.4087C159.44 52.6887 159.144 52.9407 158.752 53.1647C158.36 53.3967 157.884 53.5807 157.324 53.7167C156.772 53.8527 156.14 53.9207 155.428 53.9207C154.796 53.9207 154.208 53.8167 153.664 53.6087C153.128 53.4087 152.696 53.1047 152.368 52.6967C152.04 52.2887 151.876 51.7727 151.876 51.1487ZM160.352 51.1967L160.472 50.2127C160.672 50.2127 160.876 50.2127 161.084 50.2127C161.3 50.2047 161.512 50.1927 161.72 50.1767C161.928 50.1607 162.128 50.1407 162.32 50.1167C162.512 50.0927 162.684 50.0567 162.836 50.0087C163.116 49.9207 163.372 49.8047 163.604 49.6607C163.844 49.5167 164.036 49.3407 164.18 49.1327C164.332 48.9247 164.408 48.6847 164.408 48.4127C164.408 48.2287 164.364 48.0407 164.276 47.8487C164.188 47.6487 164.068 47.4807 163.916 47.3447C163.764 47.2087 163.588 47.1407 163.388 47.1407C163.196 47.1407 163.016 47.2047 162.848 47.3327C162.688 47.4607 162.556 47.6287 162.452 47.8367C162.356 48.0367 162.308 48.2447 162.308 48.4607C162.308 48.7167 162.372 48.9487 162.5 49.1567C162.636 49.3567 162.8 49.5287 162.992 49.6727C163.184 49.8167 163.376 49.9327 163.568 50.0207L162.428 50.3567C162.3 50.2607 162.148 50.1287 161.972 49.9607C161.804 49.7847 161.652 49.5687 161.516 49.3127C161.388 49.0567 161.324 48.7647 161.324 48.4367C161.324 48.1167 161.38 47.8207 161.492 47.5487C161.612 47.2687 161.768 47.0247 161.96 46.8167C162.16 46.6087 162.384 46.4487 162.632 46.3367C162.888 46.2167 163.152 46.1567 163.424 46.1567C163.816 46.1567 164.16 46.2647 164.456 46.4807C164.752 46.6967 164.98 46.9727 165.14 47.3087C165.308 47.6367 165.392 47.9807 165.392 48.3407C165.392 48.6847 165.328 48.9967 165.2 49.2767C165.072 49.5487 164.896 49.7927 164.672 50.0087C164.456 50.2247 164.2 50.4087 163.904 50.5607C163.616 50.7127 163.308 50.8367 162.98 50.9327C162.796 50.9887 162.596 51.0327 162.38 51.0647C162.172 51.0967 161.952 51.1207 161.72 51.1367C161.488 51.1607 161.256 51.1767 161.024 51.1847C160.792 51.1927 160.568 51.1967 160.352 51.1967ZM166.292 51.1967C165.892 51.1967 165.476 51.1727 165.044 51.1247C164.62 51.0687 164.216 51.0007 163.832 50.9207C163.456 50.8327 163.144 50.7367 162.896 50.6327L163.724 50.0327C163.964 50.0647 164.248 50.0967 164.576 50.1287C164.904 50.1527 165.232 50.1727 165.56 50.1887C165.888 50.2047 166.172 50.2127 166.412 50.2127C166.58 50.2127 166.7 50.2607 166.772 50.3567C166.852 50.4447 166.892 50.5527 166.892 50.6807C166.892 50.8087 166.836 50.9287 166.724 51.0407C166.612 51.1447 166.468 51.1967 166.292 51.1967ZM163.316 44.9207C163.148 44.9207 163.004 44.8647 162.884 44.7527C162.772 44.6327 162.716 44.4927 162.716 44.3327C162.716 44.1727 162.772 44.0327 162.884 43.9127C163.004 43.7927 163.148 43.7327 163.316 43.7327C163.476 43.7327 163.612 43.7927 163.724 43.9127C163.844 44.0327 163.904 44.1727 163.904 44.3327C163.904 44.4927 163.844 44.6327 163.724 44.7527C163.612 44.8647 163.476 44.9207 163.316 44.9207ZM166.293 51.1967L166.413 50.2127C166.669 50.2127 166.877 50.1967 167.037 50.1647C167.197 50.1247 167.329 50.0327 167.433 49.8887C167.545 49.7367 167.649 49.5007 167.745 49.1807C167.841 48.8607 167.953 48.4127 168.081 47.8367L168.981 48.0887C168.933 48.2887 168.877 48.5287 168.813 48.8087C168.749 49.0887 168.717 49.3447 168.717 49.5767C168.717 49.7047 168.749 49.8167 168.813 49.9127C168.877 50.0087 168.985 50.0847 169.137 50.1407C169.297 50.1887 169.509 50.2127 169.773 50.2127C170.013 50.2127 170.209 50.1927 170.361 50.1527C170.513 50.1127 170.637 50.0167 170.733 49.8647C170.837 49.7127 170.929 49.4687 171.009 49.1327C171.089 48.7967 171.173 48.3367 171.261 47.7527L172.173 47.9207C172.149 48.0647 172.121 48.2407 172.089 48.4487C172.057 48.6567 172.025 48.8647 171.993 49.0727C171.969 49.2727 171.957 49.4407 171.957 49.5767C171.957 49.6887 171.981 49.7967 172.029 49.9007C172.085 49.9967 172.189 50.0727 172.341 50.1287C172.501 50.1847 172.737 50.2127 173.049 50.2127C173.449 50.2127 173.737 50.1287 173.913 49.9607C174.097 49.7927 174.189 49.5367 174.189 49.1927C174.189 49.0087 174.185 48.8167 174.177 48.6167C174.169 48.4087 174.153 48.1807 174.129 47.9327C174.113 47.6767 174.085 47.3847 174.045 47.0567L174.921 46.9967C174.969 47.6447 175.021 48.1767 175.077 48.5927C175.141 49.0087 175.229 49.3367 175.341 49.5767C175.461 49.8087 175.621 49.9727 175.821 50.0687C176.021 50.1647 176.285 50.2127 176.613 50.2127C176.781 50.2127 176.901 50.2607 176.973 50.3567C177.053 50.4447 177.093 50.5527 177.093 50.6807C177.093 50.8087 177.037 50.9287 176.925 51.0407C176.813 51.1447 176.669 51.1967 176.493 51.1967C176.221 51.1967 175.977 51.1607 175.761 51.0887C175.553 51.0087 175.369 50.9047 175.209 50.7767C175.057 50.6407 174.929 50.4887 174.825 50.3207C174.729 50.1447 174.661 49.9607 174.621 49.7687L174.837 49.8407C174.749 50.2007 174.609 50.4807 174.417 50.6807C174.233 50.8727 174.013 51.0087 173.757 51.0887C173.501 51.1607 173.229 51.1967 172.941 51.1967C172.589 51.1967 172.301 51.1527 172.077 51.0647C171.853 50.9767 171.677 50.8447 171.549 50.6687C171.429 50.4847 171.349 50.2527 171.309 49.9727H171.717C171.565 50.3167 171.405 50.5767 171.237 50.7527C171.069 50.9287 170.861 51.0487 170.613 51.1127C170.365 51.1687 170.037 51.1967 169.629 51.1967C169.429 51.1967 169.213 51.1647 168.981 51.1007C168.757 51.0367 168.561 50.9127 168.393 50.7287C168.225 50.5367 168.125 50.2527 168.093 49.8767L168.453 49.8047C168.317 50.2127 168.149 50.5167 167.949 50.7167C167.757 50.9087 167.525 51.0367 167.253 51.1007C166.981 51.1647 166.661 51.1967 166.293 51.1967ZM171.465 44.5967C171.297 44.5967 171.153 44.5407 171.033 44.4287C170.921 44.3087 170.865 44.1687 170.865 44.0087C170.865 43.8487 170.921 43.7087 171.033 43.5887C171.153 43.4687 171.297 43.4087 171.465 43.4087C171.625 43.4087 171.761 43.4687 171.873 43.5887C171.993 43.7087 172.053 43.8487 172.053 44.0087C172.053 44.1687 171.993 44.3087 171.873 44.4287C171.761 44.5407 171.625 44.5967 171.465 44.5967ZM170.649 45.9167C170.481 45.9167 170.337 45.8607 170.217 45.7487C170.105 45.6287 170.049 45.4887 170.049 45.3287C170.049 45.1687 170.105 45.0287 170.217 44.9087C170.337 44.7887 170.481 44.7287 170.649 44.7287C170.809 44.7287 170.945 44.7887 171.057 44.9087C171.177 45.0287 171.237 45.1687 171.237 45.3287C171.237 45.4887 171.177 45.6287 171.057 45.7487C170.945 45.8607 170.809 45.9167 170.649 45.9167ZM172.281 45.9167C172.113 45.9167 171.969 45.8607 171.849 45.7487C171.737 45.6287 171.681 45.4887 171.681 45.3287C171.681 45.1687 171.737 45.0287 171.849 44.9087C171.969 44.7887 172.113 44.7287 172.281 44.7287C172.441 44.7287 172.577 44.7887 172.689 44.9087C172.809 45.0287 172.869 45.1687 172.869 45.3287C172.869 45.4887 172.809 45.6287 172.689 45.7487C172.577 45.8607 172.441 45.9167 172.281 45.9167ZM176.488 51.1967L176.608 50.2127C177.008 50.2127 177.32 50.1847 177.544 50.1287C177.768 50.0647 177.936 49.9487 178.048 49.7807C178.168 49.6047 178.264 49.3527 178.336 49.0247C178.408 48.6967 178.496 48.2687 178.6 47.7407L179.536 47.9207C179.504 48.0647 179.468 48.2247 179.428 48.4007C179.388 48.5767 179.352 48.7527 179.32 48.9287C179.296 49.0967 179.284 49.2447 179.284 49.3727C179.284 49.4927 179.292 49.6047 179.308 49.7087C179.324 49.8127 179.384 49.9007 179.488 49.9727C179.592 50.0447 179.768 50.1047 180.016 50.1527C180.264 50.1927 180.62 50.2127 181.084 50.2127C181.252 50.2127 181.372 50.2607 181.444 50.3567C181.524 50.4447 181.564 50.5527 181.564 50.6807C181.564 50.8087 181.508 50.9287 181.396 51.0407C181.284 51.1447 181.14 51.1967 180.964 51.1967C180.476 51.1967 180.088 51.1727 179.8 51.1247C179.512 51.0687 179.292 50.9887 179.14 50.8847C178.996 50.7807 178.892 50.6527 178.828 50.5007C178.772 50.3407 178.728 50.1567 178.696 49.9487L179.056 49.9727C178.928 50.2287 178.788 50.4367 178.636 50.5967C178.492 50.7567 178.324 50.8807 178.132 50.9687C177.94 51.0567 177.708 51.1167 177.436 51.1487C177.172 51.1807 176.856 51.1967 176.488 51.1967ZM179.692 46.5047C179.524 46.5047 179.38 46.4487 179.26 46.3367C179.148 46.2167 179.092 46.0767 179.092 45.9167C179.092 45.7567 179.148 45.6167 179.26 45.4967C179.38 45.3767 179.524 45.3167 179.692 45.3167C179.852 45.3167 179.988 45.3767 180.1 45.4967C180.22 45.6167 180.28 45.7567 180.28 45.9167C180.28 46.0767 180.22 46.2167 180.1 46.3367C179.988 46.4487 179.852 46.5047 179.692 46.5047ZM178.048 46.5047C177.88 46.5047 177.736 46.4487 177.616 46.3367C177.504 46.2167 177.448 46.0767 177.448 45.9167C177.448 45.7567 177.504 45.6167 177.616 45.4967C177.736 45.3767 177.88 45.3167 178.048 45.3167C178.208 45.3167 178.344 45.3767 178.456 45.4967C178.576 45.6167 178.636 45.7567 178.636 45.9167C178.636 46.0767 178.576 46.2167 178.456 46.3367C178.344 46.4487 178.208 46.5047 178.048 46.5047ZM180.965 51.1967L181.085 50.2127C181.341 50.2127 181.549 50.1967 181.709 50.1647C181.869 50.1247 182.001 50.0327 182.105 49.8887C182.217 49.7367 182.321 49.5007 182.417 49.1807C182.513 48.8607 182.625 48.4127 182.753 47.8367L183.653 48.0887C183.605 48.2887 183.549 48.5287 183.485 48.8087C183.421 49.0887 183.389 49.3447 183.389 49.5767C183.389 49.7047 183.421 49.8167 183.485 49.9127C183.549 50.0087 183.657 50.0847 183.809 50.1407C183.969 50.1887 184.181 50.2127 184.445 50.2127C184.685 50.2127 184.881 50.1927 185.033 50.1527C185.185 50.1127 185.309 50.0167 185.405 49.8647C185.509 49.7127 185.601 49.4687 185.681 49.1327C185.761 48.7967 185.845 48.3367 185.933 47.7527L186.845 47.9207C186.821 48.0647 186.793 48.2407 186.761 48.4487C186.729 48.6567 186.697 48.8647 186.665 49.0727C186.641 49.2727 186.629 49.4407 186.629 49.5767C186.629 49.6887 186.653 49.7967 186.701 49.9007C186.757 49.9967 186.861 50.0727 187.013 50.1287C187.173 50.1847 187.409 50.2127 187.721 50.2127C188.121 50.2127 188.409 50.1287 188.585 49.9607C188.769 49.7927 188.861 49.5367 188.861 49.1927C188.861 49.0087 188.857 48.8167 188.849 48.6167C188.841 48.4087 188.825 48.1807 188.801 47.9327C188.785 47.6767 188.757 47.3847 188.717 47.0567L189.593 46.9967C189.641 47.6447 189.693 48.1767 189.749 48.5927C189.813 49.0087 189.901 49.3367 190.013 49.5767C190.133 49.8087 190.293 49.9727 190.493 50.0687C190.693 50.1647 190.957 50.2127 191.285 50.2127C191.453 50.2127 191.573 50.2607 191.645 50.3567C191.725 50.4447 191.765 50.5527 191.765 50.6807C191.765 50.8087 191.709 50.9287 191.597 51.0407C191.485 51.1447 191.341 51.1967 191.165 51.1967C190.893 51.1967 190.649 51.1607 190.433 51.0887C190.225 51.0087 190.041 50.9047 189.881 50.7767C189.729 50.6407 189.601 50.4887 189.497 50.3207C189.401 50.1447 189.333 49.9607 189.293 49.7687L189.509 49.8407C189.421 50.2007 189.281 50.4807 189.089 50.6807C188.905 50.8727 188.685 51.0087 188.429 51.0887C188.173 51.1607 187.901 51.1967 187.613 51.1967C187.261 51.1967 186.973 51.1527 186.749 51.0647C186.525 50.9767 186.349 50.8447 186.221 50.6687C186.101 50.4847 186.021 50.2527 185.981 49.9727H186.389C186.237 50.3167 186.077 50.5767 185.909 50.7527C185.741 50.9287 185.533 51.0487 185.285 51.1127C185.037 51.1687 184.709 51.1967 184.301 51.1967C184.101 51.1967 183.885 51.1647 183.653 51.1007C183.429 51.0367 183.233 50.9127 183.065 50.7287C182.897 50.5367 182.797 50.2527 182.765 49.8767L183.125 49.8047C182.989 50.2127 182.821 50.5167 182.621 50.7167C182.429 50.9087 182.197 51.0367 181.925 51.1007C181.653 51.1647 181.333 51.1967 180.965 51.1967ZM191.16 51.1967L191.28 50.2127C191.504 50.2127 191.692 50.1647 191.844 50.0687C191.996 49.9727 192.144 49.8127 192.288 49.5887C192.432 49.3647 192.588 49.0647 192.756 48.6887C192.988 48.1767 193.216 47.7887 193.44 47.5247C193.672 47.2607 193.9 47.0807 194.124 46.9847C194.356 46.8887 194.584 46.8407 194.808 46.8407C195.08 46.8407 195.332 46.9127 195.564 47.0567C195.796 47.1927 196 47.3767 196.176 47.6087C196.352 47.8407 196.488 48.0967 196.584 48.3767C196.688 48.6487 196.74 48.9207 196.74 49.1927C196.74 49.6727 196.656 50.0567 196.488 50.3447C196.32 50.6247 196.104 50.8287 195.84 50.9567C195.584 51.0767 195.316 51.1367 195.036 51.1367C194.788 51.1367 194.468 51.0887 194.076 50.9927C193.692 50.8967 193.204 50.6527 192.612 50.2607L193.08 49.5047C193.472 49.7527 193.824 49.9247 194.136 50.0207C194.456 50.1087 194.72 50.1527 194.928 50.1527C195.16 50.1527 195.344 50.1207 195.48 50.0567C195.616 49.9847 195.716 49.8847 195.78 49.7567C195.844 49.6287 195.876 49.4847 195.876 49.3247C195.876 49.0927 195.82 48.8607 195.708 48.6287C195.596 48.3967 195.452 48.2047 195.276 48.0527C195.108 47.9007 194.928 47.8247 194.736 47.8247C194.592 47.8247 194.452 47.8647 194.316 47.9447C194.18 48.0247 194.04 48.1727 193.896 48.3887C193.752 48.6047 193.588 48.9167 193.404 49.3247C193.212 49.7567 193.028 50.1007 192.852 50.3567C192.684 50.6047 192.512 50.7887 192.336 50.9087C192.16 51.0287 191.976 51.1047 191.784 51.1367C191.6 51.1767 191.392 51.1967 191.16 51.1967ZM74.5905 69.1487C74.5905 68.9567 74.6065 68.7527 74.6385 68.5367C74.6785 68.3127 74.7345 68.0767 74.8065 67.8287C74.8865 67.5727 74.9825 67.3047 75.0945 67.0247L75.9585 67.3607C75.8785 67.5847 75.8065 67.7967 75.7425 67.9967C75.6865 68.1967 75.6425 68.3847 75.6105 68.5607C75.5865 68.7367 75.5745 68.9047 75.5745 69.0647C75.5745 69.4007 75.6465 69.6847 75.7905 69.9167C75.9425 70.1567 76.1505 70.3527 76.4145 70.5047C76.6785 70.6567 76.9785 70.7687 77.3145 70.8407C77.6585 70.9127 78.0225 70.9487 78.4065 70.9487C78.8705 70.9487 79.3025 70.9087 79.7025 70.8287C80.1105 70.7487 80.4665 70.6327 80.7705 70.4807C81.0825 70.3367 81.3265 70.1687 81.5025 69.9767C81.6785 69.7927 81.7665 69.5927 81.7665 69.3767C81.7665 69.2727 81.7265 69.1767 81.6465 69.0887C81.5665 69.0007 81.4465 68.9167 81.2865 68.8367C81.1265 68.7567 80.9345 68.6807 80.7105 68.6087C80.4865 68.5287 80.2305 68.4487 79.9425 68.3687L80.1705 67.3727C80.5865 67.5327 80.9545 67.6687 81.2745 67.7807C81.5945 67.8847 81.8745 67.9687 82.1145 68.0327C82.3545 68.0967 82.5625 68.1447 82.7385 68.1767C82.9145 68.2007 83.0625 68.2127 83.1825 68.2127C83.3505 68.2127 83.4705 68.2607 83.5425 68.3567C83.6225 68.4447 83.6625 68.5527 83.6625 68.6807C83.6625 68.8087 83.6065 68.9287 83.4945 69.0407C83.3825 69.1447 83.2385 69.1967 83.0625 69.1967C83.0145 69.1967 82.9665 69.1967 82.9185 69.1967C82.8705 69.1967 82.8185 69.1967 82.7625 69.1967C82.7145 69.1967 82.6665 69.1967 82.6185 69.1967C82.6345 69.2687 82.6465 69.3247 82.6545 69.3647C82.6625 69.4127 82.6665 69.4727 82.6665 69.5447C82.6665 69.8407 82.5625 70.1287 82.3545 70.4087C82.1545 70.6887 81.8585 70.9407 81.4665 71.1647C81.0745 71.3967 80.5985 71.5807 80.0385 71.7167C79.4865 71.8527 78.8545 71.9207 78.1425 71.9207C77.5105 71.9207 76.9225 71.8167 76.3785 71.6087C75.8425 71.4087 75.4105 71.1047 75.0825 70.6967C74.7545 70.2887 74.5905 69.7727 74.5905 69.1487ZM79.0065 74.1887C78.8385 74.1887 78.6945 74.1287 78.5745 74.0087C78.4625 73.8967 78.4065 73.7607 78.4065 73.6007C78.4065 73.4407 78.4625 73.3007 78.5745 73.1807C78.6945 73.0607 78.8385 73.0007 79.0065 73.0007C79.1665 73.0007 79.3025 73.0607 79.4145 73.1807C79.5345 73.3007 79.5945 73.4407 79.5945 73.6007C79.5945 73.7607 79.5345 73.8967 79.4145 74.0087C79.3025 74.1287 79.1665 74.1887 79.0065 74.1887ZM77.3625 74.1887C77.1945 74.1887 77.0505 74.1287 76.9305 74.0087C76.8185 73.8967 76.7625 73.7607 76.7625 73.6007C76.7625 73.4407 76.8185 73.3007 76.9305 73.1807C77.0505 73.0607 77.1945 73.0007 77.3625 73.0007C77.5225 73.0007 77.6585 73.0607 77.7705 73.1807C77.8905 73.3007 77.9505 73.4407 77.9505 73.6007C77.9505 73.7607 77.8905 73.8967 77.7705 74.0087C77.6585 74.1287 77.5225 74.1887 77.3625 74.1887ZM83.0664 69.1967L83.1864 68.2127C83.5784 68.2127 83.8904 68.1887 84.1224 68.1407C84.3544 68.0927 84.5224 67.9967 84.6264 67.8527C84.7304 67.7007 84.7824 67.4767 84.7824 67.1807C84.7824 66.9807 84.7504 66.7447 84.6864 66.4727C84.6224 66.1927 84.5384 65.8967 84.4344 65.5847C84.3304 65.2727 84.2184 64.9647 84.0984 64.6607L85.0704 64.3007C85.1744 64.5567 85.2704 64.8487 85.3584 65.1767C85.4544 65.5047 85.5344 65.8287 85.5984 66.1487C85.6624 66.4687 85.6944 66.7487 85.6944 66.9887C85.6944 67.3087 85.6584 67.5927 85.5864 67.8407C85.5224 68.0807 85.4224 68.2887 85.2864 68.4647C85.1504 68.6327 84.9744 68.7727 84.7584 68.8847C84.5504 68.9887 84.3064 69.0687 84.0264 69.1247C83.7464 69.1727 83.4264 69.1967 83.0664 69.1967ZM84.6024 63.0527C84.4344 63.0527 84.2904 62.9967 84.1704 62.8847C84.0584 62.7647 84.0024 62.6247 84.0024 62.4647C84.0024 62.3047 84.0584 62.1647 84.1704 62.0447C84.2904 61.9247 84.4344 61.8647 84.6024 61.8647C84.7624 61.8647 84.8984 61.9247 85.0104 62.0447C85.1304 62.1647 85.1904 62.3047 85.1904 62.4647C85.1904 62.6247 85.1304 62.7647 85.0104 62.8847C84.8984 62.9967 84.7624 63.0527 84.6024 63.0527ZM89.7811 69.1967C89.1411 69.1967 88.6491 69.1247 88.3051 68.9807C87.9691 68.8367 87.7371 68.6127 87.6091 68.3087C87.4811 68.0047 87.4091 67.6127 87.3931 67.1327L87.1531 60.5687H88.1371L88.3771 66.7487C88.3931 67.1407 88.4291 67.4447 88.4851 67.6607C88.5491 67.8687 88.6851 68.0127 88.8931 68.0927C89.1091 68.1727 89.4451 68.2127 89.9011 68.2127C90.0691 68.2127 90.1891 68.2607 90.2611 68.3567C90.3411 68.4447 90.3811 68.5527 90.3811 68.6807C90.3811 68.8087 90.3251 68.9287 90.2131 69.0407C90.1011 69.1447 89.9571 69.1967 89.7811 69.1967ZM89.7812 69.1967L89.9013 68.2127H93.1413C93.3093 68.2127 93.4293 68.2607 93.5013 68.3567C93.5813 68.4447 93.6213 68.5527 93.6213 68.6807C93.6213 68.8087 93.5653 68.9287 93.4533 69.0407C93.3413 69.1447 93.1973 69.1967 93.0213 69.1967H89.7812ZM93.0156 69.1967L93.1356 68.2127H96.3756C96.5436 68.2127 96.6636 68.2607 96.7356 68.3567C96.8156 68.4447 96.8556 68.5527 96.8556 68.6807C96.8556 68.8087 96.7996 68.9287 96.6876 69.0407C96.5756 69.1447 96.4316 69.1967 96.2556 69.1967H93.0156ZM96.25 69.1967L96.37 68.2127C96.842 68.2127 97.21 68.1967 97.474 68.1647C97.738 68.1247 97.926 68.0327 98.038 67.8887C98.15 67.7367 98.206 67.5007 98.206 67.1807C98.206 66.9807 98.174 66.7447 98.11 66.4727C98.046 66.1927 97.962 65.8967 97.858 65.5847C97.754 65.2727 97.642 64.9647 97.522 64.6607L98.494 64.3007C98.598 64.5567 98.694 64.8487 98.782 65.1767C98.878 65.5047 98.958 65.8287 99.022 66.1487C99.086 66.4687 99.118 66.7487 99.118 66.9887C99.118 67.3887 99.062 67.7287 98.95 68.0087C98.846 68.2887 98.678 68.5167 98.446 68.6927C98.214 68.8687 97.914 68.9967 97.546 69.0767C97.186 69.1567 96.754 69.1967 96.25 69.1967ZM98.05 61.7327C97.882 61.7327 97.738 61.6767 97.618 61.5647C97.506 61.4447 97.45 61.3047 97.45 61.1447C97.45 60.9847 97.506 60.8447 97.618 60.7247C97.738 60.6047 97.882 60.5447 98.05 60.5447C98.21 60.5447 98.346 60.6047 98.458 60.7247C98.578 60.8447 98.638 60.9847 98.638 61.1447C98.638 61.3047 98.578 61.4447 98.458 61.5647C98.346 61.6767 98.21 61.7327 98.05 61.7327ZM97.234 63.0527C97.066 63.0527 96.922 62.9967 96.802 62.8847C96.69 62.7647 96.634 62.6247 96.634 62.4647C96.634 62.3047 96.69 62.1647 96.802 62.0447C96.922 61.9247 97.066 61.8647 97.234 61.8647C97.394 61.8647 97.53 61.9247 97.642 62.0447C97.762 62.1647 97.822 62.3047 97.822 62.4647C97.822 62.6247 97.762 62.7647 97.642 62.8847C97.53 62.9967 97.394 63.0527 97.234 63.0527ZM98.866 63.0527C98.698 63.0527 98.554 62.9967 98.434 62.8847C98.322 62.7647 98.266 62.6247 98.266 62.4647C98.266 62.3047 98.322 62.1647 98.434 62.0447C98.554 61.9247 98.698 61.8647 98.866 61.8647C99.026 61.8647 99.162 61.9247 99.274 62.0447C99.394 62.1647 99.454 62.3047 99.454 62.4647C99.454 62.6247 99.394 62.7647 99.274 62.8847C99.162 62.9967 99.026 63.0527 98.866 63.0527ZM103.266 69.1487C103.266 68.9567 103.282 68.7527 103.314 68.5367C103.354 68.3127 103.41 68.0767 103.482 67.8287C103.562 67.5727 103.658 67.3047 103.77 67.0247L104.634 67.3607C104.554 67.5847 104.482 67.7967 104.418 67.9967C104.362 68.1967 104.318 68.3847 104.286 68.5607C104.262 68.7367 104.25 68.9047 104.25 69.0647C104.25 69.4487 104.35 69.7807 104.55 70.0607C104.758 70.3407 105.042 70.5567 105.402 70.7087C105.762 70.8607 106.182 70.9367 106.662 70.9367C107.246 70.9367 107.726 70.8527 108.102 70.6847C108.486 70.5167 108.782 70.2607 108.99 69.9167C109.206 69.5727 109.35 69.1367 109.422 68.6087C109.494 68.0727 109.518 67.4447 109.494 66.7247L109.266 60.5687H110.262L110.466 66.9767C110.482 67.5127 110.458 68.0287 110.394 68.5247C110.338 69.0127 110.226 69.4607 110.058 69.8687C109.89 70.2847 109.658 70.6447 109.362 70.9487C109.066 71.2607 108.694 71.5007 108.246 71.6687C107.798 71.8367 107.258 71.9207 106.626 71.9207C106.202 71.9207 105.79 71.8647 105.39 71.7527C104.99 71.6407 104.63 71.4727 104.31 71.2487C103.99 71.0247 103.734 70.7367 103.542 70.3847C103.358 70.0407 103.266 69.6287 103.266 69.1487ZM112.318 69.1367L112.114 61.4087H113.086L113.29 69.1367H112.318ZM113.398 60.2447C113.158 60.2447 112.942 60.2047 112.75 60.1247C112.558 60.0367 112.382 59.9527 112.222 59.8727C112.062 59.7927 111.914 59.7527 111.778 59.7527C111.634 59.7527 111.502 59.7887 111.382 59.8607C111.27 59.9327 111.15 60.0327 111.022 60.1607L110.566 59.7767C110.75 59.5447 110.942 59.3647 111.142 59.2367C111.342 59.1007 111.554 59.0327 111.778 59.0327C111.978 59.0327 112.162 59.0727 112.33 59.1527C112.498 59.2327 112.666 59.3127 112.834 59.3927C113.01 59.4727 113.198 59.5127 113.398 59.5127C113.526 59.5127 113.646 59.4927 113.758 59.4527C113.87 59.4047 114.006 59.3327 114.166 59.2367L114.514 59.7287C114.258 59.9527 114.038 60.0967 113.854 60.1607C113.678 60.2167 113.526 60.2447 113.398 60.2447ZM122.977 69.1967C122.545 69.1967 122.161 69.1367 121.825 69.0167C121.497 68.8887 121.233 68.6767 121.033 68.3807C120.841 68.0767 120.733 67.6567 120.709 67.1207L120.517 62.9447H121.489L121.681 66.9047C121.705 67.2807 121.773 67.5647 121.885 67.7567C121.997 67.9407 122.153 68.0647 122.353 68.1287C122.561 68.1847 122.809 68.2127 123.097 68.2127C123.265 68.2127 123.385 68.2607 123.457 68.3567C123.537 68.4447 123.577 68.5527 123.577 68.6807C123.577 68.8087 123.521 68.9287 123.409 69.0407C123.297 69.1447 123.153 69.1967 122.977 69.1967ZM121.165 67.8767C120.709 68.0207 120.265 68.0927 119.833 68.0927C119.401 68.0927 119.009 68.0287 118.657 67.9007C118.305 67.7727 118.025 67.5887 117.817 67.3487C117.609 67.1007 117.505 66.8047 117.505 66.4607C117.505 66.1247 117.589 65.8087 117.757 65.5127C117.933 65.2167 118.169 64.9527 118.465 64.7207C118.769 64.4887 119.117 64.2967 119.509 64.1447C119.909 63.9847 120.333 63.8767 120.781 63.8207L120.949 64.8287C120.549 64.8447 120.193 64.9007 119.881 64.9967C119.577 65.0847 119.317 65.2007 119.101 65.3447C118.893 65.4887 118.733 65.6447 118.621 65.8127C118.509 65.9807 118.453 66.1447 118.453 66.3047C118.453 66.4807 118.517 66.6247 118.645 66.7367C118.773 66.8487 118.937 66.9367 119.137 67.0007C119.337 67.0567 119.557 67.0927 119.797 67.1087C120.037 67.1167 120.269 67.1087 120.493 67.0847C120.717 67.0527 120.909 67.0087 121.069 66.9527L121.165 67.8767ZM120.913 61.5647C120.745 61.5647 120.601 61.5087 120.481 61.3967C120.369 61.2767 120.313 61.1367 120.313 60.9767C120.313 60.8167 120.369 60.6767 120.481 60.5567C120.601 60.4367 120.745 60.3767 120.913 60.3767C121.073 60.3767 121.209 60.4367 121.321 60.5567C121.441 60.6767 121.501 60.8167 121.501 60.9767C121.501 61.1367 121.441 61.2767 121.321 61.3967C121.209 61.5087 121.073 61.5647 120.913 61.5647ZM119.269 61.5647C119.101 61.5647 118.957 61.5087 118.837 61.3967C118.725 61.2767 118.669 61.1367 118.669 60.9767C118.669 60.8167 118.725 60.6767 118.837 60.5567C118.957 60.4367 119.101 60.3767 119.269 60.3767C119.429 60.3767 119.565 60.4367 119.677 60.5567C119.797 60.6767 119.857 60.8167 119.857 60.9767C119.857 61.1367 119.797 61.2767 119.677 61.3967C119.565 61.5087 119.429 61.5647 119.269 61.5647ZM122.98 69.1967L123.1 68.2127C123.3 68.2127 123.504 68.2127 123.712 68.2127C123.928 68.2047 124.14 68.1927 124.348 68.1767C124.556 68.1607 124.756 68.1407 124.948 68.1167C125.14 68.0927 125.312 68.0567 125.464 68.0087C125.744 67.9207 126 67.8047 126.232 67.6607C126.472 67.5167 126.664 67.3407 126.808 67.1327C126.96 66.9247 127.036 66.6847 127.036 66.4127C127.036 66.2287 126.992 66.0407 126.904 65.8487C126.816 65.6487 126.696 65.4807 126.544 65.3447C126.392 65.2087 126.216 65.1407 126.016 65.1407C125.824 65.1407 125.644 65.2047 125.476 65.3327C125.316 65.4607 125.184 65.6287 125.08 65.8367C124.984 66.0367 124.936 66.2447 124.936 66.4607C124.936 66.7167 125 66.9487 125.128 67.1567C125.264 67.3567 125.428 67.5287 125.62 67.6727C125.812 67.8167 126.004 67.9327 126.196 68.0207L125.056 68.3567C124.928 68.2607 124.776 68.1287 124.6 67.9607C124.432 67.7847 124.28 67.5687 124.144 67.3127C124.016 67.0567 123.952 66.7647 123.952 66.4367C123.952 66.1167 124.008 65.8207 124.12 65.5487C124.24 65.2687 124.396 65.0247 124.588 64.8167C124.788 64.6087 125.012 64.4487 125.26 64.3367C125.516 64.2167 125.78 64.1567 126.052 64.1567C126.444 64.1567 126.788 64.2647 127.084 64.4807C127.38 64.6967 127.608 64.9727 127.768 65.3087C127.936 65.6367 128.02 65.9807 128.02 66.3407C128.02 66.6847 127.956 66.9967 127.828 67.2767C127.7 67.5487 127.524 67.7927 127.3 68.0087C127.084 68.2247 126.828 68.4087 126.532 68.5607C126.244 68.7127 125.936 68.8367 125.608 68.9327C125.424 68.9887 125.224 69.0327 125.008 69.0647C124.8 69.0967 124.58 69.1207 124.348 69.1367C124.116 69.1607 123.884 69.1767 123.652 69.1847C123.42 69.1927 123.196 69.1967 122.98 69.1967ZM128.92 69.1967C128.52 69.1967 128.104 69.1727 127.672 69.1247C127.248 69.0687 126.844 69.0007 126.46 68.9207C126.084 68.8327 125.772 68.7367 125.524 68.6327L126.352 68.0327C126.592 68.0647 126.876 68.0967 127.204 68.1287C127.532 68.1527 127.86 68.1727 128.188 68.1887C128.516 68.2047 128.8 68.2127 129.04 68.2127C129.208 68.2127 129.328 68.2607 129.4 68.3567C129.48 68.4447 129.52 68.5527 129.52 68.6807C129.52 68.8087 129.464 68.9287 129.352 69.0407C129.24 69.1447 129.096 69.1967 128.92 69.1967ZM125.944 62.9207C125.776 62.9207 125.632 62.8647 125.512 62.7527C125.4 62.6327 125.344 62.4927 125.344 62.3327C125.344 62.1727 125.4 62.0327 125.512 61.9127C125.632 61.7927 125.776 61.7327 125.944 61.7327C126.104 61.7327 126.24 61.7927 126.352 61.9127C126.472 62.0327 126.532 62.1727 126.532 62.3327C126.532 62.4927 126.472 62.6327 126.352 62.7527C126.24 62.8647 126.104 62.9207 125.944 62.9207ZM128.922 69.1967L129.042 68.2127H132.282C132.45 68.2127 132.57 68.2607 132.642 68.3567C132.722 68.4447 132.762 68.5527 132.762 68.6807C132.762 68.8087 132.706 68.9287 132.594 69.0407C132.482 69.1447 132.338 69.1967 132.162 69.1967H128.922ZM132.156 69.1967L132.276 68.2127H135.516C135.684 68.2127 135.804 68.2607 135.876 68.3567C135.956 68.4447 135.996 68.5527 135.996 68.6807C135.996 68.8087 135.94 68.9287 135.828 69.0407C135.716 69.1447 135.572 69.1967 135.396 69.1967H132.156ZM135.391 69.1967L135.511 68.2127H138.751C138.919 68.2127 139.039 68.2607 139.111 68.3567C139.191 68.4447 139.231 68.5527 139.231 68.6807C139.231 68.8087 139.175 68.9287 139.063 69.0407C138.951 69.1447 138.807 69.1967 138.631 69.1967H135.391ZM138.625 69.1967L138.745 68.2127C139.145 68.2127 139.457 68.1847 139.681 68.1287C139.905 68.0647 140.073 67.9487 140.185 67.7807C140.305 67.6047 140.401 67.3527 140.473 67.0247C140.545 66.6967 140.633 66.2687 140.737 65.7407L141.673 65.9207C141.641 66.0647 141.605 66.2247 141.565 66.4007C141.525 66.5767 141.489 66.7527 141.457 66.9287C141.433 67.0967 141.421 67.2447 141.421 67.3727C141.421 67.4927 141.429 67.6047 141.445 67.7087C141.461 67.8127 141.521 67.9007 141.625 67.9727C141.729 68.0447 141.905 68.1047 142.153 68.1527C142.401 68.1927 142.757 68.2127 143.221 68.2127C143.389 68.2127 143.509 68.2607 143.581 68.3567C143.661 68.4447 143.701 68.5527 143.701 68.6807C143.701 68.8087 143.645 68.9287 143.533 69.0407C143.421 69.1447 143.277 69.1967 143.101 69.1967C142.613 69.1967 142.225 69.1727 141.937 69.1247C141.649 69.0687 141.429 68.9887 141.277 68.8847C141.133 68.7807 141.029 68.6527 140.965 68.5007C140.909 68.3407 140.865 68.1567 140.833 67.9487L141.193 67.9727C141.065 68.2287 140.925 68.4367 140.773 68.5967C140.629 68.7567 140.461 68.8807 140.269 68.9687C140.077 69.0567 139.845 69.1167 139.573 69.1487C139.309 69.1807 138.993 69.1967 138.625 69.1967ZM141.649 71.4647C141.481 71.4647 141.337 71.4047 141.217 71.2847C141.105 71.1727 141.049 71.0367 141.049 70.8767C141.049 70.7167 141.105 70.5767 141.217 70.4567C141.337 70.3367 141.481 70.2767 141.649 70.2767C141.809 70.2767 141.945 70.3367 142.057 70.4567C142.177 70.5767 142.237 70.7167 142.237 70.8767C142.237 71.0367 142.177 71.1727 142.057 71.2847C141.945 71.4047 141.809 71.4647 141.649 71.4647ZM140.005 71.4647C139.837 71.4647 139.693 71.4047 139.573 71.2847C139.461 71.1727 139.405 71.0367 139.405 70.8767C139.405 70.7167 139.461 70.5767 139.573 70.4567C139.693 70.3367 139.837 70.2767 140.005 70.2767C140.165 70.2767 140.301 70.3367 140.413 70.4567C140.533 70.5767 140.593 70.7167 140.593 70.8767C140.593 71.0367 140.533 71.1727 140.413 71.2847C140.301 71.4047 140.165 71.4647 140.005 71.4647ZM143.102 69.1967L143.21 68.2127C143.666 68.2127 143.986 68.1687 144.17 68.0807C144.354 67.9927 144.458 67.8367 144.482 67.6127C144.514 67.3887 144.522 67.0767 144.506 66.6767L144.302 60.5687H145.298L145.49 66.6527C145.506 67.0607 145.57 67.3807 145.682 67.6127C145.802 67.8367 145.962 67.9927 146.162 68.0807C146.362 68.1687 146.582 68.2127 146.822 68.2127C146.99 68.2127 147.11 68.2607 147.182 68.3567C147.262 68.4447 147.302 68.5527 147.302 68.6807C147.302 68.8087 147.246 68.9287 147.134 69.0407C147.022 69.1447 146.878 69.1967 146.702 69.1967C146.366 69.1967 146.086 69.1447 145.862 69.0407C145.646 68.9287 145.474 68.7887 145.346 68.6207C145.226 68.4447 145.146 68.2607 145.106 68.0687L145.358 68.0927C145.278 68.3327 145.146 68.5367 144.962 68.7047C144.786 68.8647 144.546 68.9887 144.242 69.0767C143.938 69.1567 143.558 69.1967 143.102 69.1967ZM146.699 69.1967L146.807 68.2127C147.223 68.2127 147.631 68.1807 148.031 68.1167C148.431 68.0527 148.823 67.9607 149.207 67.8407C149.591 67.7207 149.959 67.5767 150.311 67.4087C150.671 67.2327 151.011 67.0327 151.331 66.8087C151.123 66.6247 150.883 66.4647 150.611 66.3287C150.339 66.1927 150.039 66.0887 149.711 66.0167C149.391 65.9367 149.051 65.8967 148.691 65.8967C148.563 65.8967 148.443 65.9007 148.331 65.9087C148.219 65.9167 148.107 65.9327 147.995 65.9567C147.883 65.9727 147.755 65.9967 147.611 66.0287L147.419 65.1167C147.635 65.0527 147.851 65.0047 148.067 64.9727C148.283 64.9327 148.491 64.9127 148.691 64.9127C149.107 64.9127 149.483 64.9647 149.819 65.0687C150.155 65.1647 150.459 65.2847 150.731 65.4287C151.011 65.5727 151.271 65.7167 151.511 65.8607C151.759 66.0047 151.999 66.1287 152.231 66.2327C152.463 66.3287 152.703 66.3767 152.951 66.3767H153.203L153.287 67.2407C152.943 67.2407 152.627 67.2887 152.339 67.3847C152.051 67.4807 151.767 67.6047 151.487 67.7567C151.215 67.9007 150.927 68.0567 150.623 68.2247C150.319 68.3847 149.983 68.5407 149.615 68.6927C149.247 68.8367 148.823 68.9567 148.343 69.0527C147.871 69.1487 147.323 69.1967 146.699 69.1967ZM148.703 63.6767C148.535 63.6767 148.391 63.6207 148.271 63.5087C148.159 63.3887 148.103 63.2487 148.103 63.0887C148.103 62.9287 148.159 62.7887 148.271 62.6687C148.391 62.5487 148.535 62.4887 148.703 62.4887C148.863 62.4887 148.999 62.5487 149.111 62.6687C149.231 62.7887 149.291 62.9287 149.291 63.0887C149.291 63.2487 149.231 63.3887 149.111 63.5087C148.999 63.6207 148.863 63.6767 148.703 63.6767ZM157.196 69.1487C157.196 68.8607 157.236 68.5407 157.316 68.1887C157.396 67.8367 157.524 67.4487 157.7 67.0247L158.564 67.3607C158.436 67.6967 158.34 68.0047 158.276 68.2847C158.212 68.5647 158.18 68.8247 158.18 69.0647C158.18 69.5047 158.288 69.8607 158.504 70.1327C158.728 70.4127 159.024 70.6167 159.392 70.7447C159.768 70.8727 160.18 70.9367 160.628 70.9367C161.172 70.9367 161.628 70.8767 161.996 70.7567C162.364 70.6447 162.656 70.4887 162.872 70.2887C163.088 70.0887 163.24 69.8607 163.328 69.6047C163.424 69.3567 163.472 69.0967 163.472 68.8247C163.472 68.4727 163.444 68.1407 163.388 67.8287C163.34 67.5167 163.272 67.2127 163.184 66.9167C163.104 66.6127 163.016 66.3047 162.92 65.9927L163.892 65.7287C163.98 66.0327 164.048 66.2807 164.096 66.4727C164.144 66.6567 164.18 66.8047 164.204 66.9167C164.236 67.0287 164.264 67.1287 164.288 67.2167C164.376 67.5127 164.492 67.7327 164.636 67.8767C164.78 68.0127 164.944 68.1047 165.128 68.1527C165.32 68.1927 165.516 68.2127 165.716 68.2127C165.884 68.2127 166.004 68.2607 166.076 68.3567C166.156 68.4447 166.196 68.5527 166.196 68.6807C166.196 68.8087 166.14 68.9287 166.028 69.0407C165.916 69.1447 165.772 69.1967 165.596 69.1967C165.26 69.1967 164.98 69.1407 164.756 69.0287C164.532 68.9087 164.356 68.7607 164.228 68.5847C164.108 68.4087 164.028 68.2247 163.988 68.0327L164.48 68.6447C164.456 69.0527 164.376 69.4487 164.24 69.8327C164.112 70.2247 163.904 70.5767 163.616 70.8887C163.328 71.2087 162.936 71.4607 162.44 71.6447C161.952 71.8287 161.336 71.9207 160.592 71.9207C160.136 71.9207 159.704 71.8647 159.296 71.7527C158.888 71.6407 158.524 71.4687 158.204 71.2367C157.892 71.0127 157.644 70.7247 157.46 70.3727C157.284 70.0287 157.196 69.6207 157.196 69.1487ZM160.82 64.3607C160.652 64.3607 160.508 64.3047 160.388 64.1927C160.276 64.0727 160.22 63.9327 160.22 63.7727C160.22 63.6127 160.276 63.4727 160.388 63.3527C160.508 63.2327 160.652 63.1727 160.82 63.1727C160.98 63.1727 161.116 63.2327 161.228 63.3527C161.348 63.4727 161.408 63.6127 161.408 63.7727C161.408 63.9327 161.348 64.0727 161.228 64.1927C161.116 64.3047 160.98 64.3607 160.82 64.3607ZM165.602 69.1967L165.722 68.2127C166.114 68.2127 166.426 68.1887 166.658 68.1407C166.89 68.0927 167.058 67.9967 167.162 67.8527C167.266 67.7007 167.318 67.4767 167.318 67.1807C167.318 66.9807 167.286 66.7447 167.222 66.4727C167.158 66.1927 167.074 65.8967 166.97 65.5847C166.866 65.2727 166.754 64.9647 166.634 64.6607L167.606 64.3007C167.71 64.5567 167.806 64.8487 167.894 65.1767C167.99 65.5047 168.07 65.8287 168.134 66.1487C168.198 66.4687 168.23 66.7487 168.23 66.9887C168.23 67.3087 168.194 67.5927 168.122 67.8407C168.058 68.0807 167.958 68.2887 167.822 68.4647C167.686 68.6327 167.51 68.7727 167.294 68.8847C167.086 68.9887 166.842 69.0687 166.562 69.1247C166.282 69.1727 165.962 69.1967 165.602 69.1967ZM166.886 71.4287C166.718 71.4287 166.574 71.3687 166.454 71.2487C166.342 71.1367 166.286 71.0007 166.286 70.8407C166.286 70.6807 166.342 70.5407 166.454 70.4207C166.574 70.3007 166.718 70.2407 166.886 70.2407C167.046 70.2407 167.182 70.3007 167.294 70.4207C167.414 70.5407 167.474 70.6807 167.474 70.8407C167.474 71.0007 167.414 71.1367 167.294 71.2487C167.182 71.3687 167.046 71.4287 166.886 71.4287ZM174.475 68.2127C174.875 68.2127 175.191 68.1727 175.423 68.0927C175.663 68.0127 175.835 67.8967 175.939 67.7447C176.051 67.5847 176.107 67.4007 176.107 67.1927C176.107 67.0327 176.063 66.8407 175.975 66.6167C175.895 66.3927 175.783 66.1447 175.639 65.8727C175.495 65.5927 175.327 65.3007 175.135 64.9967C174.951 64.6847 174.751 64.3687 174.535 64.0487L175.363 63.5087C175.675 63.9807 175.947 64.4287 176.179 64.8527C176.411 65.2687 176.607 65.6607 176.767 66.0287C176.927 66.3887 177.055 66.7287 177.151 67.0487C177.263 67.4007 177.387 67.6607 177.523 67.8287C177.667 67.9967 177.815 68.1047 177.967 68.1527C178.119 68.1927 178.259 68.2127 178.387 68.2127C178.555 68.2127 178.679 68.2607 178.759 68.3567C178.839 68.4447 178.879 68.5527 178.879 68.6807C178.879 68.8087 178.823 68.9287 178.711 69.0407C178.599 69.1447 178.455 69.1967 178.279 69.1967C178.015 69.1967 177.755 69.1487 177.499 69.0527C177.251 68.9487 177.035 68.7847 176.851 68.5607C176.667 68.3287 176.539 68.0207 176.467 67.6367L176.947 67.2527C176.947 67.5727 176.879 67.8847 176.743 68.1887C176.607 68.4847 176.359 68.7287 175.999 68.9207C175.647 69.1127 175.139 69.2087 174.475 69.2087C174.187 69.2087 173.907 69.1847 173.635 69.1367C173.371 69.0887 173.127 69.0207 172.903 68.9327C172.679 68.8367 172.483 68.7247 172.315 68.5967L172.795 67.7687C172.955 67.8727 173.179 67.9727 173.467 68.0687C173.755 68.1647 174.091 68.2127 174.475 68.2127ZM178.281 69.1967L178.401 68.2127C178.625 68.2127 178.801 68.1647 178.929 68.0687C179.065 67.9727 179.193 67.8127 179.313 67.5887C179.441 67.3647 179.601 67.0647 179.793 66.6887C179.985 66.3047 180.177 65.9927 180.369 65.7527C180.569 65.5047 180.761 65.3127 180.945 65.1767C181.137 65.0327 181.317 64.9327 181.485 64.8767C181.653 64.8207 181.809 64.7927 181.953 64.7927C182.217 64.7927 182.453 64.8527 182.661 64.9727C182.869 65.0847 183.065 65.2807 183.249 65.5607C183.433 65.8327 183.621 66.2087 183.813 66.6887C183.997 67.1287 184.161 67.4607 184.305 67.6847C184.457 67.9007 184.613 68.0447 184.773 68.1167C184.941 68.1807 185.129 68.2127 185.337 68.2127C185.505 68.2127 185.625 68.2607 185.697 68.3567C185.777 68.4447 185.817 68.5527 185.817 68.6807C185.817 68.8087 185.761 68.9287 185.649 69.0407C185.537 69.1447 185.393 69.1967 185.217 69.1967C184.905 69.1967 184.617 69.1447 184.353 69.0407C184.097 68.9367 183.881 68.7727 183.705 68.5487L183.873 68.2967C183.785 68.5447 183.665 68.7487 183.513 68.9087C183.369 69.0607 183.205 69.1727 183.021 69.2447C182.837 69.3247 182.641 69.3647 182.433 69.3647C182.169 69.3647 181.897 69.3087 181.617 69.1967C181.345 69.0847 181.081 68.9247 180.825 68.7167C180.569 68.5087 180.345 68.2647 180.153 67.9847C179.945 68.3527 179.745 68.6247 179.553 68.8007C179.369 68.9687 179.177 69.0767 178.977 69.1247C178.777 69.1727 178.545 69.1967 178.281 69.1967ZM180.609 67.0727C180.745 67.2967 180.889 67.4927 181.041 67.6607C181.201 67.8287 181.361 67.9687 181.521 68.0807C181.681 68.1847 181.837 68.2647 181.989 68.3207C182.149 68.3687 182.293 68.3927 182.421 68.3927C182.701 68.3927 182.905 68.2927 183.033 68.0927C183.169 67.8927 183.165 67.6127 183.021 67.2527C182.949 67.0687 182.873 66.8887 182.793 66.7127C182.721 66.5367 182.641 66.3767 182.553 66.2327C182.465 66.0807 182.365 65.9647 182.253 65.8847C182.141 65.7967 182.017 65.7527 181.881 65.7527C181.761 65.7527 181.633 65.7927 181.497 65.8727C181.369 65.9527 181.229 66.0887 181.077 66.2807C180.933 66.4727 180.777 66.7367 180.609 67.0727ZM185.219 69.1967L185.339 68.2127H188.579C188.747 68.2127 188.867 68.2607 188.939 68.3567C189.019 68.4447 189.059 68.5527 189.059 68.6807C189.059 68.8087 189.003 68.9287 188.891 69.0407C188.779 69.1447 188.635 69.1967 188.459 69.1967H185.219ZM188.453 69.1967L188.573 68.2127H191.813C191.981 68.2127 192.101 68.2607 192.173 68.3567C192.253 68.4447 192.293 68.5527 192.293 68.6807C192.293 68.8087 192.237 68.9287 192.125 69.0407C192.013 69.1447 191.869 69.1967 191.693 69.1967H188.453ZM191.688 69.1967L191.796 68.2127C192.212 68.2127 192.62 68.1807 193.02 68.1167C193.42 68.0527 193.812 67.9607 194.196 67.8407C194.58 67.7207 194.948 67.5767 195.3 67.4087C195.66 67.2327 196 67.0327 196.32 66.8087C196.112 66.6247 195.872 66.4647 195.6 66.3287C195.328 66.1927 195.028 66.0887 194.7 66.0167C194.38 65.9367 194.04 65.8967 193.68 65.8967C193.552 65.8967 193.432 65.9007 193.32 65.9087C193.208 65.9167 193.096 65.9327 192.984 65.9567C192.872 65.9727 192.744 65.9967 192.6 66.0287L192.408 65.1167C192.624 65.0527 192.84 65.0047 193.056 64.9727C193.272 64.9327 193.48 64.9127 193.68 64.9127C194.096 64.9127 194.472 64.9647 194.808 65.0687C195.144 65.1647 195.448 65.2847 195.72 65.4287C196 65.5727 196.26 65.7167 196.5 65.8607C196.748 66.0047 196.988 66.1287 197.22 66.2327C197.452 66.3287 197.692 66.3767 197.94 66.3767H198.192L198.276 67.2407C197.932 67.2407 197.616 67.2887 197.328 67.3847C197.04 67.4807 196.756 67.6047 196.476 67.7567C196.204 67.9007 195.916 68.0567 195.612 68.2247C195.308 68.3847 194.972 68.5407 194.604 68.6927C194.236 68.8367 193.812 68.9567 193.332 69.0527C192.86 69.1487 192.312 69.1967 191.688 69.1967ZM81.7734 87.1967C81.3414 87.1967 80.9574 87.1367 80.6214 87.0167C80.2934 86.8887 80.0294 86.6767 79.8294 86.3807C79.6374 86.0767 79.5294 85.6567 79.5054 85.1207L79.3134 80.9447H80.2854L80.4774 84.9047C80.5014 85.2807 80.5694 85.5647 80.6814 85.7567C80.7934 85.9407 80.9494 86.0647 81.1494 86.1287C81.3574 86.1847 81.6054 86.2127 81.8934 86.2127C82.0614 86.2127 82.1814 86.2607 82.2534 86.3567C82.3334 86.4447 82.3734 86.5527 82.3734 86.6807C82.3734 86.8087 82.3174 86.9287 82.2054 87.0407C82.0934 87.1447 81.9494 87.1967 81.7734 87.1967ZM79.9614 85.8767C79.5054 86.0207 79.0614 86.0927 78.6294 86.0927C78.1974 86.0927 77.8054 86.0287 77.4534 85.9007C77.1014 85.7727 76.8214 85.5887 76.6134 85.3487C76.4054 85.1007 76.3014 84.8047 76.3014 84.4607C76.3014 84.1247 76.3854 83.8087 76.5534 83.5127C76.7294 83.2167 76.9654 82.9527 77.2614 82.7207C77.5654 82.4887 77.9134 82.2967 78.3054 82.1447C78.7054 81.9847 79.1294 81.8767 79.5774 81.8207L79.7454 82.8287C79.3454 82.8447 78.9894 82.9007 78.6774 82.9967C78.3734 83.0847 78.1134 83.2007 77.8974 83.3447C77.6894 83.4887 77.5294 83.6447 77.4174 83.8127C77.3054 83.9807 77.2494 84.1447 77.2494 84.3047C77.2494 84.4807 77.3134 84.6247 77.4414 84.7367C77.5694 84.8487 77.7334 84.9367 77.9334 85.0007C78.1334 85.0567 78.3534 85.0927 78.5934 85.1087C78.8334 85.1167 79.0654 85.1087 79.2894 85.0847C79.5134 85.0527 79.7054 85.0087 79.8654 84.9527L79.9614 85.8767ZM79.7094 79.5647C79.5414 79.5647 79.3974 79.5087 79.2774 79.3967C79.1654 79.2767 79.1094 79.1367 79.1094 78.9767C79.1094 78.8167 79.1654 78.6767 79.2774 78.5567C79.3974 78.4367 79.5414 78.3767 79.7094 78.3767C79.8694 78.3767 80.0054 78.4367 80.1174 78.5567C80.2374 78.6767 80.2974 78.8167 80.2974 78.9767C80.2974 79.1367 80.2374 79.2767 80.1174 79.3967C80.0054 79.5087 79.8694 79.5647 79.7094 79.5647ZM78.0654 79.5647C77.8974 79.5647 77.7534 79.5087 77.6334 79.3967C77.5214 79.2767 77.4654 79.1367 77.4654 78.9767C77.4654 78.8167 77.5214 78.6767 77.6334 78.5567C77.7534 78.4367 77.8974 78.3767 78.0654 78.3767C78.2254 78.3767 78.3614 78.4367 78.4734 78.5567C78.5934 78.6767 78.6534 78.8167 78.6534 78.9767C78.6534 79.1367 78.5934 79.2767 78.4734 79.3967C78.3614 79.5087 78.2254 79.5647 78.0654 79.5647ZM81.7773 87.1967L81.8973 86.2127C82.2973 86.2127 82.6093 86.1847 82.8333 86.1287C83.0573 86.0647 83.2253 85.9487 83.3373 85.7807C83.4573 85.6047 83.5533 85.3527 83.6253 85.0247C83.6973 84.6967 83.7853 84.2687 83.8893 83.7407L84.8253 83.9207C84.7933 84.0647 84.7573 84.2247 84.7173 84.4007C84.6773 84.5767 84.6413 84.7527 84.6093 84.9287C84.5853 85.0967 84.5733 85.2447 84.5733 85.3727C84.5733 85.4927 84.5813 85.6047 84.5973 85.7087C84.6133 85.8127 84.6733 85.9007 84.7773 85.9727C84.8813 86.0447 85.0573 86.1047 85.3053 86.1527C85.5533 86.1927 85.9093 86.2127 86.3733 86.2127C86.5413 86.2127 86.6613 86.2607 86.7333 86.3567C86.8133 86.4447 86.8533 86.5527 86.8533 86.6807C86.8533 86.8087 86.7973 86.9287 86.6853 87.0407C86.5733 87.1447 86.4293 87.1967 86.2533 87.1967C85.7653 87.1967 85.3773 87.1727 85.0893 87.1247C84.8013 87.0687 84.5813 86.9887 84.4293 86.8847C84.2853 86.7807 84.1813 86.6527 84.1173 86.5007C84.0613 86.3407 84.0173 86.1567 83.9853 85.9487L84.3453 85.9727C84.2173 86.2287 84.0773 86.4367 83.9253 86.5967C83.7813 86.7567 83.6133 86.8807 83.4213 86.9687C83.2293 87.0567 82.9973 87.1167 82.7253 87.1487C82.4613 87.1807 82.1453 87.1967 81.7773 87.1967ZM84.8013 89.4647C84.6333 89.4647 84.4893 89.4047 84.3693 89.2847C84.2573 89.1727 84.2013 89.0367 84.2013 88.8767C84.2013 88.7167 84.2573 88.5767 84.3693 88.4567C84.4893 88.3367 84.6333 88.2767 84.8013 88.2767C84.9613 88.2767 85.0973 88.3367 85.2093 88.4567C85.3293 88.5767 85.3893 88.7167 85.3893 88.8767C85.3893 89.0367 85.3293 89.1727 85.2093 89.2847C85.0973 89.4047 84.9613 89.4647 84.8013 89.4647ZM83.1573 89.4647C82.9893 89.4647 82.8453 89.4047 82.7253 89.2847C82.6133 89.1727 82.5573 89.0367 82.5573 88.8767C82.5573 88.7167 82.6133 88.5767 82.7253 88.4567C82.8453 88.3367 82.9893 88.2767 83.1573 88.2767C83.3173 88.2767 83.4533 88.3367 83.5653 88.4567C83.6853 88.5767 83.7453 88.7167 83.7453 88.8767C83.7453 89.0367 83.6853 89.1727 83.5653 89.2847C83.4533 89.4047 83.3173 89.4647 83.1573 89.4647ZM86.2539 87.1967L86.3739 86.2127C86.8779 86.2127 87.2659 86.2087 87.5379 86.2007C87.8179 86.1927 88.0219 86.1847 88.1499 86.1767C88.2779 86.1607 88.3659 86.1527 88.4139 86.1527C88.2699 86.0727 88.1019 85.9487 87.9099 85.7807C87.7179 85.6047 87.5499 85.3847 87.4059 85.1207C87.2619 84.8487 87.1899 84.5287 87.1899 84.1607C87.1899 83.7047 87.2939 83.3047 87.5019 82.9607C87.7179 82.6167 88.0099 82.3487 88.3779 82.1567C88.7539 81.9647 89.1819 81.8687 89.6619 81.8687C89.8459 81.8687 90.0419 81.8847 90.2499 81.9167C90.4579 81.9487 90.6579 81.9967 90.8499 82.0607L90.6459 82.9847C90.4859 82.9447 90.3179 82.9127 90.1419 82.8887C89.9659 82.8647 89.8059 82.8527 89.6619 82.8527C89.3739 82.8527 89.1179 82.9087 88.8939 83.0207C88.6699 83.1247 88.4939 83.2727 88.3659 83.4647C88.2379 83.6567 88.1739 83.8887 88.1739 84.1607C88.1739 84.3687 88.2179 84.5607 88.3059 84.7367C88.3939 84.9047 88.5099 85.0567 88.6539 85.1927C88.7979 85.3287 88.9579 85.4407 89.1339 85.5287C89.3099 85.6167 89.4819 85.6847 89.6499 85.7327C89.8259 85.7807 89.9819 85.8007 90.1179 85.7927C90.2139 85.7607 90.3019 85.7327 90.3819 85.7087C90.4619 85.6847 90.5499 85.6567 90.6459 85.6247C90.7499 85.5847 90.8739 85.5327 91.0179 85.4687C91.1699 85.4047 91.3619 85.3207 91.5939 85.2167L91.9299 86.0927C91.3939 86.3087 90.8459 86.5007 90.2859 86.6687C89.7339 86.8367 89.1299 86.9687 88.4739 87.0647C87.8259 87.1527 87.0859 87.1967 86.2539 87.1967ZM95.7811 87.1967C95.1411 87.1967 94.6491 87.1247 94.3051 86.9807C93.9691 86.8367 93.7371 86.6127 93.6091 86.3087C93.4811 86.0047 93.4091 85.6127 93.3931 85.1327L93.1531 78.5687H94.1371L94.3771 84.7487C94.3931 85.1407 94.4291 85.4447 94.4851 85.6607C94.5491 85.8687 94.6851 86.0127 94.8931 86.0927C95.1091 86.1727 95.4451 86.2127 95.9011 86.2127C96.0691 86.2127 96.1891 86.2607 96.2611 86.3567C96.3411 86.4447 96.3811 86.5527 96.3811 86.6807C96.3811 86.8087 96.3251 86.9287 96.2131 87.0407C96.1011 87.1447 95.9571 87.1967 95.7811 87.1967ZM95.7812 87.1967L95.9013 86.2127C96.2373 86.2127 96.5013 86.1847 96.6933 86.1287C96.8853 86.0647 97.0293 85.9487 97.1253 85.7807C97.2293 85.6047 97.3173 85.3527 97.3893 85.0247C97.4613 84.6967 97.5493 84.2687 97.6533 83.7407L98.5893 83.9207C98.5573 84.0647 98.5213 84.2247 98.4813 84.4007C98.4413 84.5767 98.4053 84.7527 98.3733 84.9287C98.3493 85.0967 98.3373 85.2447 98.3373 85.3727C98.3373 85.5327 98.3733 85.6767 98.4453 85.8047C98.5173 85.9327 98.6733 86.0327 98.9133 86.1047C99.1533 86.1767 99.5213 86.2127 100.017 86.2127C100.185 86.2127 100.305 86.2607 100.377 86.3567C100.457 86.4447 100.497 86.5527 100.497 86.6807C100.497 86.8087 100.441 86.9287 100.329 87.0407C100.217 87.1447 100.073 87.1967 99.8973 87.1967C99.3773 87.1967 98.9693 87.1527 98.6733 87.0647C98.3773 86.9687 98.1613 86.8287 98.0253 86.6447C97.8893 86.4527 97.7973 86.2207 97.7493 85.9487L98.1093 85.9727C97.9813 86.2287 97.8413 86.4367 97.6893 86.5967C97.5453 86.7567 97.3853 86.8807 97.2093 86.9687C97.0333 87.0567 96.8293 87.1167 96.5973 87.1487C96.3653 87.1807 96.0933 87.1967 95.7812 87.1967ZM97.6533 82.5047C97.4853 82.5047 97.3413 82.4487 97.2213 82.3367C97.1093 82.2167 97.0533 82.0767 97.0533 81.9167C97.0533 81.7567 97.1093 81.6167 97.2213 81.4967C97.3413 81.3767 97.4853 81.3167 97.6533 81.3167C97.8133 81.3167 97.9493 81.3767 98.0613 81.4967C98.1813 81.6167 98.2413 81.7567 98.2413 81.9167C98.2413 82.0767 98.1813 82.2167 98.0613 82.3367C97.9493 82.4487 97.8133 82.5047 97.6533 82.5047ZM111.283 87.1967C111.075 87.1967 110.811 87.1767 110.491 87.1367C110.179 87.0887 109.859 87.0087 109.531 86.8967C109.211 86.7847 108.939 86.6287 108.715 86.4287L109.699 85.9367C109.979 86.0487 110.267 86.1247 110.563 86.1647C110.867 86.1967 111.147 86.2127 111.403 86.2127C111.571 86.2127 111.691 86.2607 111.763 86.3567C111.843 86.4447 111.883 86.5527 111.883 86.6807C111.883 86.8087 111.827 86.9287 111.715 87.0407C111.603 87.1447 111.459 87.1967 111.283 87.1967ZM105.703 87.3527C104.999 87.3527 104.407 87.3247 103.927 87.2687C103.455 87.2207 103.071 87.1447 102.775 87.0407C102.479 86.9367 102.255 86.8047 102.103 86.6447C101.951 86.4847 101.847 86.2927 101.791 86.0687L102.067 85.9727C101.867 86.3567 101.651 86.6367 101.419 86.8127C101.187 86.9807 100.943 87.0887 100.687 87.1367C100.439 87.1767 100.175 87.1967 99.8945 87.1967L100.015 86.2127C100.295 86.2127 100.523 86.1727 100.699 86.0927C100.883 86.0127 101.031 85.8807 101.143 85.6967C101.263 85.5127 101.367 85.2687 101.455 84.9647C101.543 84.6607 101.639 84.2847 101.743 83.8367L102.619 84.0647C102.571 84.2487 102.527 84.4247 102.487 84.5927C102.447 84.7607 102.415 84.9087 102.391 85.0367C102.375 85.1567 102.367 85.2527 102.367 85.3247C102.367 85.5167 102.411 85.6807 102.499 85.8167C102.587 85.9447 102.755 86.0527 103.003 86.1407C103.251 86.2207 103.607 86.2807 104.071 86.3207C104.543 86.3527 105.159 86.3687 105.919 86.3687C106.447 86.3687 106.919 86.3367 107.335 86.2727C107.751 86.2087 108.099 86.1127 108.379 85.9847C108.667 85.8487 108.887 85.6847 109.039 85.4927C109.191 85.3007 109.267 85.0807 109.267 84.8327C109.267 84.6567 109.223 84.4847 109.135 84.3167C109.047 84.1407 108.911 83.9927 108.727 83.8727C108.543 83.7527 108.299 83.6927 107.995 83.6927C107.611 83.6927 107.227 83.7927 106.843 83.9927C106.467 84.1927 106.107 84.4447 105.763 84.7487C105.427 85.0447 105.127 85.3487 104.863 85.6607C104.599 85.9727 104.387 86.2447 104.227 86.4767L103.183 86.4407C103.439 86.0247 103.743 85.6007 104.095 85.1687C104.455 84.7287 104.847 84.3247 105.271 83.9567C105.703 83.5807 106.155 83.2807 106.627 83.0567C107.099 82.8247 107.579 82.7087 108.067 82.7087C108.507 82.7087 108.883 82.8007 109.195 82.9847C109.515 83.1607 109.759 83.4007 109.927 83.7047C110.103 84.0087 110.191 84.3527 110.191 84.7367C110.191 85.2087 110.051 85.6447 109.771 86.0447C109.499 86.4367 109.035 86.7527 108.379 86.9927C107.723 87.2327 106.831 87.3527 105.703 87.3527ZM111.285 87.1967L111.393 86.2127C111.849 86.2127 112.169 86.1687 112.353 86.0807C112.537 85.9927 112.641 85.8367 112.665 85.6127C112.697 85.3887 112.705 85.0767 112.689 84.6767L112.461 78.5687H113.433L113.673 84.5687C113.689 84.9927 113.673 85.3687 113.625 85.6967C113.585 86.0247 113.481 86.3007 113.313 86.5247C113.153 86.7487 112.909 86.9167 112.581 87.0287C112.261 87.1407 111.829 87.1967 111.285 87.1967ZM115.506 87.1367L115.266 78.5687H116.238L116.478 87.1367H115.506ZM125.012 87.3887L125.324 86.4047C125.812 86.4047 126.308 86.4047 126.812 86.4047C127.324 86.4047 127.804 86.3967 128.252 86.3807C128.7 86.3647 129.084 86.3367 129.404 86.2967C129.732 86.2567 129.96 86.1967 130.088 86.1167C130.32 85.9647 130.472 85.7287 130.544 85.4087C130.616 85.0807 130.652 84.6127 130.652 84.0047C130.652 83.7567 130.628 83.5207 130.58 83.2967C130.532 83.0647 130.46 82.8607 130.364 82.6847C130.268 82.5087 130.152 82.3687 130.016 82.2647C129.888 82.1607 129.74 82.1087 129.572 82.1087C129.388 82.1087 129.22 82.1807 129.068 82.3247C128.924 82.4607 128.808 82.6367 128.72 82.8527C128.64 83.0687 128.6 83.2847 128.6 83.5007C128.6 83.6687 128.632 83.8127 128.696 83.9327C128.768 84.0527 128.884 84.1487 129.044 84.2207C129.204 84.2847 129.412 84.3167 129.668 84.3167C129.9 84.3167 130.132 84.2927 130.364 84.2447C130.604 84.1967 130.808 84.1327 130.976 84.0527L131.024 84.8927C130.896 84.9807 130.752 85.0527 130.592 85.1087C130.432 85.1647 130.264 85.2047 130.088 85.2287C129.912 85.2527 129.736 85.2647 129.56 85.2647C129.152 85.2647 128.804 85.2087 128.516 85.0967C128.236 84.9847 128.02 84.8167 127.868 84.5927C127.724 84.3687 127.652 84.0847 127.652 83.7407C127.652 83.4367 127.7 83.1327 127.796 82.8287C127.892 82.5167 128.028 82.2327 128.204 81.9767C128.38 81.7207 128.592 81.5167 128.84 81.3647C129.088 81.2047 129.364 81.1247 129.668 81.1247C130.1 81.1247 130.456 81.2647 130.736 81.5447C131.024 81.8247 131.236 82.1927 131.372 82.6487C131.516 83.0967 131.588 83.5727 131.588 84.0767C131.588 84.4767 131.564 84.8487 131.516 85.1927C131.468 85.5287 131.388 85.8287 131.276 86.0927C131.164 86.3567 131.012 86.5847 130.82 86.7767C130.668 86.9287 130.4 87.0487 130.016 87.1367C129.64 87.2167 129.184 87.2727 128.648 87.3047C128.112 87.3447 127.532 87.3687 126.908 87.3767C126.284 87.3847 125.652 87.3887 125.012 87.3887ZM125.012 87.3887C124.3 87.3887 123.672 87.3407 123.128 87.2447C122.592 87.1567 122.144 87.0167 121.784 86.8247C121.424 86.6327 121.152 86.3847 120.968 86.0807C120.784 85.7687 120.692 85.3927 120.692 84.9527C120.692 84.7527 120.708 84.5487 120.74 84.3407C120.772 84.1247 120.812 83.9087 120.86 83.6927C120.916 83.4767 120.972 83.2687 121.028 83.0687L121.928 83.2967C121.896 83.4167 121.86 83.5607 121.82 83.7287C121.78 83.8887 121.744 84.0527 121.712 84.2207C121.688 84.3887 121.676 84.5407 121.676 84.6767C121.676 85.0927 121.78 85.4287 121.988 85.6847C122.204 85.9327 122.576 86.1167 123.104 86.2367C123.632 86.3487 124.372 86.4047 125.324 86.4047L125.564 87.0047L125.012 87.3887ZM129.44 79.8887C129.272 79.8887 129.128 79.8327 129.008 79.7207C128.896 79.6007 128.84 79.4607 128.84 79.3007C128.84 79.1407 128.896 79.0007 129.008 78.8807C129.128 78.7607 129.272 78.7007 129.44 78.7007C129.6 78.7007 129.736 78.7607 129.848 78.8807C129.968 79.0007 130.028 79.1407 130.028 79.3007C130.028 79.4607 129.968 79.6007 129.848 79.7207C129.736 79.8327 129.6 79.8887 129.44 79.8887ZM133.237 87.1367L132.997 78.5687H133.969L134.209 87.1367H133.237ZM134.736 89.9207L134.387 89.0087C134.972 88.8167 135.456 88.5967 135.84 88.3487C136.232 88.1007 136.54 87.8367 136.764 87.5567C136.996 87.2767 137.16 86.9927 137.256 86.7047C137.352 86.4087 137.4 86.1247 137.4 85.8527C137.4 85.4607 137.312 85.0647 137.136 84.6647C136.968 84.2567 136.78 83.8727 136.572 83.5127L137.448 83.0687C137.6 83.3487 137.732 83.6247 137.844 83.8967C137.964 84.1687 138.068 84.4247 138.156 84.6647C138.252 84.9047 138.328 85.1247 138.384 85.3247C138.496 85.6687 138.64 85.9047 138.816 86.0327C139 86.1527 139.248 86.2127 139.56 86.2127C139.728 86.2127 139.848 86.2607 139.92 86.3567C140 86.4447 140.04 86.5527 140.04 86.6807C140.04 86.8087 139.984 86.9287 139.872 87.0407C139.76 87.1447 139.616 87.1967 139.44 87.1967C139.088 87.1967 138.8 87.1367 138.576 87.0167C138.36 86.8887 138.196 86.7247 138.084 86.5247C137.972 86.3167 137.896 86.1007 137.855 85.8767L138.24 86.0927C138.24 86.6207 138.12 87.1007 137.88 87.5327C137.648 87.9727 137.348 88.3527 136.98 88.6727C136.612 89.0007 136.228 89.2687 135.828 89.4767C135.428 89.6847 135.064 89.8327 134.736 89.9207ZM139.445 87.1967L139.565 86.2127H142.073C142.769 86.2127 143.369 86.1847 143.873 86.1287C144.385 86.0647 144.805 85.9727 145.133 85.8527C145.461 85.7327 145.705 85.5807 145.865 85.3967C146.025 85.2047 146.105 84.9807 146.105 84.7247C146.105 84.5887 146.061 84.4407 145.973 84.2807C145.885 84.1207 145.749 83.9847 145.565 83.8727C145.381 83.7527 145.137 83.6927 144.833 83.6927C144.449 83.6927 144.065 83.7927 143.681 83.9927C143.305 84.1927 142.945 84.4447 142.601 84.7487C142.265 85.0447 141.965 85.3487 141.701 85.6607C141.437 85.9727 141.225 86.2447 141.065 86.4767L140.021 86.4407C140.277 86.0247 140.581 85.6007 140.933 85.1687C141.293 84.7287 141.685 84.3247 142.109 83.9567C142.541 83.5807 142.993 83.2807 143.465 83.0567C143.937 82.8247 144.417 82.7087 144.905 82.7087C145.345 82.7087 145.721 82.8007 146.033 82.9847C146.353 83.1607 146.597 83.4007 146.765 83.7047C146.941 84.0087 147.029 84.3527 147.029 84.7367C147.029 85.1127 146.893 85.4927 146.621 85.8767C146.349 86.2527 145.881 86.5487 145.217 86.7647C144.881 86.8767 144.497 86.9647 144.065 87.0287C143.633 87.0927 143.141 87.1367 142.589 87.1607C142.037 87.1847 141.409 87.1967 140.705 87.1967H139.445ZM140.585 86.0087L140.345 78.5687H141.317L141.557 85.1687L140.585 86.0087ZM152.282 80.7047C152.282 80.5287 152.27 80.3167 152.246 80.0687C152.222 79.8207 152.194 79.5727 152.162 79.3247C152.13 79.0767 152.098 78.8647 152.066 78.6887L153.098 78.5687C153.122 78.7287 153.146 78.9407 153.17 79.2047C153.202 79.4607 153.226 79.7167 153.242 79.9727C153.258 80.2287 153.266 80.4407 153.266 80.6087C153.266 80.9927 153.238 81.3687 153.182 81.7367C153.134 82.0967 153.054 82.4527 152.942 82.8047C152.83 83.1487 152.682 83.4847 152.498 83.8127L152.354 84.0767C152.13 84.4527 151.854 84.8167 151.526 85.1687C151.198 85.5127 150.814 85.8407 150.374 86.1527H151.886C152.158 86.1527 152.366 86.1207 152.51 86.0567C152.654 85.9847 152.75 85.8927 152.798 85.7807C152.854 85.6687 152.882 85.5487 152.882 85.4207C152.882 85.2047 152.75 84.9367 152.486 84.6167C152.23 84.2887 151.874 83.9287 151.418 83.5367C150.962 83.1367 150.446 82.7167 149.87 82.2767C149.294 81.8367 148.686 81.3887 148.046 80.9327L148.61 80.1407C149.346 80.6847 149.994 81.1767 150.554 81.6167C151.122 82.0567 151.606 82.4607 152.006 82.8287C152.414 83.1887 152.746 83.5247 153.002 83.8367C153.266 84.1407 153.458 84.4327 153.578 84.7127C153.706 84.9847 153.77 85.2527 153.77 85.5167C153.77 85.6927 153.738 85.8767 153.674 86.0687C153.618 86.2527 153.514 86.4287 153.362 86.5967C153.218 86.7567 153.01 86.8887 152.738 86.9927C152.474 87.0887 152.13 87.1367 151.706 87.1367H148.946V86.1647C149.77 85.5727 150.422 84.9967 150.902 84.4367C151.39 83.8767 151.742 83.2927 151.958 82.6847C152.174 82.0767 152.282 81.4167 152.282 80.7047ZM147.878 79.5047L147.734 78.8567C147.942 78.8087 148.11 78.7687 148.238 78.7367C148.366 78.7047 148.51 78.6687 148.67 78.6287L148.61 78.8807C148.402 78.8167 148.202 78.6807 148.01 78.4727C147.826 78.2647 147.734 78.0287 147.734 77.7647C147.734 77.5247 147.79 77.3247 147.902 77.1647C148.022 76.9967 148.174 76.8727 148.358 76.7927C148.55 76.7127 148.754 76.6727 148.97 76.6727C149.058 76.6727 149.15 76.6807 149.246 76.6967C149.35 76.7127 149.446 76.7367 149.534 76.7687L149.438 77.3687C149.358 77.3527 149.282 77.3367 149.21 77.3207C149.138 77.3047 149.058 77.2967 148.97 77.2967C148.786 77.2967 148.642 77.3367 148.538 77.4167C148.434 77.4887 148.382 77.5927 148.382 77.7287C148.382 77.8967 148.434 78.0407 148.538 78.1607C148.65 78.2807 148.774 78.3767 148.91 78.4487C149.054 78.5127 149.17 78.5447 149.258 78.5447L148.766 78.5927C148.982 78.5367 149.182 78.4807 149.366 78.4247C149.558 78.3607 149.73 78.3007 149.882 78.2447L150.074 78.8567C149.882 78.9287 149.654 79.0047 149.39 79.0847C149.134 79.1647 148.874 79.2407 148.61 79.3127C148.346 79.3847 148.102 79.4487 147.878 79.5047ZM155.655 87.1367L155.415 78.5687H156.387L156.627 87.1367H155.655ZM158.106 89.8967L157.89 88.9127C158.37 88.8487 158.81 88.7567 159.21 88.6367C159.618 88.5247 159.966 88.3607 160.254 88.1447C160.55 87.9287 160.778 87.6447 160.938 87.2927C161.098 86.9407 161.178 86.5007 161.178 85.9727C161.178 85.7247 161.154 85.4887 161.106 85.2647C161.058 85.0327 160.986 84.8287 160.89 84.6527C160.794 84.4767 160.678 84.3367 160.542 84.2327C160.414 84.1287 160.266 84.0767 160.098 84.0767C159.914 84.0767 159.746 84.1487 159.594 84.2927C159.45 84.4287 159.334 84.6047 159.246 84.8207C159.166 85.0367 159.126 85.2527 159.126 85.4687C159.126 85.6367 159.158 85.7847 159.222 85.9127C159.294 86.0327 159.41 86.1247 159.57 86.1887C159.73 86.2527 159.938 86.2847 160.194 86.2847C160.426 86.2847 160.658 86.2607 160.89 86.2127C161.13 86.1647 161.334 86.1007 161.502 86.0207L161.55 86.8607C161.358 86.9967 161.13 87.0927 160.866 87.1487C160.61 87.2047 160.35 87.2327 160.086 87.2327C159.782 87.2327 159.51 87.2007 159.27 87.1367C159.038 87.0727 158.838 86.9807 158.67 86.8607C158.51 86.7327 158.386 86.5727 158.298 86.3807C158.218 86.1887 158.178 85.9647 158.178 85.7087C158.178 85.4047 158.226 85.1007 158.322 84.7967C158.418 84.4847 158.554 84.2007 158.73 83.9447C158.906 83.6887 159.118 83.4847 159.366 83.3327C159.614 83.1727 159.89 83.0927 160.194 83.0927C160.514 83.0927 160.794 83.1767 161.034 83.3447C161.274 83.5047 161.474 83.7247 161.634 84.0047C161.794 84.2847 161.914 84.6007 161.994 84.9527C162.074 85.3047 162.114 85.6687 162.114 86.0447C162.114 86.7887 161.962 87.4287 161.658 87.9647C161.362 88.5087 160.914 88.9407 160.314 89.2607C159.722 89.5807 158.986 89.7927 158.106 89.8967ZM166.208 87.1487C166.208 86.9567 166.224 86.7527 166.256 86.5367C166.296 86.3127 166.352 86.0767 166.424 85.8287C166.504 85.5727 166.6 85.3047 166.712 85.0247L167.576 85.3607C167.496 85.5847 167.424 85.7967 167.36 85.9967C167.304 86.1967 167.26 86.3847 167.228 86.5607C167.204 86.7367 167.192 86.9047 167.192 87.0647C167.192 87.4727 167.3 87.8167 167.516 88.0967C167.732 88.3767 168.012 88.5847 168.356 88.7207C168.708 88.8647 169.084 88.9367 169.484 88.9367C170.268 88.9367 170.88 88.7967 171.32 88.5167C171.76 88.2447 172.068 87.8807 172.244 87.4247C172.42 86.9767 172.496 86.4847 172.472 85.9487L172.208 78.5687H173.204L173.396 84.6527C173.412 85.0607 173.476 85.3807 173.588 85.6127C173.708 85.8367 173.868 85.9927 174.068 86.0807C174.268 86.1687 174.488 86.2127 174.728 86.2127C174.896 86.2127 175.016 86.2607 175.088 86.3567C175.168 86.4447 175.208 86.5527 175.208 86.6807C175.208 86.8087 175.152 86.9287 175.04 87.0407C174.928 87.1447 174.784 87.1967 174.608 87.1967C174.36 87.1967 174.148 87.1647 173.972 87.1007C173.796 87.0287 173.652 86.9407 173.54 86.8367C173.428 86.7247 173.34 86.6007 173.276 86.4647C173.212 86.3207 173.164 86.1767 173.132 86.0327L173.468 86.3687C173.436 86.7927 173.344 87.2127 173.192 87.6287C173.048 88.0527 172.824 88.4367 172.52 88.7807C172.216 89.1247 171.808 89.4007 171.296 89.6087C170.792 89.8167 170.168 89.9207 169.424 89.9207C169.008 89.9207 168.604 89.8567 168.212 89.7287C167.828 89.6087 167.484 89.4287 167.18 89.1887C166.884 88.9487 166.648 88.6567 166.472 88.3127C166.296 87.9767 166.208 87.5887 166.208 87.1487ZM174.613 87.1967L174.733 86.2127C175.133 86.2127 175.445 86.1847 175.669 86.1287C175.893 86.0647 176.061 85.9487 176.173 85.7807C176.293 85.6047 176.389 85.3527 176.461 85.0247C176.533 84.6967 176.621 84.2687 176.725 83.7407L177.661 83.9207C177.629 84.0647 177.593 84.2247 177.553 84.4007C177.513 84.5767 177.477 84.7527 177.445 84.9287C177.421 85.0967 177.409 85.2447 177.409 85.3727C177.409 85.4927 177.417 85.6047 177.433 85.7087C177.449 85.8127 177.509 85.9007 177.613 85.9727C177.717 86.0447 177.893 86.1047 178.141 86.1527C178.389 86.1927 178.745 86.2127 179.209 86.2127C179.377 86.2127 179.497 86.2607 179.569 86.3567C179.649 86.4447 179.689 86.5527 179.689 86.6807C179.689 86.8087 179.633 86.9287 179.521 87.0407C179.409 87.1447 179.265 87.1967 179.089 87.1967C178.601 87.1967 178.213 87.1727 177.925 87.1247C177.637 87.0687 177.417 86.9887 177.265 86.8847C177.121 86.7807 177.017 86.6527 176.953 86.5007C176.897 86.3407 176.853 86.1567 176.821 85.9487L177.181 85.9727C177.053 86.2287 176.913 86.4367 176.761 86.5967C176.617 86.7567 176.449 86.8807 176.257 86.9687C176.065 87.0567 175.833 87.1167 175.561 87.1487C175.297 87.1807 174.981 87.1967 174.613 87.1967ZM177.637 89.4647C177.469 89.4647 177.325 89.4047 177.205 89.2847C177.093 89.1727 177.037 89.0367 177.037 88.8767C177.037 88.7167 177.093 88.5767 177.205 88.4567C177.325 88.3367 177.469 88.2767 177.637 88.2767C177.797 88.2767 177.933 88.3367 178.045 88.4567C178.165 88.5767 178.225 88.7167 178.225 88.8767C178.225 89.0367 178.165 89.1727 178.045 89.2847C177.933 89.4047 177.797 89.4647 177.637 89.4647ZM175.993 89.4647C175.825 89.4647 175.681 89.4047 175.561 89.2847C175.449 89.1727 175.393 89.0367 175.393 88.8767C175.393 88.7167 175.449 88.5767 175.561 88.4567C175.681 88.3367 175.825 88.2767 175.993 88.2767C176.153 88.2767 176.289 88.3367 176.401 88.4567C176.521 88.5767 176.581 88.7167 176.581 88.8767C176.581 89.0367 176.521 89.1727 176.401 89.2847C176.289 89.4047 176.153 89.4647 175.993 89.4647ZM183.71 87.2327C183.382 87.2327 183.046 87.1887 182.702 87.1007C182.358 87.0047 182.026 86.8727 181.706 86.7047C181.394 86.5367 181.11 86.3327 180.854 86.0927C180.606 85.8447 180.406 85.5687 180.254 85.2647C180.11 84.9607 180.038 84.6327 180.038 84.2807C180.038 83.9207 180.11 83.5887 180.254 83.2847C180.406 82.9807 180.618 82.7367 180.89 82.5527C181.17 82.3607 181.494 82.2647 181.862 82.2647C182.222 82.2647 182.53 82.3647 182.786 82.5647C183.042 82.7567 183.238 83.0087 183.374 83.3207C183.518 83.6247 183.59 83.9447 183.59 84.2807C183.59 84.7447 183.458 85.1607 183.194 85.5287C182.938 85.8887 182.59 86.1927 182.15 86.4407C181.71 86.6887 181.226 86.8767 180.698 87.0047C180.17 87.1327 179.634 87.1967 179.09 87.1967L179.21 86.2127C179.642 86.2127 180.026 86.1847 180.362 86.1287C180.706 86.0647 181.002 85.9807 181.25 85.8767C181.618 85.7327 181.906 85.5607 182.114 85.3607C182.33 85.1527 182.482 84.9407 182.57 84.7247C182.658 84.5087 182.702 84.3127 182.702 84.1367C182.702 83.9687 182.666 83.8087 182.594 83.6567C182.53 83.4967 182.434 83.3687 182.306 83.2727C182.186 83.1687 182.038 83.1167 181.862 83.1167C181.686 83.1167 181.526 83.1687 181.382 83.2727C181.246 83.3687 181.138 83.4967 181.058 83.6567C180.978 83.8167 180.938 83.9847 180.938 84.1607C180.938 84.4967 181.022 84.7967 181.19 85.0607C181.366 85.3167 181.59 85.5367 181.862 85.7207C182.142 85.9047 182.438 86.0447 182.75 86.1407C183.07 86.2367 183.374 86.2847 183.662 86.2847C183.934 86.2847 184.134 86.2407 184.262 86.1527C184.39 86.0567 184.454 85.9007 184.454 85.6847C184.454 85.6447 184.442 85.5727 184.418 85.4687C184.402 85.3567 184.338 85.2047 184.226 85.0127C184.122 84.8207 183.942 84.5847 183.686 84.3047C183.43 84.0167 183.07 83.6767 182.606 83.2847C182.142 82.8847 181.542 82.4207 180.806 81.8927L181.37 81.1487C182.138 81.7087 182.77 82.2047 183.266 82.6367C183.77 83.0607 184.166 83.4327 184.454 83.7527C184.75 84.0647 184.966 84.3407 185.102 84.5807C185.246 84.8127 185.338 85.0207 185.378 85.2047C185.418 85.3807 185.438 85.5487 185.438 85.7087C185.438 85.9727 185.378 86.2207 185.258 86.4527C185.146 86.6847 184.962 86.8727 184.706 87.0167C184.458 87.1607 184.126 87.2327 183.71 87.2327ZM189.448 87.1967C188.808 87.1967 188.32 87.1247 187.984 86.9807C187.648 86.8367 187.416 86.6127 187.288 86.3087C187.16 86.0047 187.084 85.6127 187.06 85.1327L186.844 79.4087H187.828L188.044 84.7487C188.06 85.1407 188.096 85.4447 188.152 85.6607C188.216 85.8687 188.352 86.0127 188.56 86.0927C188.776 86.1727 189.112 86.2127 189.568 86.2127C189.736 86.2127 189.856 86.2607 189.928 86.3567C190.008 86.4447 190.048 86.5527 190.048 86.6807C190.048 86.8087 189.992 86.9287 189.88 87.0407C189.768 87.1447 189.624 87.1967 189.448 87.1967ZM186.244 78.6887L186.1 78.0407C186.308 77.9927 186.476 77.9527 186.604 77.9207C186.732 77.8887 186.876 77.8527 187.036 77.8127L186.976 78.0647C186.768 78.0007 186.568 77.8647 186.376 77.6567C186.192 77.4487 186.1 77.2127 186.1 76.9487C186.1 76.7087 186.156 76.5087 186.268 76.3487C186.388 76.1807 186.54 76.0567 186.724 75.9767C186.916 75.8967 187.12 75.8567 187.336 75.8567C187.424 75.8567 187.516 75.8647 187.612 75.8807C187.716 75.8967 187.812 75.9207 187.9 75.9527L187.804 76.5527C187.724 76.5367 187.648 76.5207 187.576 76.5047C187.504 76.4887 187.424 76.4807 187.336 76.4807C187.152 76.4807 187.008 76.5207 186.904 76.6007C186.8 76.6727 186.748 76.7767 186.748 76.9127C186.748 77.0807 186.8 77.2247 186.904 77.3447C187.016 77.4647 187.14 77.5607 187.276 77.6327C187.42 77.6967 187.536 77.7287 187.624 77.7287L187.132 77.7767C187.348 77.7207 187.548 77.6647 187.732 77.6087C187.924 77.5447 188.096 77.4847 188.248 77.4287L188.44 78.0407C188.248 78.1127 188.02 78.1887 187.756 78.2687C187.5 78.3487 187.24 78.4247 186.976 78.4967C186.712 78.5687 186.468 78.6327 186.244 78.6887ZM189.449 87.1967L189.569 86.2127C189.969 86.2127 190.281 86.1847 190.505 86.1287C190.729 86.0647 190.897 85.9487 191.009 85.7807C191.129 85.6047 191.225 85.3527 191.297 85.0247C191.369 84.6967 191.457 84.2687 191.561 83.7407L192.497 83.9207C192.465 84.0647 192.429 84.2247 192.389 84.4007C192.349 84.5767 192.313 84.7527 192.281 84.9287C192.257 85.0967 192.245 85.2447 192.245 85.3727C192.245 85.4927 192.253 85.6047 192.269 85.7087C192.285 85.8127 192.345 85.9007 192.449 85.9727C192.553 86.0447 192.729 86.1047 192.977 86.1527C193.225 86.1927 193.581 86.2127 194.045 86.2127C194.213 86.2127 194.333 86.2607 194.405 86.3567C194.485 86.4447 194.525 86.5527 194.525 86.6807C194.525 86.8087 194.469 86.9287 194.357 87.0407C194.245 87.1447 194.101 87.1967 193.925 87.1967C193.437 87.1967 193.049 87.1727 192.761 87.1247C192.473 87.0687 192.253 86.9887 192.101 86.8847C191.957 86.7807 191.853 86.6527 191.789 86.5007C191.733 86.3407 191.689 86.1567 191.657 85.9487L192.017 85.9727C191.889 86.2287 191.749 86.4367 191.597 86.5967C191.453 86.7567 191.285 86.8807 191.093 86.9687C190.901 87.0567 190.669 87.1167 190.397 87.1487C190.133 87.1807 189.817 87.1967 189.449 87.1967ZM192.653 82.5047C192.485 82.5047 192.341 82.4487 192.221 82.3367C192.109 82.2167 192.053 82.0767 192.053 81.9167C192.053 81.7567 192.109 81.6167 192.221 81.4967C192.341 81.3767 192.485 81.3167 192.653 81.3167C192.813 81.3167 192.949 81.3767 193.061 81.4967C193.181 81.6167 193.241 81.7567 193.241 81.9167C193.241 82.0767 193.181 82.2167 193.061 82.3367C192.949 82.4487 192.813 82.5047 192.653 82.5047ZM191.009 82.5047C190.841 82.5047 190.697 82.4487 190.577 82.3367C190.465 82.2167 190.409 82.0767 190.409 81.9167C190.409 81.7567 190.465 81.6167 190.577 81.4967C190.697 81.3767 190.841 81.3167 191.009 81.3167C191.169 81.3167 191.305 81.3767 191.417 81.4967C191.537 81.6167 191.597 81.7567 191.597 81.9167C191.597 82.0767 191.537 82.2167 191.417 82.3367C191.305 82.4487 191.169 82.5047 191.009 82.5047ZM193.926 87.1967L194.034 86.2127C194.49 86.2127 194.81 86.1687 194.994 86.0807C195.178 85.9927 195.282 85.8367 195.306 85.6127C195.338 85.3887 195.346 85.0767 195.33 84.6767L195.102 78.5687H196.074L196.314 84.5687C196.33 84.9927 196.314 85.3687 196.266 85.6967C196.226 86.0247 196.122 86.3007 195.954 86.5247C195.794 86.7487 195.55 86.9167 195.222 87.0287C194.902 87.1407 194.47 87.1967 193.926 87.1967Z" fill="#8A1538"/>
<path d="M50.46 10.2655C50.1495 7.13938 49.585 4.57651 49.0347 2.83037C48.7666 1.95731 48.5125 1.28138 48.3009 0.816685C48.1033 0.366069 47.9904 0.140762 47.9904 0.140762C47.934 0.0281078 47.8069 -0.0282191 47.6941 0.0140261C47.5812 0.0562713 47.5247 0.197089 47.5671 0.309742C47.5671 0.309742 47.6658 0.549132 47.8211 0.999747C47.9763 1.43628 48.1739 2.12629 48.3714 2.98527C48.7666 4.73141 49.1052 7.26612 49.204 10.3359C49.3028 13.4058 49.1476 16.9825 48.6113 20.7564C48.061 24.5303 47.1296 28.5014 45.6478 32.219C44.8999 34.0777 44.0391 35.8802 43.0371 37.5418C42.0493 39.2176 40.9062 40.7384 39.6926 42.0762C38.4507 43.3998 37.1383 44.5546 35.7836 45.4558C34.4288 46.3711 33.0459 47.0752 31.7193 47.5962C30.3928 48.1172 29.1369 48.4552 27.9938 48.6805C26.8648 48.9199 25.8347 49.0044 25.0021 49.0748C24.5646 49.103 23.9719 49.117 23.478 49.1311C22.9135 49.1311 22.3349 49.1311 21.7704 49.0748C19.8653 48.8495 17.932 48.3566 16.0692 47.5399C13.2045 46.3007 10.5373 44.3292 8.46287 41.7945C8.19474 41.4847 7.95484 41.1609 7.70082 40.8229C7.58793 40.6539 7.44681 40.4849 7.34803 40.33L6.99523 39.809C6.55776 39.119 6.16262 38.4008 5.83805 37.6404C5.16068 36.1337 4.7091 34.5143 4.44097 32.8808C3.94705 29.5857 4.22929 26.1638 5.24535 23.0377C5.75338 21.4746 6.43075 19.9678 7.26336 18.6019C8.09596 17.2219 9.09791 15.9686 10.2269 14.8843C10.7913 14.3351 11.3982 13.8423 12.005 13.3776C12.3154 13.1664 12.64 12.927 12.9646 12.7158C13.2892 12.5186 13.5996 12.3074 13.9383 12.1243C15.2507 11.378 16.6196 10.7866 18.0025 10.35C20.7544 9.47695 23.5485 9.29389 26.0463 9.57552C28.5583 9.85716 30.788 10.6176 32.6225 11.5188C34.4571 12.4341 35.8824 13.5325 36.9831 14.5182C38.0838 15.5039 38.8459 16.4052 39.3398 17.0248C39.8337 17.6444 40.9485 19.1933 41.1179 19.1089C41.1884 19.0807 41.1884 19.1089 41.2308 19.0385C41.3013 18.9399 40.4405 17.3486 40.0031 16.6586C39.5515 15.9827 38.6906 14.8843 37.6322 13.7578C36.5739 12.6313 35.1485 11.4202 33.2575 10.2514C31.3807 9.08266 29.024 8.06878 26.2721 7.54775C23.5344 6.99857 20.3875 7.02673 17.1982 7.80123C15.6035 8.18143 13.9948 8.75878 12.4566 9.54736C12.0614 9.73042 11.6522 9.98389 11.257 10.1951C11.0595 10.3078 10.9183 10.4063 10.7349 10.5049L10.4809 10.6598L10.3539 10.7302L10.2974 10.7725H10.2692L10.1845 10.857C9.42248 11.3639 8.67455 11.899 7.96895 12.5186C7.24925 13.1241 6.6001 13.786 5.96506 14.49C5.34414 15.2082 4.75143 15.9546 4.22929 16.7431C3.15678 18.3203 2.28184 20.0523 1.60447 21.8689C0.235611 25.502 -0.286529 29.5153 0.150941 33.5286C0.376732 35.5422 0.884767 37.5559 1.68915 39.471C1.88671 39.9498 2.1125 40.4286 2.3383 40.8933C2.43708 41.1186 2.60642 41.3862 2.73343 41.6396L2.94511 42.0198L3.05801 42.2029L3.14268 42.3437L3.48136 42.8788L3.52369 42.9492V42.9774L3.63659 43.1041L3.74949 43.259L3.96117 43.5688C4.24341 43.9772 4.55386 44.3715 4.87844 44.7517C6.14851 46.3007 7.60204 47.6807 9.18258 48.8636C10.7772 50.0323 12.4848 50.9899 14.2488 51.7222C17.7909 53.1585 21.5305 53.7077 24.9738 53.4542C28.4313 53.2148 31.6065 52.2573 34.203 50.8068C34.8099 50.4689 35.3884 50.1168 35.9247 49.7366C36.588 49.3423 37.2371 48.9058 37.8863 48.427C39.4386 47.2864 40.8921 45.8782 42.2186 44.3011C43.531 42.7098 44.7164 40.9496 45.7043 39.0627C46.7062 37.1757 47.5106 35.1761 48.188 33.1624C48.8512 31.1347 49.3734 29.0787 49.7544 27.0228C50.1495 24.9809 50.3894 22.9532 50.5447 20.9817C50.8551 17.0529 50.7563 13.3776 50.4176 10.2514L50.46 10.2655Z" fill="#8A1538"/>
<path d="M57.6236 37.049C57.4119 34.9931 57.1156 33.3877 56.918 32.3035C56.8192 31.7543 56.7345 31.3459 56.664 31.0643C56.6075 30.7826 56.6075 30.6981 56.5088 30.6418C56.3959 30.5714 56.1701 30.6277 56.1136 30.7263C56.0572 30.8249 56.0854 30.8953 56.1136 31.1769C56.1418 31.4586 56.1842 31.881 56.2265 32.4302C56.3253 33.5286 56.4523 35.1339 56.4664 37.1757C56.4946 39.2176 56.4664 41.6819 56.156 44.4701C55.8455 47.2583 55.3798 50.3703 54.5049 53.6795C54.0815 55.3271 53.5311 57.031 52.9384 58.749C52.3457 60.481 51.6401 62.2412 50.8499 64.0014C49.2693 67.55 47.1949 71.0846 44.8664 74.605C42.5097 78.1113 39.772 81.5191 36.6956 84.6734C35.1574 86.2506 33.5768 87.7996 31.9116 89.25C31.6858 89.4471 31.4601 89.6302 31.2484 89.8133C31.4883 88.9684 31.7 88.1235 31.8693 87.2504C32.3773 84.6593 32.5467 81.9557 32.2785 79.266C32.0104 76.5764 31.2484 73.9431 30.1194 71.5915C29.5691 70.4086 28.8917 69.3103 28.172 68.2823C27.9885 68.0288 27.8051 67.7753 27.6216 67.5219C27.4382 67.2825 27.2406 67.029 27.0289 66.7755L26.7749 66.4657C26.6479 66.3108 26.5491 66.2123 26.4362 66.0715C26.2104 65.818 25.9846 65.5786 25.7588 65.3533C23.9102 63.5367 22.0192 62.3116 20.2128 61.2555C18.3783 60.2275 16.5861 59.4108 14.8785 58.6926C13.1569 57.9745 11.534 57.3408 9.95346 56.8198C8.38703 56.2987 6.89117 55.8481 5.52231 55.4257C4.85905 55.2144 4.224 55.0173 3.61719 54.8202C3.49018 54.792 3.30674 54.7075 3.1515 54.6653C2.47413 54.3836 2.40356 53.7922 2.40356 53.5246C2.40356 53.4401 2.41768 53.3416 2.43179 53.2571C2.51646 52.3981 2.75637 51.5391 2.99627 50.8069C3.25029 50.0746 3.47608 49.4268 3.68775 48.9058C3.88532 48.3848 4.05466 47.9905 4.16756 47.7089C4.26634 47.4272 4.32279 47.3568 4.26634 47.2864C4.20989 47.216 3.94177 47.0611 3.84299 47.1174C3.75832 47.1738 3.75832 47.1878 3.64542 47.3427C3.46197 47.5681 3.23617 47.9201 2.91159 48.3707C2.58702 48.8213 2.206 49.3987 1.78264 50.0887C1.3734 50.7928 0.907701 51.6095 0.554902 52.6093C0.385559 53.1163 0.230324 53.6654 0.187989 54.285C0.145653 54.8906 0.258557 55.6087 0.681915 56.2142C0.893594 56.51 1.16172 56.7634 1.47218 56.9606C1.79676 57.1577 2.079 57.2845 2.38946 57.4394C3.01038 57.721 3.64542 58.0026 4.30868 58.2843C6.94762 59.4108 9.93935 60.6641 13.0722 62.2553C14.6386 63.058 16.2474 63.931 17.8279 64.959C19.4085 65.987 20.9749 67.1558 22.3296 68.578C23.6561 70.0284 24.7851 71.7605 25.6459 73.6334C26.5068 75.5203 27.043 77.5903 27.2406 79.7448C27.6216 84.0538 26.6055 88.5459 24.898 92.7845C24.4746 93.8547 23.9948 94.8968 23.5009 95.9529L22.753 97.5441C22.626 97.8117 22.5131 98.0933 22.4002 98.389C22.3437 98.5439 22.2873 98.6988 22.2591 98.9241C22.2591 98.9805 22.2591 99.0509 22.2591 99.1354C22.2591 99.1776 22.2591 99.2199 22.2873 99.2903C22.3437 99.4452 22.3155 99.3607 22.3296 99.4029L22.3579 99.4593C22.3579 99.4593 22.4002 99.5297 22.4284 99.5719C22.4849 99.6564 22.5272 99.6986 22.5836 99.7409C22.8094 99.924 23.0493 99.9803 23.2469 99.9944C23.4445 100.008 23.6279 99.9944 23.7973 99.9803C24.136 99.938 24.4464 99.8395 24.7428 99.7409C25.3355 99.5297 25.8858 99.2762 26.4221 98.9946C27.4946 98.4313 28.4965 97.7835 29.4703 97.0935C33.3652 94.3335 36.8085 91.0384 39.9272 87.5743C43.0318 84.0961 45.7837 80.3926 48.1121 76.6187C50.4406 72.8307 52.3457 68.9723 53.8275 65.1702C55.2951 61.3682 56.3394 57.6506 56.9886 54.1583C58.301 47.1597 58.1034 41.1749 57.6518 37.0772L57.6236 37.049Z" fill="#8A1538"/>
</g>
<defs>
<clipPath id="clip0_974_648">
<rect width="199" height="100" fill="white"/>
</clipPath>
</defs>
</svg>
