<svg width="135" height="67" viewBox="0 0 135 67" fill="none" xmlns="http://www.w3.org/2000/svg">
<g clip-path="url(#clip0_908_21169)">
<path d="M6.23559 8.18164V13.787H12.988V8.18164H14.8148V21.5816H12.988V15.2969H6.23559V21.5816H4.4375V8.18164H6.23559Z" fill="white"/>
<path d="M23.7485 17.3732L22.2947 21.5914H20.4297L25.1736 8.19141H27.3447L32.1077 21.5914H30.1853L28.6932 17.3732H23.7485ZM28.3298 16.0238L26.9621 12.1642C26.656 11.2866 26.4456 10.4939 26.2352 9.72014H26.197C25.9865 10.5128 25.757 11.3338 25.4892 12.1453L24.1215 16.0238H28.3298Z" fill="white"/>
<path d="M49.4123 15.703C49.3071 13.8345 49.1827 11.5886 49.2019 9.91831H49.1349C48.6567 11.4848 48.0828 13.1551 47.3751 15.0046L44.9075 21.5065H43.5398L41.2826 15.1273C40.6227 13.24 40.0584 11.5131 39.6663 9.91831H39.628C39.5897 11.5886 39.4845 13.8345 39.3602 15.8445L38.9872 21.5914H37.2656L38.2412 8.19141H40.5366L42.9181 14.6744C43.5015 16.3258 43.9702 17.7979 44.3241 19.1851H44.3815C44.7353 17.8356 45.2327 16.3635 45.8544 14.6744L48.3411 8.19141H50.6365L51.5069 21.5914H49.747L49.3931 15.703H49.4123Z" fill="white"/>
<path d="M59.8969 17.3732L58.4432 21.5914H56.5781L61.322 8.19141H63.4931L68.2561 21.5914H66.3337L64.8417 17.3732H59.8969ZM64.4782 16.0238L63.1105 12.1642C62.8045 11.2866 62.5941 10.4939 62.3837 9.72014H62.3454C62.135 10.5128 61.9054 11.3338 61.6376 12.1453L60.2699 16.0238H64.4782Z" fill="white"/>
<path d="M73.875 8.36122C74.9749 8.2008 76.2756 8.07812 77.7103 8.07812C80.3022 8.07812 82.1386 8.65376 83.3628 9.74841C84.6061 10.8431 85.333 12.3907 85.333 14.5611C85.333 16.7315 84.6253 18.5339 83.3245 19.7701C82.0238 21.0252 79.8622 21.6952 77.1556 21.6952C75.8739 21.6952 74.7932 21.6385 73.8846 21.5347V8.36122H73.875ZM75.6731 20.2136C76.1322 20.2891 76.7921 20.3174 77.4999 20.3174C81.3543 20.3174 83.4393 18.2508 83.4393 14.6271C83.4584 11.4659 81.5934 9.45587 77.7868 9.45587C76.8591 9.45587 76.1513 9.53136 75.6731 9.63517V20.2136Z" fill="white"/>
<path d="M0.700751 29.8203V31.9719H3.22572V29.8203H3.90479V34.9538H3.22572V32.5475H0.700751V34.9538H0.03125V29.8203H0.700751Z" fill="white"/>
<path d="M5.7401 30.2258C5.7401 30.4522 5.5775 30.641 5.3097 30.641C5.0706 30.641 4.89844 30.4617 4.89844 30.2258C4.89844 29.9898 5.08016 29.8105 5.31927 29.8105C5.55837 29.8105 5.7401 29.9898 5.7401 30.2258ZM4.98452 34.9441V31.2543H5.66358V34.9441H4.98452Z" fill="white"/>
<path d="M6.56103 34.2651C6.76188 34.3972 7.11576 34.5294 7.46007 34.5294C7.95742 34.5294 8.18696 34.284 8.18696 33.982C8.18696 33.6801 7.99567 33.4913 7.48877 33.3026C6.81927 33.0667 6.50364 32.6987 6.50364 32.2551C6.50364 31.6606 6.99142 31.1699 7.79482 31.1699C8.1774 31.1699 8.50258 31.2737 8.713 31.3964L8.54084 31.8871C8.39738 31.7927 8.12001 31.6701 7.7757 31.6701C7.374 31.6701 7.15402 31.8965 7.15402 32.1702C7.15402 32.4722 7.374 32.6137 7.86177 32.793C8.51215 33.0384 8.8469 33.3592 8.8469 33.9065C8.8469 34.5577 8.33999 35.0106 7.45051 35.0106C7.03925 35.0106 6.66624 34.9068 6.39844 34.7558L6.57059 34.2463L6.56103 34.2651Z" fill="white"/>
<path d="M13.1226 29.8203V31.9719H15.638V29.8203H16.3171V34.9538H15.638V32.5475H13.1226V34.9538H12.4531V29.8203H13.1226Z" fill="white"/>
<path d="M18.1542 30.2258C18.1542 30.4522 17.9916 30.641 17.7238 30.641C17.4847 30.641 17.3125 30.4617 17.3125 30.2258C17.3125 29.9898 17.4942 29.8105 17.7333 29.8105C17.9724 29.8105 18.1542 29.9898 18.1542 30.2258ZM17.3986 34.9441V31.2543H18.0776V34.9441H17.3986Z" fill="white"/>
<path d="M22.2939 31.2649C22.2748 31.5292 22.2652 31.8311 22.2652 32.2747V34.4168C22.2652 35.2661 22.0931 35.7851 21.7296 36.0965C21.3662 36.4362 20.8401 36.54 20.3715 36.54C19.9028 36.54 19.4342 36.4362 19.1281 36.238L19.3003 35.7285C19.549 35.8795 19.9315 36.021 20.4002 36.021C21.0984 36.021 21.6053 35.6624 21.6053 34.7376V34.3224H21.5861C21.3757 34.6621 20.974 34.9358 20.4002 34.9358C19.4724 34.9358 18.8125 34.162 18.8125 33.1428C18.8125 31.8972 19.635 31.1895 20.4958 31.1895C21.1462 31.1895 21.5001 31.5197 21.6627 31.8311H21.6818L21.7105 31.2744H22.3035L22.2939 31.2649ZM21.5957 32.7182C21.5957 32.6049 21.5957 32.5011 21.5575 32.4162C21.4331 32.0293 21.0984 31.7085 20.6106 31.7085C19.9602 31.7085 19.5011 32.2464 19.5011 33.1051C19.5011 33.8317 19.8741 34.4357 20.601 34.4357C21.0219 34.4357 21.3949 34.1809 21.5383 33.7468C21.5766 33.6335 21.5957 33.5014 21.5957 33.3882V32.7276V32.7182Z" fill="white"/>
<path d="M23.25 29.5469H23.9291V31.8494H23.9482C24.0534 31.6607 24.2256 31.4908 24.436 31.3776C24.6368 31.2643 24.8759 31.1888 25.1342 31.1888C25.6315 31.1888 26.4349 31.4908 26.4349 32.7648V34.9635H25.7558V32.8497C25.7558 32.2552 25.5359 31.755 24.8951 31.755C24.4551 31.755 24.1108 32.057 23.9865 32.425C23.9482 32.5194 23.9386 32.6138 23.9386 32.7459V34.9729H23.2596V29.5657L23.25 29.5469Z" fill="white"/>
<path d="M27.4037 32.2652C27.4037 31.8878 27.4037 31.5764 27.375 31.2649H27.9775L28.0158 31.8783H28.0349C28.2167 31.5292 28.6566 31.1895 29.2687 31.1895C29.7852 31.1895 30.5886 31.4914 30.5886 32.7559V34.9547H29.9095V32.8314C29.9095 32.2369 29.6896 31.7462 29.0488 31.7462C28.5992 31.7462 28.2549 32.0576 28.1401 32.4351C28.1114 32.52 28.0923 32.6333 28.0923 32.7465V34.9641H27.4133V32.2747L27.4037 32.2652Z" fill="white"/>
<path d="M31.9238 33.2274C31.9429 34.1333 32.5264 34.5108 33.2054 34.5108C33.6932 34.5108 33.9801 34.4259 34.2384 34.3221L34.3531 34.8033C34.114 34.9072 33.7028 35.0298 33.1098 35.0298C31.9621 35.0298 31.2734 34.2843 31.2734 33.1708C31.2734 32.0573 31.9334 31.1797 33.0237 31.1797C34.2479 31.1797 34.5731 32.2366 34.5731 32.916C34.5731 33.0576 34.554 33.1614 34.554 33.2274H31.9238ZM33.9132 32.7462C33.9132 32.3215 33.7315 31.661 32.9759 31.661C32.2873 31.661 31.9908 32.2838 31.9334 32.7462H33.9132Z" fill="white"/>
<path d="M35.186 34.2651C35.3869 34.3972 35.7408 34.5294 36.0851 34.5294C36.5824 34.5294 36.812 34.284 36.812 33.982C36.812 33.6801 36.6207 33.4913 36.1138 33.3026C35.4443 33.0667 35.1286 32.6987 35.1286 32.2551C35.1286 31.6606 35.6164 31.1699 36.4198 31.1699C36.8024 31.1699 37.1276 31.2737 37.338 31.3964L37.1658 31.8871C37.0224 31.7927 36.745 31.6701 36.4007 31.6701C35.999 31.6701 35.779 31.8965 35.779 32.1702C35.779 32.4722 35.999 32.6137 36.4868 32.793C37.1371 33.0384 37.4719 33.3592 37.4719 33.9065C37.4719 34.5577 36.965 35.0106 36.0755 35.0106C35.6642 35.0106 35.2912 34.9068 35.0234 34.7558L35.1956 34.2463L35.186 34.2651Z" fill="white"/>
<path d="M38.1157 34.2651C38.3166 34.3972 38.6704 34.5294 39.0148 34.5294C39.5121 34.5294 39.7416 34.284 39.7416 33.982C39.7416 33.6801 39.5504 33.4913 39.0435 33.3026C38.374 33.0667 38.0583 32.6987 38.0583 32.2551C38.0583 31.6606 38.5461 31.1699 39.3495 31.1699C39.7321 31.1699 40.0573 31.2737 40.2677 31.3964L40.0955 31.8871C39.9521 31.7927 39.6747 31.6701 39.3304 31.6701C38.9287 31.6701 38.7087 31.8965 38.7087 32.1702C38.7087 32.4722 38.9287 32.6137 39.4165 32.793C40.0668 33.0384 40.4016 33.3592 40.4016 33.9065C40.4016 34.5577 39.8947 35.0106 39.0052 35.0106C38.5939 35.0106 38.2209 34.9068 37.9531 34.7558L38.1253 34.2463L38.1157 34.2651Z" fill="white"/>
<path d="M43.9005 34.1432C44.197 34.3225 44.6369 34.4829 45.1056 34.4829C45.7942 34.4829 46.1959 34.1244 46.1959 33.6053C46.1959 33.1241 45.9185 32.8504 45.2108 32.5862C44.3596 32.2937 43.8335 31.8596 43.8335 31.1329C43.8335 30.3308 44.503 29.7363 45.5168 29.7363C46.0524 29.7363 46.435 29.859 46.6646 29.9911L46.4828 30.529C46.3107 30.4346 45.9664 30.2837 45.4977 30.2837C44.79 30.2837 44.5126 30.6989 44.5126 31.0575C44.5126 31.5387 44.8282 31.7746 45.5455 32.0483C46.4254 32.3786 46.875 32.8032 46.875 33.5582C46.875 34.3508 46.282 35.0397 45.0482 35.0397C44.5508 35.0397 43.9961 34.8982 43.7188 34.7094L43.8909 34.1527L43.9005 34.1432Z" fill="white"/>
<path d="M47.6406 29.5469H48.3197V31.8494H48.3388C48.444 31.6607 48.6162 31.4908 48.8266 31.3776C49.0274 31.2643 49.2666 31.1888 49.5248 31.1888C50.0221 31.1888 50.8255 31.4908 50.8255 32.7648V34.9635H50.1465V32.8497C50.1465 32.2552 49.9265 31.755 49.2857 31.755C48.8457 31.755 48.5014 32.057 48.3771 32.425C48.3388 32.5194 48.3293 32.6138 48.3293 32.7459V34.9729H47.6502V29.5657L47.6406 29.5469Z" fill="white"/>
<path d="M53.8624 34.9547L53.805 34.4923H53.7859C53.5755 34.7848 53.1738 35.0396 52.6477 35.0396C51.8921 35.0396 51.5 34.5111 51.5 33.9827C51.5 33.0956 52.3034 32.6049 53.7476 32.6144V32.5389C53.7476 32.2369 53.6615 31.6896 52.8964 31.6896C52.5521 31.6896 52.1886 31.7934 51.9208 31.9633L51.7678 31.5197C52.0739 31.3216 52.5234 31.1895 52.992 31.1895C54.1302 31.1895 54.4171 31.9538 54.4171 32.6993V34.0771C54.4171 34.3979 54.4362 34.7093 54.4745 34.9641H53.8528L53.8624 34.9547ZM53.7572 33.0768C53.0207 33.0579 52.1791 33.19 52.1791 33.9072C52.1791 34.3413 52.4756 34.5489 52.8199 34.5489C53.3077 34.5489 53.6137 34.2469 53.7189 33.9355C53.738 33.8695 53.7572 33.794 53.7572 33.7185V33.0768Z" fill="white"/>
<path d="M56.1307 30.2258C56.1307 30.4522 55.9681 30.641 55.7003 30.641C55.4612 30.641 55.2891 30.4617 55.2891 30.2258C55.2891 29.9898 55.4708 29.8105 55.7099 29.8105C55.949 29.8105 56.1307 29.9898 56.1307 30.2258ZM55.3751 34.9441V31.2543H56.0542V34.9441H55.3751Z" fill="white"/>
<path d="M57.7207 32.9535H57.7398C57.8355 32.8214 57.9598 32.661 58.0746 32.5383L59.1745 31.2643H59.997L58.5528 32.7836L60.1978 34.9541H59.3753L58.0841 33.1894L57.7398 33.5669V34.9541H57.0703V29.5469H57.7398V32.9629L57.7207 32.9535Z" fill="white"/>
<path d="M60.6641 29.5469H61.3431V31.8494H61.3623C61.4675 31.6607 61.6396 31.4908 61.85 31.3776C62.0509 31.2643 62.29 31.1888 62.5482 31.1888C63.0456 31.1888 63.849 31.4908 63.849 32.7648V34.9635H63.1699V32.8497C63.1699 32.2552 62.9499 31.755 62.3091 31.755C61.8692 31.755 61.5248 32.057 61.4005 32.425C61.3623 32.5194 61.3527 32.6138 61.3527 32.7459V34.9729H60.6736V29.5657L60.6641 29.5469Z" fill="white"/>
<path d="M68.357 29.8203V31.9719H70.8724V29.8203H71.5515V34.9538H70.8724V32.5475H68.357V34.9538H67.6875V29.8203H68.357Z" fill="white"/>
<path d="M74.628 34.9547L74.5706 34.4923H74.5515C74.3411 34.7848 73.9394 35.0396 73.4133 35.0396C72.6578 35.0396 72.2656 34.5111 72.2656 33.9827C72.2656 33.0956 73.069 32.6049 74.5132 32.6144V32.5389C74.5132 32.2369 74.4272 31.6896 73.662 31.6896C73.3177 31.6896 72.9543 31.7934 72.6865 31.9633L72.5334 31.5197C72.8395 31.3216 73.289 31.1895 73.7577 31.1895C74.8958 31.1895 75.1827 31.9538 75.1827 32.6993V34.0771C75.1827 34.3979 75.2019 34.7093 75.2401 34.9641H74.6184L74.628 34.9547ZM74.5228 33.0768C73.7863 33.0579 72.9447 33.19 72.9447 33.9072C72.9447 34.3413 73.2412 34.5489 73.5855 34.5489C74.0733 34.5489 74.3793 34.2469 74.4845 33.9355C74.5037 33.8695 74.5228 33.794 74.5228 33.7185V33.0768Z" fill="white"/>
<path d="M76.1537 32.2649C76.1537 31.8874 76.1537 31.576 76.125 31.2646H76.718L76.7467 31.8591H76.7658C76.9762 31.51 77.3205 31.1797 77.9422 31.1797C78.4491 31.1797 78.8413 31.4817 79.0039 31.9157H79.023C79.1378 31.7081 79.2812 31.5477 79.4438 31.4345C79.6638 31.2646 79.9125 31.1797 80.2663 31.1797C80.7637 31.1797 81.4906 31.5005 81.4906 32.7745V34.9449H80.8306V32.8594C80.8306 32.1517 80.5724 31.727 80.0177 31.727C79.6351 31.727 79.329 32.0101 79.2143 32.3404C79.1856 32.4348 79.1569 32.5574 79.1569 32.6801V34.9543H78.4969V32.7462C78.4969 32.1611 78.2387 31.7364 77.7127 31.7364C77.2918 31.7364 76.9762 32.0667 76.871 32.4064C76.8328 32.5008 76.8136 32.6235 76.8136 32.7367V34.9638H76.1537V32.2743V32.2649Z" fill="white"/>
<path d="M84.5186 34.9547L84.4612 34.4923H84.4421C84.2317 34.7848 83.83 35.0396 83.304 35.0396C82.5484 35.0396 82.1562 34.5111 82.1562 33.9827C82.1562 33.0956 82.9596 32.6049 84.4039 32.6144V32.5389C84.4039 32.2369 84.3178 31.6896 83.5526 31.6896C83.2083 31.6896 82.8449 31.7934 82.5771 31.9633L82.424 31.5197C82.7301 31.3216 83.1796 31.1895 83.6483 31.1895C84.7864 31.1895 85.0734 31.9538 85.0734 32.6993V34.0771C85.0734 34.3979 85.0925 34.7093 85.1307 34.9641H84.5091L84.5186 34.9547ZM84.4134 33.0768C83.677 33.0579 82.8353 33.19 82.8353 33.9072C82.8353 34.3413 83.1318 34.5489 83.4761 34.5489C83.9639 34.5489 84.27 34.2469 84.3752 33.9355C84.3943 33.8695 84.4134 33.794 84.4134 33.7185V33.0768Z" fill="white"/>
<path d="M89.2662 29.5469V34.001C89.2662 34.3312 89.2662 34.6993 89.2949 34.9541H88.6827L88.654 34.3124H88.6349C88.4245 34.7276 87.975 35.039 87.3629 35.039C86.4638 35.039 85.7656 34.2841 85.7656 33.1611C85.7656 31.9343 86.5308 31.1794 87.4394 31.1794C88.0132 31.1794 88.3958 31.4436 88.568 31.7456H88.5871V29.5469H89.2662ZM88.5871 32.7742C88.5871 32.6893 88.5871 32.576 88.5584 32.4911C88.4628 32.0665 88.0897 31.7173 87.5733 31.7173C86.8751 31.7173 86.4543 32.3307 86.4543 33.1422C86.4543 33.8877 86.8273 34.5011 87.5542 34.5011C88.0132 34.5011 88.4245 34.2086 88.5488 33.699C88.568 33.6046 88.5775 33.5197 88.5775 33.4065V32.7648L88.5871 32.7742Z" fill="white"/>
<path d="M0.015625 44.2395C0.302554 44.1829 0.752076 44.1357 1.22073 44.1357C1.88066 44.1357 2.30149 44.249 2.61711 44.5038C2.88491 44.7019 3.03794 44.9945 3.03794 45.3908C3.03794 45.8721 2.71276 46.2967 2.17716 46.4949V46.5138C2.66493 46.6364 3.22923 47.0328 3.22923 47.7783C3.22923 48.2124 3.05707 48.5426 2.79883 48.788C2.44496 49.1088 1.8711 49.2598 1.039 49.2598C0.589483 49.2598 0.235604 49.2315 0.015625 49.2032V44.2584V44.2395ZM0.675561 46.2967H1.26855C1.96674 46.2967 2.36844 45.9381 2.36844 45.4569C2.36844 44.8718 1.91892 44.6359 1.24942 44.6359C0.943361 44.6359 0.771204 44.6548 0.665997 44.6831V46.3062L0.675561 46.2967ZM0.675561 48.7031C0.799897 48.7219 0.991183 48.7314 1.23029 48.7314C1.90936 48.7314 2.5406 48.486 2.5406 47.75C2.5406 47.0611 1.94761 46.778 1.22073 46.778H0.675561V48.6936V48.7031Z" fill="white"/>
<path d="M4.36159 44.5698C4.36159 44.7963 4.199 44.9756 3.94076 44.9756C3.70166 44.9756 3.53906 44.7963 3.53906 44.5698C3.53906 44.3434 3.71122 44.1641 3.95033 44.1641C4.18943 44.1641 4.36159 44.3434 4.36159 44.5698ZM3.62514 49.1938V45.5796H4.29464V49.1938H3.62514Z" fill="white"/>
<path d="M4.91932 46.5605C4.91932 46.183 4.91932 45.881 4.89062 45.5791H5.48361L5.52187 46.1736H5.541C5.72272 45.8339 6.14355 45.4941 6.7461 45.4941C7.25301 45.4941 8.03728 45.7961 8.03728 47.0323V49.1839H7.36778V47.0984C7.36778 46.5133 7.1478 46.032 6.52612 46.032C6.08616 46.032 5.75141 46.334 5.63664 46.702C5.60795 46.787 5.58882 46.9002 5.58882 47.004V49.1744H4.91932V46.5416V46.5605Z" fill="white"/>
<path d="M11.2656 44.1637H11.9256V46.5889H11.9447C12.0786 46.3908 12.2125 46.2209 12.3464 46.0511L13.9054 44.1637H14.7183L12.8724 46.2964L14.8618 49.1935H14.0871L12.4133 46.7211L11.9256 47.2684V49.184H11.2656V44.1543V44.1637Z" fill="white"/>
<path d="M14.9375 43.9004H15.607V46.1557H15.6261C15.7313 45.967 15.9035 45.8066 16.1043 45.6933C16.3052 45.5801 16.5347 45.5046 16.7834 45.5046C17.2712 45.5046 18.0555 45.8066 18.0555 47.0522V49.2038H17.386V47.1277C17.386 46.5426 17.166 46.0519 16.5443 46.0519C16.1139 46.0519 15.7696 46.3539 15.6548 46.7125C15.6166 46.7974 15.607 46.9012 15.607 47.0239V49.2038H14.9375V43.9098V43.9004Z" fill="white"/>
<path d="M20.6896 49.1936L20.6322 48.7407H20.613C20.4122 49.0238 20.0201 49.2786 19.494 49.2786C18.7576 49.2786 18.375 48.769 18.375 48.2405C18.375 47.3724 19.1593 46.8911 20.5748 46.9005V46.825C20.5748 46.5231 20.4887 45.9946 19.7427 45.9946C19.3984 45.9946 19.0445 46.0984 18.7863 46.2588L18.6332 45.8248C18.9393 45.6266 19.3697 45.5039 19.8383 45.5039C20.9574 45.5039 21.2347 46.2588 21.2347 46.976V48.3255C21.2347 48.6369 21.2539 48.9483 21.2921 49.1936H20.6896ZM20.5939 47.3535C19.867 47.3346 19.0445 47.4667 19.0445 48.165C19.0445 48.5897 19.3314 48.7878 19.6757 48.7878C20.154 48.7878 20.4505 48.4859 20.5557 48.1839C20.5748 48.1179 20.5939 48.0424 20.5939 47.9763V47.3535Z" fill="white"/>
<path d="M21.8281 43.9004H22.4976V49.1943H21.8281V43.9004Z" fill="white"/>
<path d="M23.8694 44.5698C23.8694 44.7963 23.7068 44.9756 23.4486 44.9756C23.2095 44.9756 23.0469 44.7963 23.0469 44.5698C23.0469 44.3434 23.219 44.1641 23.4581 44.1641C23.6972 44.1641 23.8694 44.3434 23.8694 44.5698ZM23.133 49.1938V45.5796H23.8025V49.1938H23.133Z" fill="white"/>
<path d="M24.493 49.1933V46.0792H23.9766V45.5791H24.493V45.4092C24.493 44.8997 24.6078 44.4373 24.9139 44.1542C25.1625 43.9183 25.4973 43.8145 25.8033 43.8145C26.0424 43.8145 26.2433 43.8711 26.3676 43.9183L26.2816 44.4278C26.1859 44.3807 26.0425 44.3429 25.8607 44.3429C25.2964 44.3429 25.153 44.8336 25.153 45.3904V45.5885H26.0329V46.0887H25.153V49.2028H24.493V49.1933Z" fill="white"/>
<path d="M28.1896 49.1936L28.1322 48.7407H28.113C27.9122 49.0238 27.5201 49.2786 26.994 49.2786C26.2576 49.2786 25.875 48.769 25.875 48.2405C25.875 47.3724 26.6593 46.8911 28.0748 46.9005V46.825C28.0748 46.5231 27.9887 45.9946 27.2427 45.9946C26.8984 45.9946 26.5445 46.0984 26.2863 46.2588L26.1332 45.8248C26.4393 45.6266 26.8697 45.5039 27.3383 45.5039C28.4574 45.5039 28.7347 46.2588 28.7347 46.976V48.3255C28.7347 48.6369 28.7539 48.9483 28.7921 49.1936H28.1896ZM28.0939 47.3535C27.367 47.3346 26.5445 47.4667 26.5445 48.165C26.5445 48.5897 26.8314 48.7878 27.1757 48.7878C27.654 48.7878 27.9505 48.4859 28.0557 48.1839C28.0748 48.1179 28.0939 48.0424 28.0939 47.9763V47.3535Z" fill="white"/>
<path d="M32.7832 47.6182L32.2572 49.2035H31.5781L33.3093 44.1738H34.1031L35.8438 49.2035H35.136L34.5909 47.6182H32.7832ZM34.457 47.1086L33.9596 45.6648C33.8449 45.3345 33.7683 45.042 33.6918 44.7495H33.6727C33.5962 45.0514 33.5101 45.3534 33.4145 45.6554L32.9171 47.1086H34.4474H34.457Z" fill="white"/>
<path d="M36.0703 43.9004H36.7398V49.1943H36.0703V43.9004Z" fill="white"/>
<path d="M40.9713 44.7212H39.4219V44.1738H43.1902V44.7212H41.6312V49.1941H40.9617V44.7212H40.9713Z" fill="white"/>
<path d="M43.2109 43.9004H43.8804V46.1557H43.8996C44.0048 45.967 44.1769 45.8066 44.3778 45.6933C44.5786 45.5801 44.8082 45.5046 45.0568 45.5046C45.5446 45.5046 46.3289 45.8066 46.3289 47.0522V49.2038H45.6594V47.1277C45.6594 46.5426 45.4394 46.0519 44.8177 46.0519C44.3873 46.0519 44.043 46.3539 43.9283 46.7125C43.89 46.7974 43.8804 46.9012 43.8804 47.0239V49.2038H43.2109V43.9098V43.9004Z" fill="white"/>
<path d="M48.963 49.1936L48.9056 48.7407H48.8865C48.6856 49.0238 48.2935 49.2786 47.7675 49.2786C47.031 49.2786 46.6484 48.769 46.6484 48.2405C46.6484 47.3724 47.4327 46.8911 48.8482 46.9005V46.825C48.8482 46.5231 48.7621 45.9946 48.0161 45.9946C47.6718 45.9946 47.3179 46.0984 47.0597 46.2588L46.9067 45.8248C47.2127 45.6266 47.6431 45.5039 48.1118 45.5039C49.2308 45.5039 49.5082 46.2588 49.5082 46.976V48.3255C49.5082 48.6369 49.5273 48.9483 49.5655 49.1936H48.963ZM48.8674 47.3535C48.1405 47.3346 47.3179 47.4667 47.3179 48.165C47.3179 48.5897 47.6049 48.7878 47.9492 48.7878C48.4274 48.7878 48.7239 48.4859 48.8291 48.1839C48.8482 48.1179 48.8674 48.0424 48.8674 47.9763V47.3535Z" fill="white"/>
<path d="M50.099 46.5605C50.099 46.183 50.099 45.881 50.0703 45.5791H50.6633L50.7016 46.1736H50.7207C50.9024 45.8339 51.3232 45.4941 51.9258 45.4941C52.4327 45.4941 53.217 45.7961 53.217 47.0323V49.1839H52.5475V47.0984C52.5475 46.5133 52.3275 46.032 51.7058 46.032C51.2659 46.032 50.9311 46.334 50.8163 46.702C50.7876 46.787 50.7685 46.9002 50.7685 47.004V49.1744H50.099V46.5416V46.5605Z" fill="white"/>
<path d="M54.5647 44.5698C54.5647 44.7963 54.4021 44.9756 54.1439 44.9756C53.9048 44.9756 53.7422 44.7963 53.7422 44.5698C53.7422 44.3434 53.9143 44.1641 54.1535 44.1641C54.3926 44.1641 54.5647 44.3434 54.5647 44.5698ZM53.8283 49.1938V45.5796H54.4978V49.1938H53.8283Z" fill="white"/>
<path d="M58.4021 44.1641V46.2684H60.8697V44.1641H61.5392V49.1938H60.8697V46.8346H58.4021V49.1938H57.7422V44.1641H58.4021Z" fill="white"/>
<path d="M65.4833 47.3629C65.4833 48.7029 64.546 49.2786 63.6565 49.2786C62.6618 49.2786 61.9062 48.5614 61.9062 47.4195C61.9062 46.2117 62.7096 45.5039 63.7235 45.5039C64.7373 45.5039 65.4833 46.2588 65.4833 47.3629ZM62.5757 47.4007C62.5757 48.1933 63.0348 48.7878 63.6852 48.7878C64.3356 48.7878 64.7947 48.2028 64.7947 47.3818C64.7947 46.7684 64.4886 45.9946 63.6948 45.9946C62.9009 45.9946 62.5662 46.7118 62.5662 47.4007H62.5757Z" fill="white"/>
<path d="M65.7546 48.524C65.9554 48.6466 66.2998 48.7882 66.6345 48.7882C67.1223 48.7882 67.3423 48.5523 67.3423 48.2503C67.3423 47.9389 67.151 47.769 66.6632 47.5897C66.0033 47.3538 65.6972 47.0047 65.6972 46.5706C65.6972 45.9855 66.1754 45.5137 66.9597 45.5137C67.3327 45.5137 67.6579 45.6175 67.8587 45.7402L67.6961 46.2214C67.5527 46.1365 67.2849 46.0138 66.9501 46.0138C66.558 46.0138 66.338 46.2403 66.338 46.5045C66.338 46.8065 66.558 46.9386 67.0362 47.1179C67.6674 47.3538 67.9926 47.6652 67.9926 48.2031C67.9926 48.8354 67.4953 49.2883 66.6249 49.2883C66.2232 49.2883 65.8502 49.194 65.6016 49.043L65.7642 48.5428L65.7546 48.524Z" fill="white"/>
<path d="M68.3646 46.759C68.3646 46.2966 68.3455 45.9286 68.3359 45.5794H68.9289L68.9576 46.2022H68.9768C69.2541 45.7587 69.6845 45.5039 70.2775 45.5039C71.1574 45.5039 71.8269 46.24 71.8269 47.3346C71.8269 48.6369 71.0235 49.2691 70.1627 49.2691C69.6749 49.2691 69.2541 49.0615 69.0341 48.7029H69.015V50.6657H68.3551V46.759H68.3646ZM69.0246 47.7215C69.0246 47.8159 69.0437 47.9102 69.0533 47.9857C69.1776 48.4387 69.5793 48.7501 70.0479 48.7501C70.7461 48.7501 71.1574 48.1839 71.1574 47.3535C71.1574 46.6269 70.7748 46.0135 70.0671 46.0135C69.6176 46.0135 69.1872 46.3343 69.0628 46.825C69.0437 46.91 69.015 47.0043 69.015 47.0987V47.7215H69.0246Z" fill="white"/>
<path d="M72.9397 44.5698C72.9397 44.7963 72.7771 44.9756 72.5189 44.9756C72.2798 44.9756 72.1172 44.7963 72.1172 44.5698C72.1172 44.3434 72.2893 44.1641 72.5285 44.1641C72.7676 44.1641 72.9397 44.3434 72.9397 44.5698ZM72.2033 49.1938V45.5796H72.8728V49.1938H72.2033Z" fill="white"/>
<path d="M74.2867 44.5511V45.5891H75.2432V46.0893H74.2867V48.0332C74.2867 48.4767 74.4111 48.7315 74.7841 48.7315C74.9562 48.7315 75.0901 48.7127 75.1666 48.6843L75.1953 49.175C75.071 49.2222 74.8606 49.26 74.6024 49.26C74.2963 49.26 74.0476 49.1656 73.885 48.9863C73.6937 48.7881 73.6268 48.4767 73.6268 48.0426V46.0704H73.0625V45.5703H73.6268V44.7021L74.2772 44.5322L74.2867 44.5511Z" fill="white"/>
<path d="M77.5411 49.1936L77.4837 48.7407H77.4646C77.2638 49.0238 76.8716 49.2786 76.3456 49.2786C75.6091 49.2786 75.2266 48.769 75.2266 48.2405C75.2266 47.3724 76.0108 46.8911 77.4263 46.9005V46.825C77.4263 46.5231 77.3403 45.9946 76.5943 45.9946C76.2499 45.9946 75.8961 46.0984 75.6378 46.2588L75.4848 45.8248C75.7909 45.6266 76.2212 45.5039 76.6899 45.5039C77.8089 45.5039 78.0863 46.2588 78.0863 46.976V48.3255C78.0863 48.6369 78.1054 48.9483 78.1437 49.1936H77.5411ZM77.4455 47.3535C76.7186 47.3346 75.8961 47.4667 75.8961 48.165C75.8961 48.5897 76.183 48.7878 76.5273 48.7878C77.0055 48.7878 77.302 48.4859 77.4072 48.1839C77.4263 48.1179 77.4455 48.0424 77.4455 47.9763V47.3535Z" fill="white"/>
<path d="M78.6875 43.9004H79.357V49.1943H78.6875V43.9004Z" fill="white"/>
<path d="M82.6649 49.1933V46.0792H82.1484V45.5791H82.6649V45.4092C82.6649 44.8997 82.7797 44.4373 83.0857 44.1542C83.3344 43.9183 83.6692 43.8145 83.9752 43.8145C84.2143 43.8145 84.4152 43.8711 84.5395 43.9183L84.4534 44.4278C84.3578 44.3807 84.2143 44.3429 84.0326 44.3429C83.4683 44.3429 83.3248 44.8336 83.3248 45.3904V45.5885H84.2048V46.0887H83.3248V49.2028H82.6649V49.1933Z" fill="white"/>
<path d="M87.5458 47.3629C87.5458 48.7029 86.6085 49.2786 85.719 49.2786C84.7243 49.2786 83.9688 48.5614 83.9688 47.4195C83.9688 46.2117 84.7722 45.5039 85.786 45.5039C86.7998 45.5039 87.5458 46.2588 87.5458 47.3629ZM84.6382 47.4007C84.6382 48.1933 85.0973 48.7878 85.7477 48.7878C86.3981 48.7878 86.8572 48.2028 86.8572 47.3818C86.8572 46.7684 86.5511 45.9946 85.7573 45.9946C84.9634 45.9946 84.6287 46.7118 84.6287 47.4007H84.6382Z" fill="white"/>
<path d="M87.9037 46.7118C87.9037 46.2871 87.9037 45.9191 87.875 45.5888H88.4584L88.4776 46.2966H88.5062C88.6688 45.8153 89.0705 45.5039 89.5201 45.5039C89.5966 45.5039 89.6444 45.5039 89.7113 45.5228V46.1456C89.6444 46.1267 89.5774 46.1267 89.4818 46.1267C89.0132 46.1267 88.6784 46.4759 88.5923 46.9666C88.5732 47.0515 88.5636 47.1648 88.5636 47.2686V49.1936H87.9037V46.7118Z" fill="white"/>
<path d="M0 58.6399C0.325186 58.5739 0.784272 58.5361 1.22423 58.5361C1.90329 58.5361 2.34325 58.6588 2.64931 58.9325C2.89798 59.1495 3.04145 59.4798 3.04145 59.8573C3.04145 60.499 2.63018 60.9236 2.11371 61.1029V61.1218C2.49628 61.2539 2.71626 61.5936 2.8406 62.1032C3.00319 62.7826 3.11796 63.245 3.22317 63.4337H2.56323C2.48672 63.2922 2.37194 62.877 2.23804 62.273C2.09458 61.603 1.82678 61.3482 1.25292 61.3294H0.640808V63.4337H0V58.6399ZM0.640808 60.8575H1.29118C1.97024 60.8575 2.40064 60.4895 2.40064 59.9328C2.40064 59.3005 1.94155 59.0268 1.26249 59.0268C0.956429 59.0268 0.736451 59.0551 0.631243 59.0835V60.8575H0.640808Z" fill="white"/>
<path d="M4.01836 61.8108C4.03749 62.6695 4.59222 63.0187 5.23303 63.0187C5.69212 63.0187 5.96948 62.9432 6.20859 62.8394L6.32336 63.2924C6.09382 63.3962 5.71125 63.5094 5.14695 63.5094C4.05662 63.5094 3.40625 62.8016 3.40625 61.7447C3.40625 60.6878 4.03749 59.8574 5.07044 59.8574C6.22772 59.8574 6.53377 60.8577 6.53377 61.4994C6.53377 61.6315 6.51465 61.7259 6.51465 61.7919H4.02793L4.01836 61.8108ZM5.90253 61.3578C5.90253 60.9521 5.73037 60.3293 5.01305 60.3293C4.36268 60.3293 4.07575 60.9238 4.02793 61.3578H5.90253Z" fill="white"/>
<path d="M7.04688 58.3193H7.68768V60.4992H7.70681C7.81202 60.3199 7.97461 60.1595 8.1659 60.0557C8.35718 59.9424 8.58673 59.8764 8.82583 59.8764C9.30405 59.8764 10.0596 60.1689 10.0596 61.3674V63.4434H9.41882V61.4429C9.41882 60.8767 9.20841 60.4048 8.59629 60.4048C8.17546 60.4048 7.85028 60.6974 7.7355 61.0371C7.69725 61.122 7.68768 61.2164 7.68768 61.3391V63.4434H7.04688V58.3193Z" fill="white"/>
<path d="M12.791 63.4437L12.7432 63.0001H12.724C12.5232 63.2738 12.1502 63.5192 11.6433 63.5192C10.9259 63.5192 10.5625 63.019 10.5625 62.5189C10.5625 61.679 11.3181 61.2166 12.6858 61.2166V61.1411C12.6858 60.8486 12.6093 60.3296 11.8824 60.3296C11.5572 60.3296 11.2129 60.4334 10.9642 60.5938L10.8207 60.1786C11.1172 59.9899 11.5381 59.8672 11.9876 59.8672C13.0683 59.8672 13.3361 60.5938 13.3361 61.2921V62.5944C13.3361 62.8963 13.3553 63.1889 13.3935 63.4342H12.8101L12.791 63.4437ZM12.6953 61.6601C11.9971 61.6507 11.1937 61.7734 11.1937 62.4434C11.1937 62.8586 11.4711 63.0473 11.7963 63.0473C12.2554 63.0473 12.5519 62.7548 12.6475 62.4623C12.6666 62.3962 12.6858 62.3207 12.6858 62.2641V61.6601H12.6953Z" fill="white"/>
<path d="M14.0391 63.4434C14.0582 63.2075 14.0678 62.8489 14.0678 62.5375V58.3193H14.7086V60.5086H14.7277C14.9572 60.1217 15.3685 59.8669 15.9328 59.8669C16.8127 59.8669 17.4344 60.5841 17.4248 61.6505C17.4248 62.8961 16.631 63.5189 15.8371 63.5189C15.3207 63.5189 14.919 63.3207 14.6512 62.8584H14.632L14.6034 63.434H14.0486L14.0391 63.4434ZM14.7086 62.0468C14.7086 62.1223 14.7277 62.2072 14.7373 62.2827C14.8616 62.7262 15.2346 63.0282 15.7032 63.0282C16.3727 63.0282 16.7745 62.4903 16.7745 61.6882C16.7745 60.9899 16.411 60.386 15.7224 60.386C15.2824 60.386 14.8712 60.6785 14.7468 61.1692C14.7277 61.2447 14.7086 61.3296 14.7086 61.4334V62.0657V62.0468Z" fill="white"/>
<path d="M18.6706 58.9706C18.6706 59.1876 18.5176 59.3575 18.2593 59.3575C18.0298 59.3575 17.8672 59.1876 17.8672 58.9706C17.8672 58.7535 18.0393 58.5742 18.2689 58.5742C18.4984 58.5742 18.661 58.7441 18.661 58.9706H18.6706ZM17.9533 63.4435V59.952H18.5941V63.4435H17.9533Z" fill="white"/>
<path d="M19.3906 58.3193H20.0314V63.4434H19.3906V58.3193Z" fill="white"/>
<path d="M21.5456 58.9706C21.5456 59.1876 21.3926 59.3575 21.1343 59.3575C20.9048 59.3575 20.7422 59.1876 20.7422 58.9706C20.7422 58.7535 20.9143 58.5742 21.1439 58.5742C21.3734 58.5742 21.536 58.7441 21.536 58.9706H21.5456ZM20.8283 63.4435V59.952H21.4691V63.4435H20.8283Z" fill="white"/>
<path d="M23.0375 58.9421V59.9423H23.9557V60.4236H23.0375V62.3109C23.0375 62.745 23.1619 62.9904 23.5157 62.9904C23.6879 62.9904 23.8122 62.9715 23.8888 62.9432L23.9174 63.415C23.7931 63.4622 23.5923 63.4999 23.3436 63.4999C23.0471 63.4999 22.7984 63.4056 22.6454 63.2357C22.4637 63.047 22.3967 62.7356 22.3967 62.3298V60.4236H21.8516V59.9423H22.3967V59.1025L23.028 58.9326L23.0375 58.9421Z" fill="white"/>
<path d="M26.3691 63.4437L26.3213 63.0001H26.3022C26.1013 63.2738 25.7283 63.5192 25.2214 63.5192C24.5041 63.5192 24.1406 63.019 24.1406 62.5189C24.1406 61.679 24.8962 61.2166 26.2639 61.2166V61.1411C26.2639 60.8486 26.1874 60.3296 25.4605 60.3296C25.1353 60.3296 24.791 60.4334 24.5423 60.5938L24.3989 60.1786C24.6954 59.9899 25.1162 59.8672 25.5657 59.8672C26.6465 59.8672 26.9143 60.5938 26.9143 61.2921V62.5944C26.9143 62.8963 26.9334 63.1889 26.9717 63.4342H26.3882L26.3691 63.4437ZM26.2735 61.6601C25.5753 61.6507 24.7719 61.7734 24.7719 62.4434C24.7719 62.8586 25.0492 63.0473 25.3744 63.0473C25.8335 63.0473 26.13 62.7548 26.2256 62.4623C26.2448 62.3962 26.2639 62.3207 26.2639 62.2641V61.6601H26.2735Z" fill="white"/>
<path d="M28.4047 58.9421V59.9423H29.3229V60.4236H28.4047V62.3109C28.4047 62.745 28.5291 62.9904 28.8829 62.9904C29.0551 62.9904 29.1794 62.9715 29.2559 62.9432L29.2846 63.415C29.1603 63.4622 28.9595 63.4999 28.7108 63.4999C28.4143 63.4999 28.1656 63.4056 28.0126 63.2357C27.8309 63.047 27.7639 62.7356 27.7639 62.3298V60.4236H27.2188V59.9423H27.7639V59.1025L28.3952 58.9326L28.4047 58.9421Z" fill="white"/>
<path d="M30.4909 58.9706C30.4909 59.1876 30.3379 59.3575 30.0796 59.3575C29.8501 59.3575 29.6875 59.1876 29.6875 58.9706C29.6875 58.7535 29.8597 58.5742 30.0892 58.5742C30.3187 58.5742 30.4813 58.7441 30.4813 58.9706H30.4909ZM29.7736 63.4435V59.952H30.4144V63.4435H29.7736Z" fill="white"/>
<path d="M34.4058 61.6689C34.4058 62.9617 33.4972 63.5185 32.646 63.5185C31.6896 63.5185 30.9531 62.8296 30.9531 61.7256C30.9531 60.5554 31.7278 59.876 32.7034 59.876C33.6789 59.876 34.4058 60.6026 34.4058 61.6689ZM31.5939 61.7067C31.5939 62.471 32.0435 63.0467 32.6651 63.0467C33.2868 63.0467 33.7363 62.4805 33.7363 61.6878C33.7363 61.0933 33.4398 60.3478 32.6747 60.3478C31.9096 60.3478 31.5844 61.0367 31.5844 61.7067H31.5939Z" fill="white"/>
<path d="M34.9349 60.8958C34.9349 60.5372 34.9349 60.2352 34.9062 59.9521H35.4801L35.5184 60.5278H35.5375C35.7097 60.1975 36.1209 59.8672 36.7043 59.8672C37.1921 59.8672 37.9573 60.1597 37.9573 61.3582V63.4437H37.3165V61.4337C37.3165 60.8675 37.106 60.4051 36.4939 60.4051C36.0731 60.4051 35.7383 60.6976 35.6331 61.0562C35.6044 61.1317 35.5853 61.2449 35.5853 61.3487V63.4437H34.9445V60.8958H34.9349Z" fill="white"/>
<path d="M43.3421 63.4432C43.2369 63.3394 43.1316 63.2262 42.9786 63.0658C42.6439 63.3677 42.2709 63.4998 41.85 63.4998C41.0945 63.4998 40.6641 62.9997 40.6641 62.4241C40.6641 61.9051 40.9797 61.5465 41.4196 61.3105V61.2917C41.2188 61.0463 41.0945 60.7632 41.0945 60.4896C41.0945 60.0272 41.4292 59.5459 42.0796 59.5459C42.5674 59.5459 42.9404 59.8667 42.9404 60.3574C42.9404 60.7632 42.7013 61.0746 42.0891 61.3766V61.3955C42.4143 61.7729 42.7873 62.1882 43.036 62.4618C43.2177 62.1976 43.3325 61.8296 43.409 61.3483H43.8681C43.7629 61.9522 43.6003 62.4241 43.3134 62.7638C43.5238 62.9808 43.7246 63.1979 43.9542 63.4432H43.3612H43.3421ZM42.7299 62.7827C42.5004 62.5373 42.07 62.0655 41.6396 61.5842C41.4292 61.7163 41.1423 61.9617 41.1423 62.358C41.1423 62.7921 41.4675 63.1318 41.9361 63.1318C42.2709 63.1318 42.5482 62.9808 42.7299 62.7827ZM41.5535 60.4518C41.5535 60.7255 41.6779 60.9331 41.85 61.1407C42.2422 60.9142 42.4908 60.716 42.4908 60.3952C42.4908 60.1593 42.3569 59.9045 42.0413 59.9045C41.7257 59.9045 41.5535 60.1687 41.5535 60.4613V60.4518Z" fill="white"/>
<path d="M47.1963 61.9236L46.6894 63.4429H46.0391L47.7033 58.6113H48.4684L50.1421 63.4429H49.4631L48.937 61.9236H47.1963ZM48.8031 61.4329L48.3249 60.0457C48.2197 59.7343 48.1432 59.4418 48.0667 59.1681H48.0571C47.9806 59.4512 47.9041 59.7532 47.8085 60.0457L47.3302 61.4423H48.8031V61.4329Z" fill="white"/>
<path d="M50.5365 61.0559C50.5365 60.6501 50.5365 60.2915 50.5078 59.9707H51.0625L51.0817 60.6501H51.1104C51.273 60.1877 51.6555 59.8857 52.0859 59.8857C52.1624 59.8857 52.2103 59.8857 52.2676 59.9046V60.4991C52.2007 60.4897 52.1337 60.4802 52.0477 60.4802C51.5981 60.4802 51.2825 60.82 51.1869 61.2918C51.1773 61.3767 51.1582 61.4805 51.1582 61.5843V63.4339H50.5269V61.0464L50.5365 61.0559Z" fill="white"/>
<path d="M53.7606 58.9704V59.9707H54.6788V60.4519H53.7606V62.3204C53.7606 62.7545 53.8849 62.9904 54.2388 62.9904C54.4014 62.9904 54.5257 62.9715 54.6118 62.9432L54.6405 63.415C54.5162 63.4622 54.3249 63.5 54.0762 63.5C53.7797 63.5 53.5406 63.4056 53.3876 63.2357C53.2059 63.047 53.1389 62.745 53.1389 62.3298V60.4331H52.5938V59.9518H53.1389V59.1214L53.7606 58.9609V58.9704Z" fill="white"/>
<path d="M56.0048 58.9979C56.0048 59.2149 55.8517 59.3848 55.5935 59.3848C55.364 59.3848 55.2109 59.2149 55.2109 58.9979C55.2109 58.7809 55.3735 58.6016 55.6126 58.6016C55.8517 58.6016 56.0048 58.7714 56.0048 58.9979ZM55.2875 63.4426V59.9699H55.9283V63.4426H55.2875Z" fill="white"/>
<path d="M56.9583 63.4428V60.4513H56.4609V59.9701H56.9583V59.7813C56.9583 58.866 57.5034 58.2715 58.4886 58.2715C58.8138 58.2715 59.1963 58.3753 59.3781 58.498L59.1963 58.9792C59.0433 58.8754 58.7659 58.7811 58.4599 58.7811C57.7808 58.7811 57.5895 59.2435 57.5895 59.8002V59.9701H59.6363V63.4428H59.005V60.4513H57.5991V63.4428H56.9678H56.9583Z" fill="white"/>
<path d="M63.1078 63.3106C62.9452 63.3955 62.5722 63.5088 62.094 63.5088C61.0324 63.5088 60.3438 62.801 60.3438 61.7347C60.3438 60.6683 61.0802 59.8945 62.2375 59.8945C62.6105 59.8945 62.9452 59.9889 63.127 60.0738L62.9835 60.5645C62.8305 60.4796 62.5914 60.4041 62.247 60.4041C61.4436 60.4041 61.0037 60.9892 61.0037 61.7158C61.0037 62.5179 61.5297 63.0181 62.2279 63.0181C62.5914 63.0181 62.8305 62.9237 63.0122 62.8482L63.1174 63.32L63.1078 63.3106Z" fill="white"/>
<path d="M64.4657 58.9979C64.4657 59.2149 64.3127 59.3848 64.0544 59.3848C63.8249 59.3848 63.6719 59.2149 63.6719 58.9979C63.6719 58.7809 63.8345 58.6016 64.0736 58.6016C64.3127 58.6016 64.4657 58.7714 64.4657 58.9979ZM63.7484 63.4426V59.9699H64.3892V63.4426H63.7484Z" fill="white"/>
<path d="M67.3031 63.4434L67.2553 63.0093H67.2362C67.0353 63.2829 66.6623 63.5283 66.165 63.5283C65.4476 63.5283 65.0938 63.0376 65.0938 62.528C65.0938 61.6881 65.8493 61.2257 67.2075 61.2352V61.1597C67.2075 60.8766 67.1309 60.3576 66.4041 60.3576C66.0789 60.3576 65.7346 60.4614 65.4859 60.6124L65.3424 60.1972C65.6294 60.0084 66.0502 59.8857 66.4997 59.8857C67.5709 59.8857 67.8387 60.6124 67.8387 61.3012V62.6035C67.8387 62.9055 67.8483 63.198 67.8961 63.4339H67.3127L67.3031 63.4434ZM67.2075 61.6693C66.5093 61.6504 65.7154 61.7731 65.7154 62.4525C65.7154 62.8583 65.9928 63.0564 66.318 63.0564C66.7771 63.0564 67.064 62.7733 67.1692 62.4714C67.1883 62.4053 67.2075 62.3393 67.2075 62.2732V61.6693Z" fill="white"/>
<path d="M68.7578 58.3477H69.3986V63.4434H68.7578V58.3477Z" fill="white"/>
<path d="M73.2656 58.6016H73.8969V62.9141H75.9914V63.4331H73.2656V58.6016Z" fill="white"/>
<path d="M77.1063 58.9979C77.1063 59.2149 76.9533 59.3848 76.6951 59.3848C76.4655 59.3848 76.3125 59.2149 76.3125 58.9979C76.3125 58.7809 76.4751 58.6016 76.7142 58.6016C76.9533 58.6016 77.1063 58.7714 77.1063 58.9979ZM76.389 63.4426V59.9699H77.0298V63.4426H76.389Z" fill="white"/>
<path d="M77.8256 60.9046C77.8256 60.546 77.8256 60.2534 77.7969 59.9609H78.3516L78.3803 60.5177H78.3994C78.6003 60.1874 78.9255 59.876 79.4993 59.876C79.9775 59.876 80.341 60.1591 80.494 60.5743H80.5131C80.6183 60.3761 80.7618 60.2346 80.9053 60.1213C81.1157 59.9609 81.3452 59.876 81.68 59.876C82.1486 59.876 82.8373 60.178 82.8373 61.3858V63.4336H82.2156V61.4708C82.2156 60.8008 81.9669 60.4044 81.4504 60.4044C81.087 60.4044 80.8001 60.6687 80.6949 60.9801C80.6662 61.065 80.647 61.1782 80.647 61.2915V63.4336H80.0254V61.3575C80.0254 60.8102 79.7767 60.4044 79.2889 60.4044C78.8872 60.4044 78.6003 60.7158 78.4951 61.0367C78.4568 61.131 78.4472 61.2349 78.4472 61.3481V63.443H77.8256V60.914V60.9046Z" fill="white"/>
<path d="M83.5859 63.4434C83.5955 63.2075 83.6146 62.8584 83.6146 62.5469V58.3477H84.2459V60.5275H84.265C84.4945 60.1406 84.8962 59.8858 85.4605 59.8858C86.3309 59.8858 86.9526 60.603 86.943 61.6599C86.943 62.8961 86.1492 63.5189 85.3649 63.5189C84.858 63.5189 84.4467 63.3208 84.1885 62.8678H84.1694L84.1407 63.4434H83.5859ZM84.2459 62.0562C84.2459 62.1317 84.265 62.2167 84.2746 62.2827C84.3989 62.7168 84.7719 63.0188 85.231 63.0188C85.9005 63.0188 86.3022 62.4809 86.3022 61.6882C86.3022 60.9899 85.9388 60.3954 85.2597 60.3954C84.8197 60.3954 84.418 60.6879 84.2841 61.1692C84.265 61.2447 84.2459 61.3296 84.2459 61.424V62.0468V62.0562Z" fill="white"/>
<path d="M87.3909 62.7922C87.5822 62.9149 87.9169 63.047 88.2326 63.047C88.7012 63.047 88.9116 62.8205 88.9116 62.528C88.9116 62.226 88.7299 62.0656 88.2613 61.8863C87.63 61.6598 87.3335 61.3201 87.3335 60.9049C87.3335 60.3481 87.7926 59.8857 88.5482 59.8857C88.9021 59.8857 89.2177 59.9895 89.409 60.1028L89.2464 60.5652C89.1125 60.4803 88.8542 60.367 88.5291 60.367C88.156 60.367 87.9361 60.5841 87.9361 60.8388C87.9361 61.1219 88.1465 61.254 88.6056 61.4239C89.2177 61.6504 89.5237 61.9524 89.5237 62.4714C89.5237 63.0848 89.0455 63.5094 88.2039 63.5094C87.8213 63.5094 87.4579 63.415 87.2188 63.2735L87.3813 62.7922H87.3909Z" fill="white"/>
<path d="M129.902 6.87926C129.692 4.78433 129.309 3.06686 128.936 1.89672C128.754 1.31165 128.582 0.858695 128.439 0.547287C128.305 0.245315 128.228 0.0943289 128.228 0.0943289C128.19 0.0188359 128.104 -0.0189105 128.028 0.00939932C127.951 0.0377092 127.913 0.132075 127.941 0.207568C127.941 0.207568 128.008 0.367991 128.114 0.669963C128.219 0.962498 128.353 1.42489 128.487 2.00053C128.754 3.17067 128.984 4.86926 129.051 6.92644C129.118 8.98362 129.013 11.3805 128.649 13.9095C128.276 16.4386 127.645 19.0997 126.641 21.5909C126.134 22.8366 125.55 24.0445 124.871 25.158C124.202 26.2809 123.427 27.3001 122.605 28.1966C121.763 29.0836 120.873 29.8574 119.955 30.4614C119.037 31.0748 118.1 31.5466 117.201 31.8957C116.302 32.2449 115.45 32.4714 114.676 32.6224C113.911 32.7828 113.212 32.8394 112.648 32.8866C112.352 32.9055 111.95 32.9149 111.615 32.9243C111.233 32.9243 110.84 32.9243 110.458 32.8866C109.167 32.7356 107.856 32.4053 106.594 31.858C104.652 31.0276 102.845 29.7064 101.439 28.0078C101.257 27.8002 101.094 27.5832 100.922 27.3567C100.846 27.2435 100.75 27.1302 100.683 27.0264L100.444 26.6773C100.148 26.2149 99.8798 25.7336 99.6598 25.224C99.2007 24.2143 98.8947 23.1291 98.713 22.0345C98.3782 19.8263 98.5695 17.5332 99.2581 15.4383C99.6024 14.3908 100.062 13.3811 100.626 12.4657C101.19 11.5409 101.869 10.7011 102.634 9.97447C103.017 9.60644 103.428 9.27616 103.839 8.96475C104.05 8.8232 104.27 8.66278 104.49 8.52123C104.71 8.38912 104.92 8.24757 105.15 8.12489C106.039 7.62475 106.967 7.22841 107.904 6.93588C109.769 6.35081 111.663 6.22813 113.356 6.41686C115.058 6.6056 116.57 7.11517 117.813 7.71912C119.056 8.3325 120.022 9.06855 120.768 9.72912C121.514 10.3897 122.031 10.9936 122.365 11.4088C122.7 11.824 123.456 12.8621 123.571 12.8055C123.618 12.7866 123.618 12.8055 123.647 12.7583C123.695 12.6922 123.111 11.6259 122.815 11.1635C122.509 10.7105 121.926 9.97447 121.208 9.21954C120.491 8.46461 119.525 7.65306 118.243 6.86982C116.971 6.08658 115.374 5.40715 113.509 5.05799C111.653 4.68996 109.521 4.70884 107.359 5.22785C106.278 5.48264 105.188 5.86954 104.145 6.39799C103.878 6.52067 103.6 6.69053 103.333 6.83207C103.199 6.90757 103.103 6.97362 102.979 7.03968L102.806 7.14348L102.72 7.19067L102.682 7.21898H102.663L102.606 7.2756C102.089 7.61531 101.582 7.97391 101.104 8.38912C100.616 8.79489 100.176 9.23841 99.7459 9.71024C99.3251 10.1915 98.9234 10.6917 98.5695 11.2201C97.8426 12.277 97.2496 13.4377 96.7905 14.655C95.8628 17.0897 95.5089 19.7791 95.8054 22.4686C95.9585 23.818 96.3028 25.1674 96.8479 26.4508C96.9818 26.7717 97.1349 27.0925 97.2879 27.4039C97.3548 27.5549 97.4696 27.7342 97.5557 27.904L97.6992 28.1588L97.7757 28.2815L97.8331 28.3759L98.0626 28.7345L98.0913 28.7817V28.8005L98.1678 28.8855L98.2443 28.9893L98.3878 29.1969C98.5791 29.4705 98.7895 29.7348 99.0095 29.9895C99.8702 31.0276 100.855 31.9524 101.927 32.745C103.007 33.5283 104.165 34.17 105.36 34.6607C107.761 35.6232 110.295 35.9912 112.629 35.8214C114.972 35.6609 117.124 35.0193 118.884 34.0473C119.295 33.8208 119.687 33.5849 120.051 33.3301C120.5 33.0659 120.94 32.7733 121.38 32.4525C122.432 31.6881 123.418 30.7445 124.317 29.6876C125.206 28.6212 126.009 27.4417 126.679 26.1771C127.358 24.9126 127.903 23.5726 128.362 22.2232C128.812 20.8643 129.166 19.4866 129.424 18.1088C129.692 16.7405 129.854 15.3817 129.96 14.0605C130.17 11.4277 130.103 8.96475 129.873 6.86982L129.902 6.87926Z" fill="white"/>
<path d="M134.76 24.8284C134.617 23.4507 134.416 22.3749 134.282 21.6483C134.215 21.2802 134.158 21.0066 134.11 20.8179C134.072 20.6291 134.072 20.5725 134.005 20.5348C133.928 20.4876 133.775 20.5253 133.737 20.5914C133.699 20.6574 133.718 20.7046 133.737 20.8933C133.756 21.0821 133.785 21.3652 133.814 21.7332C133.881 22.4693 133.967 23.545 133.976 24.9133C133.995 26.2817 133.976 27.9331 133.766 29.8015C133.555 31.67 133.24 33.7555 132.647 35.9731C132.36 37.0771 131.987 38.219 131.585 39.3702C131.183 40.531 130.705 41.7105 130.17 42.8901C129.098 45.2681 127.692 47.6367 126.114 49.9959C124.517 52.3456 122.662 54.6293 120.577 56.7431C119.534 57.8 118.463 58.838 117.334 59.81C117.181 59.9421 117.028 60.0648 116.885 60.1874C117.047 59.6212 117.191 59.055 117.306 58.47C117.65 56.7336 117.765 54.9218 117.583 53.1194C117.401 51.317 116.885 49.5524 116.12 47.9764C115.747 47.1838 115.288 46.4477 114.8 45.7588C114.675 45.589 114.551 45.4191 114.427 45.2493C114.302 45.0888 114.169 44.919 114.025 44.7491L113.853 44.5415C113.767 44.4377 113.7 44.3717 113.623 44.2773C113.47 44.1074 113.317 43.947 113.164 43.796C111.911 42.5787 110.63 41.7577 109.405 41.05C108.162 40.3611 106.947 39.8138 105.79 39.3325C104.623 38.8512 103.523 38.4266 102.452 38.0774C101.391 37.7283 100.377 37.4263 99.4491 37.1432C98.9995 37.0017 98.5691 36.8695 98.1579 36.7374C98.0718 36.7186 97.9475 36.6619 97.8423 36.6336C97.3832 36.4449 97.3353 36.0486 97.3353 35.8693C97.3353 35.8126 97.3449 35.7466 97.3545 35.69C97.4119 35.1143 97.5745 34.5387 97.7371 34.048C97.9092 33.5573 98.0622 33.1232 98.2057 32.774C98.3396 32.4249 98.4544 32.1607 98.5309 31.9719C98.5978 31.7832 98.6361 31.736 98.5978 31.6888C98.5596 31.6417 98.3779 31.5379 98.3109 31.5756C98.2535 31.6133 98.2535 31.6228 98.177 31.7266C98.0527 31.8776 97.8996 32.1135 97.6797 32.4155C97.4597 32.7174 97.2014 33.1043 96.9145 33.5667C96.6372 34.0386 96.3215 34.5859 96.0824 35.2559C95.9677 35.5956 95.8624 35.9636 95.8338 36.3788C95.8051 36.7846 95.8816 37.2659 96.1685 37.6717C96.312 37.8698 96.4937 38.0397 96.7041 38.1718C96.9241 38.3039 97.1154 38.3888 97.3258 38.4926C97.7466 38.6814 98.177 38.8701 98.6265 39.0588C100.415 39.8138 102.443 40.6536 104.566 41.72C105.628 42.2579 106.718 42.8429 107.789 43.5318C108.86 44.2207 109.922 45.0039 110.84 45.957C111.739 46.929 112.504 48.0897 113.088 49.3448C113.671 50.6093 114.035 51.9964 114.169 53.4402C114.427 56.3279 113.738 59.3381 112.581 62.1786C112.294 62.8957 111.969 63.5941 111.634 64.3018L111.127 65.3681C111.041 65.5474 110.964 65.7362 110.888 65.9343C110.85 66.0381 110.811 66.1419 110.792 66.2929C110.792 66.3307 110.792 66.3779 110.792 66.4345C110.792 66.4628 110.792 66.4911 110.811 66.5383C110.85 66.6421 110.831 66.5855 110.84 66.6138L110.859 66.6515C110.859 66.6515 110.888 66.6987 110.907 66.727C110.945 66.7836 110.974 66.8119 111.012 66.8402C111.165 66.9629 111.328 67.0007 111.462 67.0101C111.596 67.0195 111.72 67.0101 111.835 67.0007C112.064 66.9724 112.275 66.9063 112.476 66.8402C112.877 66.6987 113.25 66.5288 113.614 66.3401C114.341 65.9626 115.02 65.5286 115.68 65.0662C118.319 63.2166 120.653 61.0084 122.767 58.687C124.871 56.3562 126.736 53.8743 128.314 51.3453C129.892 48.8069 131.183 46.2212 132.188 43.6733C133.182 41.1255 133.89 38.6342 134.33 36.2939C135.22 31.6039 135.086 27.5933 134.78 24.8473L134.76 24.8284Z" fill="white"/>
</g>
<defs>
<clipPath id="clip0_908_21169">
<rect width="135" height="67" fill="white"/>
</clipPath>
</defs>
</svg>
